<svg width="146" height="227" viewBox="0 0 146 227" fill="none" xmlns="http://www.w3.org/2000/svg">
<g opacity="0.1">
<path d="M78.4593 67.6768C89.7027 70.2895 105.765 82.3079 115.201 90.4073C121.291 103.732 132.307 133.047 127.649 143.706C121.827 157.031 24.8526 149.716 14.0108 116.796C3.16901 83.8756 -3.9765 7.64435 47.5334 0.365836C90.286 -5.67523 67.216 65.0641 78.4593 67.6768Z" fill="#0400A4"/>
<path d="M78.4593 67.6768C89.7027 70.2895 105.765 82.3079 115.201 90.4073C121.291 103.732 132.307 133.047 127.649 143.706C121.827 157.031 24.8526 149.716 14.0108 116.796C3.16901 83.8756 -3.9765 7.64435 47.5334 0.365836C90.286 -5.67523 67.216 65.0641 78.4593 67.6768Z" fill="url(#paint0_linear)"/>
</g>
<path d="M44.0243 114.633L54.6359 68.028L90.9161 67.0242L103.248 116.784L44.0243 114.633Z" fill="#192749"/>
<path d="M93.5683 59.1599C95.7754 47.6485 87.8544 36.4548 75.8763 34.1583C63.8982 31.8617 52.3988 39.3318 50.1916 50.8432C47.9845 62.3547 55.9055 73.5483 67.8836 75.8449C79.8617 78.1415 91.3611 70.6713 93.5683 59.1599Z" fill="#F9CABC"/>
<path d="M57.9341 50.5331L59.7983 43.5065L60.3719 50.5331L73.9949 51.5369L77.7233 43.6499L80.3045 51.1067L87.0443 50.1029L87.4745 45.2273L88.4783 50.1029L94.7879 48.2387C94.7879 48.2387 87.3311 29.5967 71.1269 31.3175C55.0661 33.1817 49.9037 47.0915 49.9037 47.0915L49.1867 49.0991L57.9341 50.5331Z" fill="#282426"/>
<path d="M42.4469 110.044L52.4849 110.618L89.3387 113.199L102.101 113.056L73.1345 121.516L42.4469 110.044Z" fill="#B2B0A5"/>
<path d="M40.8695 121.373C40.8695 121.373 29.6843 120.512 28.9673 123.237C28.2503 126.105 41.0129 128.113 41.0129 128.113L40.8695 121.373Z" fill="#FEC75D"/>
<path d="M98.8031 127.539L40.0091 128.113L39.1487 120.656C39.1487 120.656 94.5011 113.342 103.965 112.912C117.732 112.339 107.837 125.531 98.8031 127.539Z" fill="#BAB9B1"/>
<path d="M99.5201 117.214C99.5201 117.214 110.992 116.354 111.566 119.079C112.283 121.947 99.2333 123.954 99.2333 123.954L99.5201 117.214Z" fill="#FEC75D"/>
<path d="M45.3149 107.176L101.097 115.78L100.954 124.384C100.954 124.384 48.8999 125.531 43.8809 123.237C33.2693 118.218 32.5523 107.32 45.3149 107.176Z" fill="#C7C6B9"/>
<path d="M37.5713 91.9759L71.5571 99.2893L105.543 92.4061L104.826 45.2275L71.5571 53.2579L38.8619 47.3785L37.5713 91.9759Z" fill="#F2564D"/>
<path d="M42.0167 69.032C42.0167 69.032 44.5979 67.8848 45.0281 66.7376C45.7451 64.73 39.4355 68.315 39.4355 68.315C39.4355 68.315 41.8733 65.8772 40.7261 65.3036C39.1487 64.5866 36.5675 67.598 36.1373 69.6056C35.2769 73.7642 39.2921 75.1982 42.8771 75.3416C44.0243 75.3416 45.0281 75.3416 45.1715 75.1982C46.3187 74.6246 41.4431 73.0472 41.4431 73.0472C41.4431 73.0472 46.0319 73.1906 46.7489 72.7604C48.3263 71.7566 42.0167 70.8962 42.0167 70.8962C42.0167 70.8962 46.8923 70.3226 47.3225 69.4622C48.1829 68.0282 42.0167 69.032 42.0167 69.032Z" fill="#F9CABC"/>
<path d="M101.958 68.6017C101.958 68.6017 99.3767 67.4545 98.8031 66.3073C97.9427 64.2997 104.682 67.7413 104.682 67.7413C104.682 67.7413 102.101 65.3035 103.248 64.7299C104.826 63.8695 107.694 67.0243 108.124 69.1753C109.128 73.4773 104.969 75.0547 101.241 75.1981C99.9503 75.1981 99.0899 75.1981 98.8031 75.0547C97.6559 74.4811 102.531 72.7603 102.531 72.7603C102.531 72.7603 97.7993 72.9037 97.0823 72.4735C95.5049 71.4697 101.814 70.4659 101.814 70.4659C101.814 70.4659 96.7955 70.0357 96.3653 69.1753C95.6483 67.4545 101.958 68.6017 101.958 68.6017Z" fill="#F9CABC"/>
<path d="M71.5571 53.2581V99.2895" stroke="#B5414D" stroke-width="0.2335" stroke-miterlimit="10"/>
<path d="M40.0091 47.6652L41.1563 45.801L71.5571 51.8238L103.105 43.9368L103.822 45.5142L71.5571 53.2578L40.0091 47.6652Z" fill="#F9F9EF"/>
<path d="M40.8695 46.2311L71.5571 52.2539L103.248 44.3669" stroke="#706F6F" stroke-width="0.076205" stroke-miterlimit="10"/>
<path d="M40.4393 47.0914L71.5571 52.8274L103.535 44.9404" stroke="#706F6F" stroke-width="0.076205" stroke-miterlimit="10"/>
<g opacity="0.1">
<circle cx="73" cy="206" r="21" fill="url(#paint1_linear)"/>
<circle cx="73" cy="206" r="21" fill="url(#paint2_linear)"/>
</g>
<path d="M73.0226 215.097V200.172H70.2226L71.1976 198.422H74.8726V215.097H73.0226Z" fill="url(#paint3_linear)"/>
<defs>
<linearGradient id="paint0_linear" x1="128.767" y1="0" x2="-10.262" y2="117.164" gradientUnits="userSpaceOnUse">
<stop stop-color="#6E2287"/>
<stop offset="0.671875" stop-color="#D85855"/>
</linearGradient>
<linearGradient id="paint1_linear" x1="52" y1="188.15" x2="94" y2="230.57" gradientUnits="userSpaceOnUse">
<stop stop-color="#A634FF"/>
<stop offset="1" stop-color="#FD5925"/>
</linearGradient>
<linearGradient id="paint2_linear" x1="52" y1="185" x2="91.48" y2="225.74" gradientUnits="userSpaceOnUse">
<stop stop-color="#6E2287"/>
<stop offset="1" stop-color="#D85855"/>
</linearGradient>
<linearGradient id="paint3_linear" x1="65.9771" y1="194.097" x2="87.0234" y2="207.128" gradientUnits="userSpaceOnUse">
<stop stop-color="#9C27BA"/>
<stop offset="1" stop-color="#FF7471"/>
</linearGradient>
</defs>
</svg>
