<svg width="112" height="213" viewBox="0 0 112 213" fill="none" xmlns="http://www.w3.org/2000/svg">
<path opacity="0.1" d="M9.84659 114.583C17.4922 126.981 53.0499 121.605 56.6217 114.583C69.9363 104.822 96.8586 80.9842 98.0315 63.7227C102.81 60.2619 105.224 39.8911 103.381 34.6754C101.136 28.3256 99.6075 13.3483 82.248 5.18898C77.0586 2.74985 46.1028 -7.57466 26.4859 10.245C4.11478 30.5665 0.994883 50.3487 0 72.1492C0 86.745 0.289605 99.0838 9.84659 114.583Z" fill="url(#paint0_linear)"/>
<path d="M82.098 128.089L82.2103 132.583L79.6262 132.807C78.5027 132.92 77.6039 134.156 77.6039 135.729L87.0415 135.392V127.639L82.098 128.089Z" fill="#F9CABC"/>
<path d="M82.7721 132.358L87.1538 132.246L87.2662 135.616L77.4915 135.729C77.4915 133.931 78.6151 132.583 80.0756 132.47L82.7721 132.358Z" fill="#141312"/>
<path d="M65.8068 126.853V131.347L63.2228 131.459C62.0992 131.459 61.2004 132.695 61.0881 134.268H70.5256L70.7503 126.516L65.8068 126.853Z" fill="#F9CABC"/>
<path d="M66.2563 131.234L70.6381 131.347V134.717L60.8634 134.493C60.8634 132.695 62.0993 131.347 63.5599 131.347L66.2563 131.234Z" fill="#141312"/>
<path d="M61.3128 88.6528C61.3128 88.6528 61.9869 117.977 64.0093 126.74L70.6381 127.077L73.5592 97.5287H75.4692L80.5251 128.201H87.3786L87.828 90.6752L61.3128 88.6528Z" fill="#AFA39E"/>
<path d="M49.6281 44.1614C49.6281 44.1614 49.4034 42.2514 49.8528 41.5773C50.7516 40.3414 51.0887 45.5096 51.0887 45.5096C51.0887 45.5096 51.5381 43.1502 52.3245 43.5996C53.3357 44.1614 52.5493 46.9702 51.5381 47.9814C49.4034 50.1161 47.044 48.3184 45.5834 46.1837C45.134 45.5096 44.7969 44.9478 44.7969 44.7231C44.6846 43.8243 47.4934 46.0714 47.4934 46.0714C47.4934 46.0714 45.6957 43.3749 45.6957 42.8132C45.6957 41.4649 48.5046 44.8355 48.5046 44.8355C48.5046 44.8355 46.9316 41.802 47.2687 41.1279C47.9428 40.1167 49.6281 44.1614 49.6281 44.1614Z" fill="#F9CABC"/>
<path d="M52.9987 47.1951C52.9987 47.1951 59.2904 60.6774 70.4133 63.4862L71.4245 70.0026C71.4245 70.0026 54.9087 69.2161 47.4934 48.768L52.9987 47.1951Z" fill="#9FC4AF"/>
<path d="M84.2326 64.7221C82.5473 64.2727 81.6485 62.4751 82.0979 60.7898L83.8956 54.498L89.8502 56.1833L88.0526 62.4751C87.6032 64.2727 85.9179 65.1715 84.2326 64.7221Z" fill="#EFB7A4"/>
<path d="M101.76 51.1274C98.2767 58.4303 89.8503 61.3514 83.1091 57.5315C76.2556 53.8238 73.5592 44.8356 77.1545 37.5327C80.6374 30.2298 89.0638 27.3086 95.805 31.1286C102.546 34.8362 105.243 43.8245 101.76 51.1274Z" fill="#F9CABC"/>
<path d="M107.265 35.3981C105.804 35.3981 104.568 35.8475 103.557 36.6339C99.2879 26.8593 88.7268 27.6458 85.4685 28.2075C84.7944 28.3199 84.2327 28.8816 84.1203 29.6681C83.7833 32.5893 84.2327 40.4539 90.6368 42.9257C90.6368 42.9257 87.0415 50.678 89.1762 59.3291C98.6138 59.3291 104.681 51.4644 104.793 43.4874C105.467 43.7121 106.141 43.9369 106.928 43.9369C109.737 44.0492 111.984 42.1392 111.984 39.8922C112.208 37.3081 110.074 35.3981 107.265 35.3981Z" fill="#141312"/>
<path d="M77.2668 37.1958L75.5815 37.3081C75.0198 37.4205 74.7951 38.0946 75.1321 38.544L76.2557 39.8922L77.2668 37.1958Z" fill="#DA9D9B"/>
<path d="M82.6231 38.9126C82.8015 38.5165 82.7168 38.0922 82.4339 37.9647C82.151 37.8373 81.777 38.0551 81.5986 38.4511C81.4202 38.8472 81.505 39.2715 81.7879 39.3989C82.0707 39.5263 82.4447 39.3086 82.6231 38.9126Z" fill="#141312"/>
<path d="M92.3221 44.8356C91.985 45.9592 91.0862 46.6333 90.1874 46.2962C89.2886 46.0715 88.8391 44.948 89.0639 43.9368C89.4009 42.8133 90.2997 42.1392 91.1985 42.4762C92.0974 42.7009 92.6591 43.8245 92.3221 44.8356Z" fill="#F9CABC"/>
<path d="M89.738 45.1728C89.738 45.1728 90.5244 42.5887 91.1985 43.7122C92.2097 45.3975 90.6368 44.611 90.6368 44.611C90.6368 44.611 90.4121 44.3863 89.738 45.1728Z" fill="#DA9D9B"/>
<path d="M77.6039 47.8693C78.1623 47.8693 78.615 47.4166 78.615 46.8581C78.615 46.2996 78.1623 45.8469 77.6039 45.8469C77.0454 45.8469 76.5927 46.2996 76.5927 46.8581C76.5927 47.4166 77.0454 47.8693 77.6039 47.8693Z" fill="white"/>
<path d="M82.7721 45.7345C83.951 45.7345 84.9067 44.7787 84.9067 43.5998C84.9067 42.4208 83.951 41.4651 82.7721 41.4651C81.5931 41.4651 80.6374 42.4208 80.6374 43.5998C80.6374 44.7787 81.5931 45.7345 82.7721 45.7345Z" fill="#EAA9A4"/>
<path d="M76.5927 46.8581C76.5927 46.8581 77.4915 46.4087 77.6039 46.8581C77.6039 46.8581 78.278 46.0716 78.615 46.8581C78.615 46.8581 78.615 47.8693 77.6039 47.8693C76.5927 47.8693 76.5927 46.8581 76.5927 46.8581Z" fill="#F7DCDC"/>
<path d="M33.337 18.545L50.527 17.8709L66.7057 14.9497L68.7281 42.139L52.5493 44.8355L37.6064 50.4531L33.337 18.545Z" fill="#EF554B"/>
<path d="M50.4146 18.7698L52.9987 43.8244L67.4922 41.3527L65.6945 16.2981L50.4146 18.7698Z" fill="#ECDFD9"/>
<path d="M50.4146 18.7695C50.4146 18.7695 36.1459 19.556 34.0112 19.4437L38.0558 49.1047L52.9987 43.7118L50.4146 18.7695Z" fill="#ECDFD9"/>
<path d="M50.4146 18.7695C50.4146 18.7695 38.6176 20.5672 35.8088 20.5672L39.4041 48.543L52.9987 43.7118L50.4146 18.7695Z" fill="#F1EAE7"/>
<path d="M50.4146 18.7695C50.4146 18.7695 41.8758 21.803 38.6176 22.1401L41.6511 47.7565L52.9987 43.7118L50.4146 18.7695Z" fill="#F6F3F1"/>
<path d="M50.4146 18.7698L66.0316 17.6462L67.4922 41.3526L52.9987 43.8244L50.4146 18.7698Z" fill="#F1EAE7"/>
<path d="M50.4146 18.7695C50.4146 18.7695 58.841 19.7807 66.481 19.219L67.6045 41.3524L53.1111 43.8242L50.4146 18.7695Z" fill="#F6F3F1"/>
<path d="M50.4146 18.7695C50.4146 18.7695 45.9205 22.2525 41.5388 23.4883L43.7858 46.633C43.7858 46.633 52.9987 44.0488 52.8864 43.7118C52.8864 43.3747 50.4146 18.7695 50.4146 18.7695Z" fill="#FFFBFA"/>
<path d="M50.4146 18.7695C50.4146 18.7695 56.7063 20.6795 64.4587 20.7919L65.3575 41.6895L52.9987 43.8242L50.4146 18.7695Z" fill="#FFFBFA"/>
<path d="M33.3371 18.5449L33 18.4326L50.527 17.3091L66.2563 14.5002L66.7057 14.9496L50.527 17.8708L33.3371 18.5449Z" fill="#F46763"/>
<path d="M37.6064 50.4531L37.157 49.8913L33 18.4326L33.3371 18.545L37.6064 50.4531Z" fill="#F46763"/>
<path d="M50.6393 18.7698L53.2234 43.8244" stroke="#ECDFD9" stroke-width="0.1154" stroke-miterlimit="10"/>
<path d="M53.3358 25.0614C54.5716 24.2749 55.1334 24.949 56.2569 24.8367C56.3693 24.8367 57.4928 24.3872 57.2681 24.3872C58.1669 24.1625 58.7287 24.612 59.5151 24.4996C60.0769 24.4996 60.8634 23.9378 61.6499 24.0502C62.324 24.1626 62.5487 24.4996 63.2228 24.2749C63.3351 24.2749 63.2228 24.0502 63.2228 24.1626C62.324 24.4996 61.4252 23.6008 60.5263 23.7132C60.1893 23.7132 59.1781 24.2749 59.0657 24.2749C58.7287 24.2749 58.2793 24.0502 57.8299 24.0502C56.931 24.1626 56.1446 24.4996 55.2458 24.4996C54.347 24.4996 53.8976 24.3872 53.2234 24.949C53.2234 24.949 53.2234 25.1737 53.3358 25.0614Z" fill="#9E9797"/>
<path d="M63.5599 26.8591C62.9981 26.8591 61.2005 26.522 61.0881 26.522C60.9758 26.522 60.8634 26.4097 60.7511 26.4097C60.6387 26.4097 60.5264 26.6343 60.414 26.6343C60.3017 26.7467 60.1893 26.8591 60.0769 26.9714C59.2905 27.4208 58.6164 27.4208 58.0546 26.8591C55.9199 26.9714 59.0658 26.522 57.1558 26.9714C56.4817 27.1961 55.9199 27.3085 55.2458 27.3085C54.684 27.3085 54.347 27.3085 53.7852 27.5332C53.6729 27.5332 53.7852 27.6455 53.7852 27.6455C54.7964 27.3085 55.5829 27.6455 56.594 27.5332C56.7064 27.5332 56.8187 27.4208 56.9311 27.3085C57.1558 27.1961 57.3805 27.0838 57.7176 27.3085C58.167 27.3085 58.6164 27.5332 58.9534 27.5332C59.9646 27.5332 60.3017 26.8591 61.5375 26.8591C62.2117 26.8591 62.8858 26.9714 63.5599 26.9714C63.6722 27.0838 63.6722 26.8591 63.5599 26.8591Z" fill="#9E9797"/>
<path d="M63.4475 29.5556C62.2116 30.3421 61.6499 29.6679 60.5263 29.7803C60.414 29.7803 59.2904 30.2297 59.5151 30.2297C58.6163 30.4544 58.0546 30.005 57.2681 30.1173C56.7063 30.1173 55.9199 30.6791 55.1334 30.5668C54.4593 30.4544 54.2346 30.1174 53.5605 30.3421C53.4481 30.3421 53.5605 30.5668 53.5605 30.4544C54.4593 30.1174 55.3581 31.0162 56.2569 30.9038C56.594 30.9038 57.6052 30.3421 57.7175 30.3421C58.0546 30.3421 58.504 30.5668 58.9534 30.5668C59.8522 30.4544 60.6387 30.1173 61.5375 30.1173C62.4363 30.1173 62.8857 30.2297 63.5598 29.6679C63.5598 29.5556 63.4475 29.4432 63.4475 29.5556Z" fill="#9E9797"/>
<path d="M63.7846 32.7014C63.2228 32.7014 61.4252 32.3643 61.3128 32.3643C61.2004 32.3643 61.0881 32.252 60.9758 32.252C60.8634 32.252 60.751 32.4767 60.6387 32.4767C60.5263 32.589 60.414 32.7014 60.3016 32.8137C59.5152 33.2632 58.8411 33.2632 58.2793 32.7014C56.1446 32.8138 59.2905 32.3643 57.3805 32.8137C56.7064 33.0384 56.1446 33.1508 55.4705 33.1508C54.9087 33.1508 54.5717 33.1508 54.0099 33.3755C53.8975 33.3755 54.0099 33.4879 54.0099 33.4879C55.0211 33.1508 55.8075 33.4879 56.8187 33.3755C56.9311 33.3755 57.0434 33.2632 57.1558 33.1508C57.3805 33.0385 57.6052 32.9261 57.9422 33.1508C58.3916 33.1508 58.8411 33.3755 59.1781 33.3755C60.1893 33.3755 60.5263 32.7014 61.7622 32.7014C62.4363 32.7014 63.1105 32.8137 63.7846 32.8137C63.8969 32.8137 63.8969 32.7014 63.7846 32.7014Z" fill="#9E9797"/>
<path d="M53.4481 36.9708C54.684 36.1844 55.2458 36.8585 56.3693 36.7461C56.4817 36.7461 57.6052 36.2967 57.3805 36.2967C58.2793 36.072 58.8411 36.5214 59.6275 36.4091C60.1893 36.4091 60.9758 35.8473 61.7622 35.9597C62.4363 36.072 62.6611 36.4091 63.3352 36.1843C63.4475 36.1843 63.3352 35.9597 63.3352 36.072C62.4364 36.4091 61.5375 35.5102 60.6387 35.6226C60.3016 35.6226 59.2905 36.1843 59.1781 36.1843C58.8411 36.1843 58.3917 35.9597 57.9422 35.9597C57.0434 36.072 56.257 36.4091 55.3581 36.4091C54.4593 36.4091 54.0099 36.2967 53.3358 36.8585C53.2234 36.9708 53.3358 37.0832 53.4481 36.9708Z" fill="#9E9797"/>
<path d="M63.6722 38.7685C63.1104 38.7685 61.3128 38.4314 61.2004 38.4314C61.0881 38.4314 60.9757 38.3191 60.8634 38.3191C60.751 38.3191 60.6387 38.5438 60.5264 38.5438C60.414 38.6561 60.3016 38.7685 60.1893 38.8809C59.4028 39.3303 58.7287 39.3303 58.1669 38.7685C56.0322 38.8808 59.1781 38.4314 57.2681 38.8809C56.594 39.1056 56.0322 39.2179 55.3581 39.2179C54.7964 39.2179 54.4593 39.2179 53.8975 39.4426C53.7852 39.4426 53.8975 39.5549 53.8975 39.5549C54.9087 39.2179 55.6952 39.555 56.7063 39.4426C56.8187 39.4426 56.9311 39.3302 57.0434 39.2179C57.2681 39.1055 57.4928 38.9932 57.8299 39.2179C58.2793 39.2179 58.7287 39.4426 59.0657 39.4426C60.0769 39.4426 60.414 38.7685 61.6499 38.7685C62.324 38.7685 62.9981 38.8809 63.6722 38.8809C63.6722 38.9932 63.6722 38.7685 63.6722 38.7685Z" fill="#9E9797"/>
<path d="M42.7746 27.9827C43.4487 27.1962 44.1229 27.6456 44.9093 27.4209C45.134 27.3085 45.2464 27.0839 45.4711 26.9715C46.0329 26.7468 46.5946 27.0838 47.0441 26.8591C47.1564 26.8591 47.1564 26.6344 47.2687 26.6344C47.2687 26.6344 48.0552 26.0727 48.1676 26.0727C48.2799 26.0727 48.5046 26.2974 48.617 26.2974C49.0664 26.4097 49.2911 26.6344 49.6282 26.185C49.7405 26.0727 49.6281 26.0727 49.5158 26.0727C48.954 26.5221 48.1676 25.6233 47.4935 25.9603C47.1564 26.0727 47.044 26.5221 46.707 26.6344C46.5946 26.6344 46.1452 26.5221 46.0329 26.5221C45.3587 26.5221 44.9094 27.1962 44.2352 27.3085C43.5611 27.3085 43.1117 27.1962 42.7746 27.9827C42.6623 28.095 42.5499 27.9827 42.7746 27.9827Z" fill="#9E9797"/>
<path d="M50.1899 28.769C49.6282 28.769 48.9541 28.5443 48.3923 28.6566C48.2799 28.6566 48.28 28.5443 48.1676 28.6566C47.9429 28.769 47.9429 28.769 47.8305 28.9937C47.7182 29.106 47.7182 29.4431 47.6059 29.4431C47.2688 29.4431 46.9317 29.5554 46.5947 29.5554C46.4823 29.4431 46.37 29.3307 46.2576 29.3307C45.9206 29.4431 46.1453 29.3307 45.6959 29.5554C45.4712 29.7801 45.2464 30.0048 45.0217 30.2295C44.9094 30.2295 44.6847 30.2295 44.5723 30.2295C44.46 30.2295 44.3476 30.2295 44.3476 30.2295C43.8982 30.2295 43.6735 30.3419 43.3365 30.5666C43.2241 30.5666 43.3365 30.7913 43.4488 30.6789C44.1229 30.2295 44.797 30.5666 45.4711 30.2295C45.8082 30.0048 45.9206 29.5554 46.4823 29.6678C46.707 29.6678 46.9317 30.1172 47.2688 30.1172C47.8305 30.1172 47.7182 29.6678 48.0553 29.4431C48.5047 28.9937 48.8417 29.3307 49.4035 29.2184C49.7405 29.2184 50.0776 29.106 50.4147 28.9937C50.3023 28.8813 50.3023 28.769 50.1899 28.769Z" fill="#9E9797"/>
<path d="M50.527 31.3532C49.8528 32.1396 49.1787 31.6902 48.3923 31.9149C48.1676 32.0273 48.0552 32.252 47.8305 32.3643C47.2687 32.589 46.707 32.252 46.2576 32.4767C46.1452 32.4767 46.1452 32.7014 46.0329 32.7014C46.0329 32.7014 45.2464 33.2632 45.1341 33.2632C45.0217 33.2632 44.797 33.0385 44.6847 33.0385C44.2353 32.9261 44.0106 32.7014 43.6735 33.1508C43.5611 33.2632 43.6735 33.2632 43.7858 33.2632C44.3476 32.8138 45.1341 33.7126 45.8082 33.3755C46.1452 33.2631 46.2576 32.8138 46.5946 32.7014C46.707 32.7014 47.1564 32.8137 47.2687 32.8137C47.9429 32.8137 48.3923 32.1396 49.0664 32.0273C49.7405 32.0273 50.0775 32.1396 50.527 31.3532C50.527 31.2408 50.6393 31.3532 50.527 31.3532Z" fill="#9E9797"/>
<path d="M51.2011 34.4992C50.6393 34.4992 49.9652 34.2745 49.4034 34.3868C49.2911 34.3868 49.2911 34.2745 49.1787 34.3868C48.954 34.4992 48.954 34.4992 48.8417 34.7239C48.7293 34.8362 48.7293 35.1733 48.617 35.1733C48.2799 35.1733 47.9429 35.2857 47.6058 35.2857C47.4935 35.1733 47.3811 35.0609 47.2687 35.0609C46.9317 35.1733 47.1564 35.0609 46.707 35.2857C46.4823 35.5104 46.2576 35.7351 46.0328 35.9598C45.9205 35.9598 45.6958 35.9598 45.5834 35.9598C45.4711 35.9598 45.3588 35.9598 45.3588 35.9598C44.9094 35.9598 44.6846 36.0721 44.3476 36.2968C44.2352 36.2968 44.3476 36.5215 44.4599 36.4092C45.134 35.9598 45.8082 36.2968 46.4823 35.9598C46.8193 35.7351 46.9317 35.2857 47.4935 35.398C47.7182 35.398 47.9428 35.8474 48.2799 35.8474C48.8417 35.8474 48.7293 35.398 49.0664 35.1733C49.5158 34.7239 49.8529 35.061 50.4146 34.9486C50.7517 34.9486 51.0887 34.8362 51.4258 34.7239C51.3134 34.6115 51.3134 34.3868 51.2011 34.4992Z" fill="#9E9797"/>
<path d="M44.5723 39.7798C45.2464 38.9933 45.9205 39.4427 46.707 39.218C46.9317 39.1057 47.044 38.881 47.2687 38.7686C47.8305 38.5439 48.3923 38.881 48.8417 38.6563C48.954 38.6563 48.954 38.4315 49.0664 38.4315C49.0664 38.4315 49.8528 37.8698 49.9652 37.8698C50.0775 37.8698 50.3023 38.0945 50.4146 38.0945C50.864 38.2068 51.0887 38.4315 51.4258 37.9821C51.5381 37.8698 51.4258 37.8698 51.3134 37.8698C50.7517 38.3192 49.9652 37.4204 49.2911 37.7574C48.954 37.8698 48.8417 38.3192 48.5046 38.4315C48.3923 38.4315 47.9429 38.3192 47.8305 38.3192C47.1564 38.3192 46.707 38.9933 46.0329 39.1057C45.3587 39.1057 44.9094 38.9933 44.5723 39.7798C44.4599 39.7798 44.3476 39.7798 44.5723 39.7798Z" fill="#9E9797"/>
<path d="M51.9876 40.4538C51.4258 40.4538 50.7517 40.2291 50.1899 40.3414C50.0776 40.3414 50.0775 40.2291 49.9652 40.3414C49.7405 40.4538 49.7405 40.4538 49.6282 40.6785C49.5158 40.7908 49.5158 41.1279 49.4034 41.1279C49.0664 41.1279 48.7293 41.2402 48.3923 41.2402C48.2799 41.1279 48.1676 41.0156 48.0552 41.0156C47.7182 41.1279 47.9429 41.0155 47.4935 41.2402C47.2688 41.4649 47.044 41.6897 46.8193 41.9144C46.707 41.9144 46.4823 41.9144 46.3699 41.9144C46.2576 41.9144 46.1452 41.9144 46.1452 41.9144C45.6958 41.9144 45.4711 42.0267 45.1341 42.2514C45.0217 42.2514 45.1341 42.4761 45.2464 42.3638C45.9205 41.9144 46.5946 42.2514 47.2687 41.9144C47.6058 41.6897 47.7181 41.2402 48.2799 41.3526C48.5046 41.3526 48.7293 41.802 49.0664 41.802C49.6282 41.802 49.5158 41.3526 49.8529 41.1279C50.3023 40.6785 50.6393 41.0155 51.2011 40.9032C51.5381 40.9032 51.8752 40.7908 52.2122 40.6785C52.0999 40.6785 52.0999 40.4538 51.9876 40.4538Z" fill="#9E9797"/>
<path d="M71.7616 60.4524C71.7616 60.4524 63.1104 73.8223 61.3128 88.6528L88.165 91.7987C88.165 91.7987 90.4121 67.1935 87.6033 62.5871L71.7616 60.4524Z" fill="#ABD4BE"/>
<path d="M53.7852 42.4762C53.7852 42.4762 52.774 40.6786 51.9876 40.3415C50.527 39.8921 53.3358 44.4986 53.3358 44.4986C53.3358 44.4986 51.5381 42.7009 51.0887 43.7121C50.6393 44.8356 52.9987 46.7456 54.4593 46.9703C57.6052 47.4197 58.504 44.3862 58.3916 41.6898C58.3916 40.7909 58.2793 40.1168 58.1669 39.8921C57.7175 39.1056 56.7063 42.7009 56.7063 42.7009C56.7063 42.7009 56.594 39.218 56.2569 38.7686C55.4705 37.645 55.1334 42.3638 55.1334 42.3638C55.1334 42.3638 54.5716 38.7686 53.8975 38.4315C52.6616 37.9821 53.7852 42.4762 53.7852 42.4762Z" fill="#F9CABC"/>
<path d="M58.3916 45.5095C58.3916 45.5095 70.7504 61.913 88.6144 61.6883L88.9515 68.7665C88.9515 68.7665 62.0993 68.5418 53.5605 47.0825L58.3916 45.5095Z" fill="#ABD4BE"/>
<g opacity="0.1">
<circle cx="62" cy="192" r="21" fill="url(#paint1_linear)"/>
<circle cx="62" cy="192" r="21" fill="url(#paint2_linear)"/>
</g>
<path d="M67.3976 200.097H56.6226L62.6976 193.072C63.7309 191.855 64.3809 191.047 64.6476 190.647C65.2642 189.763 65.5726 188.913 65.5726 188.097C65.5726 187.147 65.2642 186.372 64.6476 185.772C64.0309 185.155 63.2309 184.847 62.2476 184.847C61.0476 184.847 60.1226 185.338 59.4726 186.322C59.1226 186.855 58.9392 187.513 58.9226 188.297H57.0726C57.1392 186.88 57.5559 185.73 58.3226 184.847C59.3226 183.713 60.6392 183.147 62.2726 183.147C63.7559 183.147 64.9809 183.622 65.9476 184.572C66.9309 185.505 67.4226 186.688 67.4226 188.122C67.4226 189.238 66.9809 190.43 66.0976 191.697C65.6476 192.313 64.8892 193.238 63.8226 194.472L60.3476 198.397H67.3976V200.097Z" fill="url(#paint3_linear)"/>
<defs>
<linearGradient id="paint0_linear" x1="0" y1="0" x2="113.8" y2="100.106" gradientUnits="userSpaceOnUse">
<stop stop-color="#D85855"/>
<stop offset="1" stop-color="#6E2287"/>
</linearGradient>
<linearGradient id="paint1_linear" x1="41" y1="174.15" x2="83" y2="216.57" gradientUnits="userSpaceOnUse">
<stop stop-color="#A634FF"/>
<stop offset="1" stop-color="#FD5925"/>
</linearGradient>
<linearGradient id="paint2_linear" x1="41" y1="171" x2="80.48" y2="211.74" gradientUnits="userSpaceOnUse">
<stop stop-color="#6E2287"/>
<stop offset="1" stop-color="#D85855"/>
</linearGradient>
<linearGradient id="paint3_linear" x1="54.9771" y1="179.097" x2="76.0234" y2="192.128" gradientUnits="userSpaceOnUse">
<stop stop-color="#9C27BA"/>
<stop offset="1" stop-color="#FF7471"/>
</linearGradient>
</defs>
</svg>
