<svg width="127" height="196" viewBox="0 0 127 196" fill="none" xmlns="http://www.w3.org/2000/svg">
<path opacity="0.1" d="M40.7817 118.889C63.3047 118.889 81.5633 113.396 81.5633 106.621C81.5633 99.8457 63.3047 94.3533 40.7817 94.3533C18.2586 94.3533 0 99.8457 0 106.621C0 113.396 18.2586 118.889 40.7817 118.889Z" fill="url(#paint0_linear)"/>
<path opacity="0.1" d="M10.9428 66.5989C9.94401 77.6626 35.5691 95.6509 41.2555 94.0169C54.5709 96.6397 83.4639 99.7664 92.5123 91.2905C97.2708 92.2543 108.617 82.8553 109.926 79.0059C111.521 74.3194 117.722 65.4725 110.39 50.9656C108.198 46.6289 93.0941 23.0028 71.8249 20.9638C47.5696 18.6385 36.0491 27.3113 24.9366 38.3011C17.9282 46.0494 12.1912 52.7693 10.9428 66.5989Z" fill="url(#paint1_linear)"/>
<path d="M106.596 50.3389L49.8995 50.1731H49.2364L48.822 97.7517L52.1375 97.9175V96.2597L106.513 95.8452V97.7517L109.829 97.9175L110.409 50.3389H106.596ZM106.513 72.0559L52.3862 71.8901L52.6349 53.1571L106.596 52.7427L106.513 72.0559ZM52.1375 93.1927L52.3862 74.8742L106.513 74.4597L106.43 93.3585L52.1375 93.1927Z" fill="#B3B2DA"/>
<path d="M56.1991 54.235L60.1778 54.1521L60.2607 71.476L56.0333 71.3931L56.1991 54.235Z" fill="#F2564D"/>
<path d="M103.778 67.2487L103.861 71.2274L86.5367 71.3103L86.6196 67L103.778 67.2487Z" fill="#192749"/>
<path d="M61.3383 54.1521L65.4827 54.235L64.9025 71.476H61.7527L61.3383 54.1521Z" fill="#F9DEE5"/>
<path d="M66.3116 54.152L69.8759 54.0691L69.793 71.4759H66.6432L66.3116 54.152Z" fill="#ABD4BE"/>
<path d="M86.2051 66.917L86.1223 63.3528L103.529 63.4357V66.5855L86.2051 66.917Z" fill="#CECBBE"/>
<path d="M69.9588 54.7322L73.4401 53.7375L77.7504 70.647L74.6835 71.393L69.9588 54.7322Z" fill="#C7BBBA"/>
<path d="M73.6888 75.6201L77.6675 75.4543L77.7504 92.8611L73.4401 92.7783L73.6888 75.6201Z" fill="#C7BBBA"/>
<path d="M71.285 88.551L71.3679 92.5297L54.044 92.6126L54.1269 88.3853L71.285 88.551Z" fill="#ABD4BE"/>
<path d="M89.6865 75.4543L93.8309 75.6201L93.2507 92.8611H90.1009L89.6865 75.4543Z" fill="#CECBBE"/>
<path d="M83.304 92.8611L79.0766 92.6954L79.6568 75.4543H82.8067L83.304 92.8611Z" fill="#F9DEE5"/>
<path d="M94.6599 75.4545L98.2241 75.3716L98.1412 92.8613H94.9914L94.6599 75.4545Z" fill="#F9DEE5"/>
<path d="M88.2773 92.6955L84.7131 92.8613L84.796 75.3716H87.9458L88.2773 92.6955Z" fill="#FEC75D"/>
<path d="M98.3899 76.1175L101.788 75.1228L106.099 92.0323L103.032 92.8612L98.3899 76.1175Z" fill="#ABD4BE"/>
<path d="M41.7763 102.476L19.2304 104.465L17.3239 108.444L40.6159 108.776L41.7763 102.476Z" fill="#F9CABC"/>
<path d="M18.1529 107.45L20.0593 104.383L17.8213 103.719L14.7544 109.356C15.6662 109.936 16.8266 109.77 17.324 108.859L18.1529 107.45Z" fill="#141312"/>
<path d="M45.009 98.2488L50.4797 100.321C54.1269 101.647 56.4478 105.211 56.282 109.107L27.1878 108.859L22.8775 101.647L45.009 98.2488Z" fill="#192749"/>
<path d="M56.945 64.0984C56.945 64.0984 58.0226 63.1037 58.1055 62.4406C58.1884 61.363 55.453 64.0984 55.453 64.0984C55.453 64.0984 56.3648 62.5235 55.6188 62.3577C54.707 62.1919 53.7952 64.1813 53.961 65.2588C54.2097 67.4969 56.4477 67.5797 58.3541 67.0824C58.9344 66.9166 59.4317 66.7509 59.5146 66.668C60.0119 66.1706 57.2766 66.1706 57.2766 66.1706C57.2766 66.1706 59.6804 65.5075 59.929 65.176C60.5922 64.43 57.2766 65.0102 57.2766 65.0102C57.2766 65.0102 59.6804 64.0155 59.7633 63.4353C59.8461 62.6064 56.945 64.0984 56.945 64.0984Z" fill="#F9CABC"/>
<path d="M25.53 76.3662L39.2897 74.7084L53.9611 63.6841L56.0333 68.243L41.9421 82.1684L45.009 98.249L21.2197 104.217L25.53 76.3662Z" fill="#879DE4"/>
<path d="M34.3992 100.404C34.3992 100.404 35.4767 101.233 36.0569 101.15C37.0516 101.067 34.1505 99.0777 34.1505 99.0777C34.1505 99.0777 35.7254 99.575 35.7254 98.9948C35.7254 98.1659 33.8189 97.7515 32.8242 98.0001C30.8349 98.5804 31.1664 100.57 31.9125 102.145C32.1611 102.642 32.4098 103.056 32.4927 103.139C32.99 103.471 32.5756 101.067 32.5756 101.067C32.5756 101.067 33.5703 103.056 33.9018 103.222C34.6478 103.637 33.6531 100.818 33.6531 100.818C33.6531 100.818 34.9794 102.808 35.3938 102.725C36.2227 102.725 34.3992 100.404 34.3992 100.404Z" fill="#F9CABC"/>
<path d="M33.6531 98.0002C33.6531 98.0002 25.6129 87.8048 28.9284 76.7805C25.0326 75.0398 20.7224 78.2725 21.3855 82.417C22.2973 88.2192 24.784 95.5135 31.0007 100.238L33.6531 98.0002Z" fill="#879DE4"/>
<path d="M30.5705 73.2553C36.6565 71.2461 40.0777 65.036 38.212 59.3847C36.3463 53.7335 29.9001 50.781 23.8142 52.7902C17.7282 54.7994 14.3069 61.0095 16.1727 66.6608C18.0384 72.312 24.4845 75.2645 30.5705 73.2553Z" fill="#282426"/>
<path d="M32.7414 78.6039C33.8189 78.3553 34.482 77.2777 34.2334 76.1173L33.2387 72.0557L29.26 73.0503L30.2547 77.1119C30.5033 78.1895 31.6638 78.8526 32.7414 78.6039Z" fill="#EFB7A4"/>
<path d="M20.7223 69.3206C23.0432 74.1282 29.4257 75.0399 34.0675 73.5479C38.6264 72.0559 40.5329 65.6734 38.1291 60.8658C35.8082 56.0582 30.006 54.0689 25.1984 56.3898C20.3908 58.7107 18.3185 64.513 20.7223 69.3206Z" fill="#F9CABC"/>
<path d="M32.6584 64.7615L32.99 66.4193L34.1505 65.839C34.3991 65.6733 34.3991 65.3417 34.0676 65.2588L32.6584 64.7615Z" fill="#DA9D9B"/>
<path d="M37.1802 66.8922C37.9412 66.7295 38.4262 65.9806 38.2635 65.2196C38.1008 64.4586 37.3519 63.9735 36.5909 64.1363C35.8298 64.299 35.3448 65.0479 35.5075 65.8089C35.6703 66.5699 36.4191 67.055 37.1802 66.8922Z" fill="#EAA9A4"/>
<path d="M26.9008 69.6363C27.6619 69.4736 28.1469 68.7248 27.9843 67.9638C27.8216 67.2027 27.0728 66.7177 26.3118 66.8803C25.5508 67.043 25.0657 67.7917 25.2283 68.5528C25.391 69.3138 26.1398 69.7989 26.9008 69.6363Z" fill="#EAA9A4"/>
<path d="M26.276 64.7615C26.276 64.7615 29.3429 67.0824 29.0113 63.7668" stroke="#1E120D" stroke-width="0.287" stroke-miterlimit="10"/>
<path d="M34.2334 62.3576C34.1505 62.2747 36.5543 64.9272 36.3885 61.6116" stroke="#1E120D" stroke-width="0.287" stroke-miterlimit="10"/>
<path d="M31.4979 69.4033L33.9846 68.906C33.9846 68.906 33.4044 71.144 31.4979 69.4033Z" fill="#FCFCFC"/>
<path d="M20.3896 68.0848C21.0047 67.7795 21.2063 66.9337 20.84 66.1957C20.4736 65.4576 19.678 65.1068 19.0629 65.4121C18.4479 65.7174 18.2463 66.5632 18.6126 67.3012C18.979 68.0393 19.7746 68.3901 20.3896 68.0848Z" fill="#F9CABC"/>
<path d="M20.5566 67.1654C20.5566 67.1654 19.5619 65.3418 19.2304 66.2536C18.733 67.5798 19.7277 66.8338 19.7277 66.8338C19.7277 66.8338 19.9764 66.668 20.5566 67.1654Z" fill="#DA9D9B"/>
<path d="M18.3481 59.8781C21.3668 58.803 22.9423 55.4844 21.8672 52.4657C20.7921 49.4471 17.4735 47.8715 14.4548 48.9467C11.4362 50.0218 9.86063 53.3404 10.9357 56.359C12.0109 59.3777 15.3295 60.9532 18.3481 59.8781Z" fill="#282426"/>
<path d="M26.3588 52.9085C16.5779 55.1465 19.5619 65.3419 19.5619 65.3419C32.6584 59.6225 29.8402 55.2294 29.8402 55.2294C29.8402 55.2294 32.4097 60.8658 37.1344 59.2909C37.2173 59.2909 34.9793 50.9191 26.3588 52.9085Z" fill="#282426"/>
<g opacity="0.1">
<circle cx="55" cy="175" r="21" fill="url(#paint2_linear)"/>
<circle cx="55" cy="175" r="21" fill="url(#paint3_linear)"/>
</g>
<path d="M52.3726 170.547H50.5226C50.5726 169.663 50.8309 168.847 51.2976 168.097C52.1309 166.797 53.4226 166.147 55.1726 166.147C56.6559 166.147 57.8059 166.588 58.6226 167.472C59.4559 168.355 59.8726 169.413 59.8726 170.647C59.8726 172.397 59.1559 173.63 57.7226 174.347C57.9392 174.43 58.1476 174.547 58.3476 174.697C58.5642 174.83 58.8226 175.047 59.1226 175.347C59.4226 175.647 59.6642 176.063 59.8476 176.597C60.0309 177.113 60.1226 177.705 60.1226 178.372C60.1226 179.888 59.6309 181.105 58.6476 182.022C57.6809 182.938 56.4642 183.397 54.9976 183.397C54.0142 183.397 53.0976 183.172 52.2476 182.722C51.3976 182.255 50.7642 181.522 50.3476 180.522C50.1309 179.988 50.0059 179.405 49.9726 178.772H51.8226C51.9059 179.455 52.1059 180.013 52.4226 180.447C52.9892 181.28 53.8476 181.697 54.9976 181.697C55.9142 181.697 56.6892 181.372 57.3226 180.722C57.9559 180.055 58.2726 179.255 58.2726 178.322C58.2726 176.955 57.7226 176.022 56.6226 175.522C56.0726 175.255 55.4392 175.138 54.7226 175.172V173.522C55.4392 173.572 56.0726 173.455 56.6226 173.172C57.5559 172.688 58.0226 171.863 58.0226 170.697C58.0226 169.88 57.7892 169.205 57.3226 168.672C56.8559 168.122 56.1392 167.847 55.1726 167.847C54.2392 167.847 53.5226 168.163 53.0226 168.797C52.6392 169.297 52.4226 169.88 52.3726 170.547Z" fill="url(#paint4_linear)"/>
<defs>
<linearGradient id="paint0_linear" x1="0" y1="94.3533" x2="12.3992" y2="136.888" gradientUnits="userSpaceOnUse">
<stop stop-color="#D85855"/>
<stop offset="1" stop-color="#6E2287"/>
</linearGradient>
<linearGradient id="paint1_linear" x1="59.58" y1="0" x2="61.323" y2="120.195" gradientUnits="userSpaceOnUse">
<stop stop-color="#D85855"/>
<stop offset="1" stop-color="#6E2287"/>
</linearGradient>
<linearGradient id="paint2_linear" x1="34" y1="157.15" x2="76" y2="199.57" gradientUnits="userSpaceOnUse">
<stop stop-color="#A634FF"/>
<stop offset="1" stop-color="#FD5925"/>
</linearGradient>
<linearGradient id="paint3_linear" x1="34" y1="154" x2="73.48" y2="194.74" gradientUnits="userSpaceOnUse">
<stop stop-color="#6E2287"/>
<stop offset="1" stop-color="#D85855"/>
</linearGradient>
<linearGradient id="paint4_linear" x1="47.9771" y1="162.097" x2="69.0234" y2="175.128" gradientUnits="userSpaceOnUse">
<stop stop-color="#9C27BA"/>
<stop offset="1" stop-color="#FF7471"/>
</linearGradient>
</defs>
</svg>
