<svg width="147" height="219" viewBox="0 0 147 219" fill="none" xmlns="http://www.w3.org/2000/svg">
<path opacity="0.1" d="M12.7837 96.7567C16.9231 109.838 45.0418 115.485 58.1124 111.784C89.8835 112.565 88.4908 95.8089 108.859 103.566C123.092 108.987 135.209 74.0793 134.898 69.1214C134.519 63.0853 137.548 50.3422 121.98 36.842C117.326 32.8062 88.259 12.1563 62.3206 18.8118C32.7405 26.4017 23.3848 41.1938 15.6202 58.4645C11.1156 70.2919 7.60939 80.4053 12.7837 96.7567Z" fill="url(#paint0_linear)"/>
<path d="M69.8101 137.604C92.3326 137.604 110.591 132.111 110.591 125.336C110.591 118.561 92.3326 113.069 69.8101 113.069C47.2877 113.069 29.0297 118.561 29.0297 125.336C29.0297 132.111 47.2877 137.604 69.8101 137.604Z" fill="#E7DEDC"/>
<path d="M45.8558 121.689L40.1366 122.518L38.8932 118.871C38.3959 117.296 36.8211 116.385 35.2462 116.716L37.6499 127.574L46.8504 125.668L45.8558 121.689Z" fill="#F9CABC"/>
<path d="M93.9303 125.171L99.2351 127.574L100.893 125.254C101.805 123.844 103.628 123.43 105.037 124.259L100.313 133.211L91.941 128.818L93.9303 125.171Z" fill="#F9CABC"/>
<path d="M43.2864 120.612L59.9467 117.877L67.3236 98.5639L79.0936 97.3206L87.5481 119.534L97.9919 125.336L93.5159 131.056L72.0482 121.855L44.9441 126.745L43.2864 120.612Z" fill="#192749"/>
<path d="M67.3235 98.5637L48.8397 106.355L49.337 110.831L67.9866 105.278L67.3235 98.5637Z" fill="#192749"/>
<path d="M79.0935 97.3206L92.0239 111.328L91.5266 115.887L80.0053 105.775L79.0935 97.3206Z" fill="#192749"/>
<path d="M51.575 94.088L73.3743 104.615L93.1014 92.5132L91.6094 120.778L72.5454 127.243L49.8344 119.286L51.575 94.088Z" fill="#FEC75D"/>
<path d="M52.2382 94.5025L53.3157 93.3421L73.2086 103.289L91.1951 92.1816L92.6871 92.8447L73.3744 104.615L52.2382 94.5025Z" fill="white"/>
<path d="M52.9012 93.7564L73.2915 103.703L91.7753 92.4302" stroke="#AFA39E" stroke-width="0.066409" stroke-miterlimit="10"/>
<path d="M52.5697 94.005L73.3744 104.2L92.6871 92.4302" stroke="#AFA39E" stroke-width="0.066409" stroke-miterlimit="10"/>
<path d="M90.5319 106.687C90.5319 106.687 89.1229 106.024 88.8742 105.361C88.4598 104.283 92.1068 106.189 92.1068 106.189C92.1068 106.189 90.6977 104.863 91.3608 104.532C92.1897 104.117 93.7645 105.858 94.0132 107.018C94.5105 109.422 92.2726 110.251 90.2004 110.334C89.5373 110.334 89.04 110.334 88.8742 110.251C88.2111 109.919 90.9464 109.008 90.9464 109.008C90.9464 109.008 88.294 109.091 87.9624 108.842C87.0507 108.262 90.6148 107.764 90.6148 107.764C90.6148 107.764 87.8796 107.516 87.6309 107.018C87.0507 106.107 90.5319 106.687 90.5319 106.687Z" fill="#F9CABC"/>
<path d="M51.4093 108.842C51.4093 108.842 52.9841 108.925 53.4815 109.422C54.3103 110.251 50.166 109.837 50.166 109.837C50.166 109.837 51.9895 110.5 51.4922 111.08C50.8291 111.826 48.7569 110.748 48.0938 109.837C46.6847 107.847 48.5083 106.189 50.4146 105.361C51.0777 105.112 51.4922 104.863 51.6579 104.946C52.321 105.029 50.166 106.853 50.166 106.853C50.166 106.853 52.5697 105.775 52.9841 105.858C53.9788 106.024 50.912 107.847 50.912 107.847C50.912 107.847 53.5643 107.018 53.9788 107.433C54.8905 108.096 51.4093 108.842 51.4093 108.842Z" fill="#F9CABC"/>
<path d="M84.9785 88.866C85.4758 87.7055 85.7245 86.3793 85.7245 85.0531C85.7245 79.1682 80.5855 74.4436 74.1203 74.4436C67.8209 74.4436 62.6819 79.0853 62.599 84.8874C68.2353 85.7991 78.8449 87.7055 84.9785 88.866Z" fill="#893F0E"/>
<path d="M73.4572 100.802C74.7005 100.719 75.6123 99.7242 75.6123 98.4809L75.4465 93.9221L71.0535 94.0879L71.2192 98.6467C71.2192 99.89 72.2968 100.885 73.4572 100.802Z" fill="#EFB7A4"/>
<path d="M63.4911 86.13C64.0934 85.9111 64.3663 85.1407 64.1005 84.4093C63.8348 83.6778 63.131 83.2623 62.5287 83.4812C61.9263 83.7 61.6534 84.4704 61.9192 85.2018C62.185 85.9333 62.8887 86.3488 63.4911 86.13Z" fill="#F9CABC"/>
<path d="M63.7594 85.3017C63.7594 85.3017 63.0134 83.4782 62.599 84.3071C62.0188 85.5504 63.0134 84.8873 63.0134 84.8873C63.0134 84.8873 63.2621 84.8044 63.7594 85.3017Z" fill="#DA9D9B"/>
<path d="M84.9726 89.8467C85.6095 89.776 86.0564 89.0918 85.9706 88.3183C85.8849 87.5448 85.299 86.9751 84.662 87.0457C84.025 87.1163 83.5782 87.8006 83.6639 88.5741C83.7497 89.3475 84.3356 89.9173 84.9726 89.8467Z" fill="#F9CABC"/>
<path d="M84.3984 89.1977C84.3984 89.1977 84.2326 87.2913 84.9786 87.7886C86.0562 88.6174 84.8128 88.5346 84.8128 88.5346C84.8128 88.5346 84.5642 88.4517 84.3984 89.1977Z" fill="#DA9D9B"/>
<path d="M76.1777 97.0557C81.8391 95.7337 85.3568 90.0725 84.0348 84.4111C82.7127 78.7497 77.0515 75.2319 71.3901 76.554C65.7288 77.876 62.211 83.5372 63.533 89.1986C64.8551 94.86 70.5163 98.3778 76.1777 97.0557Z" fill="#F9CABC"/>
<path d="M63.5936 83.3955L72.4625 84.473L74.5347 80.9089L74.7005 84.7217L77.6016 85.3019L78.4304 81.6549L78.8449 85.6335L84.8127 86.8768C84.8127 86.8768 85.7245 77.3447 75.6951 75.9357C65.6658 74.5266 63.5936 83.3955 63.5936 83.3955Z" fill="#893F0E"/>
<path d="M66.0803 89.9436C66.9501 89.9436 67.6552 89.2386 67.6552 88.3688C67.6552 87.499 66.9501 86.7939 66.0803 86.7939C65.2106 86.7939 64.5055 87.499 64.5055 88.3688C64.5055 89.2386 65.2106 89.9436 66.0803 89.9436Z" fill="#EAA9A4"/>
<path d="M80.5027 92.2644C81.3725 92.2644 82.0776 91.5594 82.0776 90.6896C82.0776 89.8198 81.3725 89.1147 80.5027 89.1147C79.6329 89.1147 78.9279 89.8198 78.9279 90.6896C78.9279 91.5594 79.6329 92.2644 80.5027 92.2644Z" fill="#EAA9A4"/>
<path d="M72.877 87.8713L72.7112 89.1975L71.7165 88.866C71.4679 88.7831 71.4679 88.4515 71.7165 88.3686L72.877 87.8713Z" fill="#DA9D9B"/>
<path d="M79.9224 87.7056C79.9224 87.7056 76.6898 90.6895 76.6898 86.8767" stroke="#1E120D" stroke-width="0.3263" stroke-miterlimit="10"/>
<path d="M69.7273 85.7163C69.8102 85.6334 67.4065 88.866 67.1578 85.0532" stroke="#1E120D" stroke-width="0.3263" stroke-miterlimit="10"/>
<path d="M66.9092 90.4409C66.9092 90.4409 70.9707 96.243 78.8449 92.0987" stroke="#1E120D" stroke-width="0.2988" stroke-miterlimit="10"/>
<path d="M45.4421 136.706C45.6262 135.299 44.6348 134.009 43.2277 133.825C41.8207 133.641 40.5309 134.633 40.3468 136.04C40.1628 137.447 41.1542 138.737 42.5612 138.921C43.9682 139.105 45.2581 138.113 45.4421 136.706Z" fill="#D7B631"/>
<path d="M63.5135 132.091C63.6975 130.684 62.706 129.394 61.2988 129.21C59.8916 129.026 58.6017 130.018 58.4176 131.425C58.2336 132.832 59.2251 134.122 60.6323 134.306C62.0394 134.49 63.3294 133.499 63.5135 132.091Z" fill="#FF9E00"/>
<path d="M79.8596 135.647C80.0437 134.24 79.0522 132.95 77.645 132.766C76.2378 132.582 74.9479 133.573 74.7638 134.98C74.5797 136.388 75.5713 137.678 76.9785 137.862C78.3856 138.046 79.6756 137.054 79.8596 135.647Z" fill="#FF0013"/>
<path d="M98.4642 143.184C98.6483 141.777 97.6568 140.487 96.2496 140.303C94.8424 140.119 93.5525 141.11 93.3684 142.517C93.1844 143.924 94.1759 145.214 95.5831 145.398C96.9902 145.583 98.2802 144.591 98.4642 143.184Z" fill="#2BC6EB"/>
<path d="M88.0506 145.579C88.2346 144.172 87.2432 142.882 85.8362 142.698C84.4291 142.514 83.1393 143.505 82.9552 144.912C82.7712 146.319 83.7626 147.609 85.1696 147.793C86.5766 147.977 87.8665 146.986 88.0506 145.579Z" fill="#F59389"/>
<path d="M98.2405 118.788V112.157L106.944 112.24L106.778 119.037L98.2405 118.788Z" fill="#879DE4"/>
<path d="M98.4062 111.246L103.462 105.941L106.778 111.246H98.4062Z" fill="#F59389"/>
<path d="M108.187 112.655L108.27 119.12H114.984V112.655H108.187Z" fill="#C7C6B9"/>
<path d="M20.4923 107.681L20.6581 114.146H27.289V107.681H20.4923Z" fill="#C7C6B9"/>
<path d="M36.7383 107.433L36.8212 113.981H43.535V107.433H36.7383Z" fill="#FF0013"/>
<path d="M20.4923 100.056L20.6581 106.521H27.289V100.056H20.4923Z" fill="#F59389"/>
<path d="M30.8532 105.112L27.7035 110.831L33.4227 114.147L36.7382 108.51L30.8532 105.112Z" fill="#FEC75D"/>
<g opacity="0.1">
<circle cx="76" cy="197.166" r="21" fill="url(#paint1_linear)"/>
<circle cx="76" cy="197.166" r="21" fill="url(#paint2_linear)"/>
</g>
<path d="M80.2726 187.662V200.412H82.3226V202.112H80.2726V205.262H78.4226V202.112H69.8726L80.2726 187.662ZM73.1476 200.412H78.4226V193.037L73.1476 200.412Z" fill="url(#paint3_linear)"/>
<defs>
<linearGradient id="paint0_linear" x1="37.8867" y1="0" x2="90.0485" y2="139.785" gradientUnits="userSpaceOnUse">
<stop stop-color="#D85855"/>
<stop offset="1" stop-color="#6E2287"/>
</linearGradient>
<linearGradient id="paint1_linear" x1="55" y1="179.316" x2="97" y2="221.736" gradientUnits="userSpaceOnUse">
<stop stop-color="#A634FF"/>
<stop offset="1" stop-color="#FD5925"/>
</linearGradient>
<linearGradient id="paint2_linear" x1="55" y1="176.166" x2="94.48" y2="216.906" gradientUnits="userSpaceOnUse">
<stop stop-color="#6E2287"/>
<stop offset="1" stop-color="#D85855"/>
</linearGradient>
<linearGradient id="paint3_linear" x1="68.9771" y1="184.262" x2="90.0234" y2="197.293" gradientUnits="userSpaceOnUse">
<stop stop-color="#9C27BA"/>
<stop offset="1" stop-color="#FF7471"/>
</linearGradient>
</defs>
</svg>
