<svg width="164" height="218" viewBox="0 0 164 218" fill="none" xmlns="http://www.w3.org/2000/svg">
<g opacity="0.1">
<path d="M96.6487 108.235C111.701 111.718 133.205 127.743 145.838 138.542C153.991 156.308 168.739 195.394 162.503 209.607C154.708 227.374 24.881 217.62 10.3662 173.726C-4.14864 129.833 -13.7149 28.1912 55.2457 18.4866C112.482 10.4318 81.5963 104.751 96.6487 108.235Z" fill="#0400A4"/>
<path d="M96.6487 108.235C111.701 111.718 133.205 127.743 145.838 138.542C153.991 156.308 168.739 195.394 162.503 209.607C154.708 227.374 24.881 217.62 10.3662 173.726C-4.14864 129.833 -13.7149 28.1912 55.2457 18.4866C112.482 10.4318 81.5963 104.751 96.6487 108.235Z" fill="url(#paint0_linear)"/>
</g>
<path d="M85.6599 198.602V206.067L81.2578 206.258C79.3438 206.258 77.8127 208.364 77.6213 211.043L93.6986 210.852L93.89 197.646L85.6599 198.602Z" fill="#F9CABC"/>
<path d="M86.6169 206.067H94.0814L94.2728 211.617L77.6213 211.426C77.6213 208.555 79.7266 206.067 82.2148 206.067H86.6169Z" fill="#141312"/>
<path d="M120.494 199.559L120.111 207.024L124.513 207.407C126.427 207.598 127.959 209.704 127.959 212.383L111.881 211.618L112.073 198.411L120.494 199.559Z" fill="#F9CABC"/>
<path d="M119.346 206.833L111.881 206.641L111.499 212.192L128.15 212.575C128.15 209.704 126.236 207.216 123.748 207.024L119.346 206.833Z" fill="#141312"/>
<path d="M127.193 130.083C127.193 130.083 124.322 178.315 121.834 200.708L109.967 200.517L107.479 148.648L102.886 148.839L95.4212 199.56L83.746 199.368L85.4686 132.188L127.193 130.083Z" fill="#879DE4"/>
<path d="M91.4019 87.0186C91.4019 87.0186 86.617 107.307 80.8751 142.524L131.212 141.184C131.212 141.184 125.853 102.139 121.26 87.2099L91.4019 87.0186Z" fill="#F2564D"/>
<path d="M53.5053 51.419C53.5053 51.419 53.1226 48.5481 53.8881 47.5911C55.2279 45.8685 55.6107 53.333 55.6107 53.333C55.6107 53.333 56.1849 49.8878 57.5247 50.6534C59.0558 51.6104 57.7161 55.6297 56.3763 56.9695C53.3139 60.0319 49.8688 57.3523 47.7634 54.0986C46.9979 53.1416 46.6151 52.376 46.6151 51.9932C46.4237 50.6534 50.443 54.0986 50.443 54.0986C50.443 54.0986 47.7635 50.2706 47.9549 49.3137C47.9549 47.3997 51.9742 52.376 51.9742 52.376C51.9742 52.376 49.8688 47.9739 50.2516 47.0169C51.2086 45.4857 53.5053 51.419 53.5053 51.419Z" fill="#F9CABC"/>
<path d="M57.7161 55.8208C57.7161 55.8208 67.8601 81.2766 91.4019 87.0185L89.6794 105.393C89.6794 105.393 54.6537 89.5066 50.6344 58.309L57.7161 55.8208Z" fill="#F2564D"/>
<path d="M154.18 47.7823C154.18 47.7823 154.18 44.9113 153.223 44.1458C151.692 42.6146 152.457 50.0791 152.457 50.0791C152.457 50.0791 151.309 46.8253 150.161 47.7823C148.821 48.9307 150.543 52.7586 152.266 53.907C155.711 56.3951 158.774 53.1414 160.305 49.8877C160.879 48.7393 161.07 47.9737 161.07 47.5909C160.879 46.2511 157.625 50.2705 157.625 50.2705C157.625 50.2705 159.539 46.0597 159.539 45.2941C159.156 43.3802 155.903 48.9307 155.903 48.9307C155.903 48.9307 157.434 44.1458 156.668 43.3802C155.52 41.6576 154.18 47.7823 154.18 47.7823Z" fill="#F9CABC"/>
<path d="M150.735 52.7585C150.735 52.7585 142.505 79.5541 119.537 87.4014L122.982 105.201C122.982 105.201 156.86 85.8702 157.817 54.4811L150.735 52.7585Z" fill="#F2564D"/>
<path d="M109.01 80.7029L110.542 87.9759C111.307 91.2297 108.819 94.4834 105.374 94.4834C102.694 94.4834 100.398 92.5695 99.8235 89.8899L98.2923 80.1287L109.01 80.7029Z" fill="#F9CABC"/>
<path d="M110.159 85.6794L109.202 80.7031L98.675 80.3203L99.632 86.2536C101.355 86.8278 104.991 87.402 110.159 85.6794Z" fill="#DEB39A"/>
<path d="M115.327 60.4148C112.838 72.6642 101.737 80.7029 90.6364 78.4061C79.344 76.1093 70.9225 63.6685 73.4107 51.4192C75.8989 39.1698 88.3396 31.8967 99.4406 34.1934C110.542 36.4902 117.623 48.1654 115.327 60.4148Z" fill="#893F0E"/>
<path d="M128.15 53.5245C131.021 63.6685 125.662 80.7028 112.073 83.5738C98.2923 86.4447 83.1719 78.4061 79.9182 65.1997C76.6644 51.9933 84.5117 39.5525 98.2923 36.2988C112.073 33.045 124.514 40.5095 128.15 53.5245Z" fill="#F9CABC"/>
<path d="M97.1439 56.587C97.1439 56.587 104.8 62.7117 104.226 54.2903" stroke="#1E120D" stroke-width="0.3172" stroke-miterlimit="10"/>
<path d="M117.623 51.2279C117.432 51.0365 123.365 57.9268 123.174 49.5054" stroke="#1E120D" stroke-width="0.3172" stroke-miterlimit="10"/>
<path d="M124.322 43.7634L114.752 45.8688C114.752 45.8688 110.159 40.3182 107.479 39.5527L108.819 47.7827L98.2923 49.8881L93.6987 42.615L94.6557 52.1849L77.6214 58.8837C77.6214 58.8837 70.3483 42.615 88.531 35.5333C88.531 35.5333 99.0579 28.0689 110.35 32.2796C119.729 36.2989 124.322 43.7634 124.322 43.7634Z" fill="#893F0E"/>
<path d="M97.8179 68.0018C99.4864 67.7252 100.615 66.1485 100.338 64.4801C100.062 62.8116 98.485 61.6832 96.8165 61.9598C95.148 62.2363 94.0196 63.813 94.2962 65.4814C94.5727 67.1499 96.1494 68.2783 97.8179 68.0018Z" fill="#EAA9A4"/>
<path d="M125.177 59.7877C126.845 59.5111 127.973 57.9344 127.697 56.266C127.42 54.5975 125.844 53.4691 124.175 53.7456C122.507 54.0222 121.378 55.5989 121.655 57.2673C121.931 58.9358 123.508 60.0642 125.177 59.7877Z" fill="#EAA9A4"/>
<path d="M114.752 56.2043L115.327 59.8409L118.006 58.6925C118.58 58.5011 118.58 57.5441 118.006 57.3527L114.752 56.2043Z" fill="#DA9D9B"/>
<path d="M103.46 65.1998C103.46 65.1998 116.666 77.2578 123.557 62.3289" stroke="#282426" stroke-width="0.1947" stroke-miterlimit="10"/>
<path d="M79.1262 65.5554C80.7101 64.9622 81.423 62.9567 80.7187 61.0758C80.0143 59.1949 78.1594 58.151 76.5755 58.7442C74.9916 59.3373 74.2786 61.3429 74.9829 63.2237C75.6873 65.1046 77.5423 66.1485 79.1262 65.5554Z" fill="#F9CABC"/>
<path d="M79.7267 63.286C79.7267 63.286 77.8127 58.8839 76.8558 60.7978C75.3246 63.8602 78.0041 62.329 78.0041 62.329C78.0041 62.329 78.3869 61.9462 79.7267 63.286Z" fill="#DA9D9B"/>
<path d="M65.1807 34.193C65.1807 34.193 71.3054 38.021 67.0946 41.6575L121.451 29.0253C121.451 29.0253 121.834 24.6232 119.92 24.049C118.006 23.2834 65.1807 34.193 65.1807 34.193Z" fill="#C7BBBA"/>
<path d="M76.8557 24.6235L78.7697 31.5137L119.729 19.8385C119.729 19.8385 117.049 14.288 117.623 13.3311L76.8557 24.6235Z" fill="#F2564D"/>
<path d="M61.3527 20.987C61.3527 20.987 66.5204 24.0493 64.2236 26.7289L115.709 10.2688L114.178 4.90967L61.3527 20.987Z" fill="#CECBBE"/>
<path d="M105.948 0.890137C105.948 0.890137 106.14 3.76109 107.671 5.48366L67.0946 17.5416C67.0946 17.5416 63.8409 13.5223 65.372 11.417L105.948 0.890137Z" fill="#A0C7C6"/>
<defs>
<linearGradient id="paint0_linear" x1="164" y1="17.9988" x2="-21.499" y2="174.963" gradientUnits="userSpaceOnUse">
<stop stop-color="#6E2287"/>
<stop offset="0.671875" stop-color="#D85855"/>
</linearGradient>
</defs>
</svg>
