<svg width="377" height="266" viewBox="0 0 377 266" fill="none" xmlns="http://www.w3.org/2000/svg">
<rect width="376.761" height="265.601" fill="white"/>
<path d="M214.693 127.252L213.645 126.538V117.345L214.693 116.868V127.252Z" fill="#939698"/>
<path d="M213.978 117.154V126.776L214.693 127.252V116.868L213.978 117.154Z" fill="#575A5B"/>
<path d="M218.647 127.252L219.409 126.871V122.155L218.647 121.87V127.252Z" fill="#939698"/>
<path d="M219.171 122.06V127.014L218.647 127.252V121.87L219.171 122.06Z" fill="#575A5B"/>
<path d="M218.837 121.012L219.409 120.822V118.678L218.837 118.583V121.012Z" fill="#939698"/>
<path d="M219.218 118.678V120.869L218.837 121.012V118.583L219.218 118.678Z" fill="#575A5B"/>
<path d="M215.884 131.253H215.36C215.36 131.253 214.884 131.968 214.884 133.063C214.884 133.063 215.169 133.206 215.598 133.159C216.027 133.159 216.313 133.063 216.313 133.063C216.36 131.968 215.884 131.253 215.884 131.253Z" fill="#626467"/>
<path d="M216.122 131.73C215.979 131.396 215.884 131.206 215.884 131.206H215.36C215.36 131.206 215.217 131.396 215.122 131.73C215.312 131.777 215.693 131.825 216.122 131.73Z" fill="url(#paint0_linear)"/>
<path d="M214.884 132.825C214.884 132.873 214.884 132.873 214.884 132.921C215.026 132.968 215.217 133.016 215.55 133.016C215.789 133.016 216.027 132.968 216.313 132.921C216.313 132.873 216.313 132.873 216.313 132.825C215.598 133.016 215.074 132.873 214.884 132.825Z" fill="#3A3C3F"/>
<path d="M214.931 132.54C214.931 132.587 214.931 132.587 214.931 132.635C215.074 132.682 215.265 132.73 215.598 132.73C215.836 132.73 216.074 132.682 216.36 132.635C216.36 132.587 216.36 132.587 216.36 132.54C215.598 132.73 215.122 132.635 214.931 132.54Z" fill="#3A3C3F"/>
<path d="M216.217 132.111C216.217 132.063 216.217 132.063 216.217 132.016C215.646 132.111 215.265 132.063 215.026 132.016C215.026 132.063 215.026 132.063 215.026 132.111C215.169 132.159 215.36 132.159 215.598 132.159C215.741 132.159 215.979 132.159 216.217 132.111Z" fill="#3A3C3F"/>
<path d="M214.931 132.301C214.931 132.349 214.931 132.349 214.931 132.397C215.074 132.444 215.265 132.492 215.551 132.492C215.741 132.492 215.979 132.444 216.265 132.397C216.265 132.349 216.265 132.349 216.265 132.301C215.646 132.444 215.169 132.349 214.931 132.301Z" fill="#3A3C3F"/>
<path d="M216.17 131.825C216.17 131.777 216.17 131.777 216.122 131.73C215.693 131.825 215.312 131.777 215.122 131.73C215.122 131.777 215.122 131.777 215.074 131.825C215.217 131.873 215.36 131.873 215.55 131.873C215.741 131.873 215.932 131.873 216.17 131.825Z" fill="#3A3C3F"/>
<path opacity="0.6" d="M215.884 131.253H215.36C215.36 131.253 214.884 131.968 214.884 133.063C214.884 133.063 214.884 133.063 214.931 133.063C214.931 132.825 214.979 132.539 215.026 132.301C215.074 132.158 215.122 131.73 215.36 131.777C215.646 131.777 215.55 132.92 215.598 133.159C216.027 133.159 216.313 133.063 216.313 133.063C216.36 131.968 215.884 131.253 215.884 131.253Z" fill="#B3B5B8"/>
<path opacity="0.6" d="M215.884 131.253H215.598C215.884 131.825 215.979 132.492 216.027 133.159C216.217 133.111 216.36 133.063 216.36 133.063C216.36 131.968 215.884 131.253 215.884 131.253Z" fill="#B3B5B8"/>
<path d="M217.599 131.253H217.075C217.075 131.253 216.598 131.968 216.598 133.063C216.598 133.063 216.884 133.206 217.313 133.159C217.741 133.159 218.027 133.063 218.027 133.063C218.075 131.968 217.599 131.253 217.599 131.253Z" fill="#626467"/>
<path d="M217.837 131.73C217.694 131.396 217.599 131.206 217.599 131.206H217.075C217.075 131.206 216.932 131.396 216.836 131.73C217.027 131.777 217.36 131.825 217.837 131.73Z" fill="url(#paint1_linear)"/>
<path d="M216.598 132.825C216.598 132.873 216.598 132.873 216.598 132.921C216.741 132.968 216.932 133.016 217.265 133.016C217.503 133.016 217.741 132.968 218.027 132.921C218.027 132.873 218.027 132.873 218.027 132.825C217.313 133.016 216.789 132.873 216.598 132.825Z" fill="#3A3C3F"/>
<path d="M216.598 132.54C216.598 132.587 216.598 132.587 216.598 132.635C216.741 132.682 216.932 132.73 217.265 132.73C217.503 132.73 217.741 132.682 218.027 132.635C218.027 132.587 218.027 132.587 218.027 132.54C217.313 132.73 216.789 132.635 216.598 132.54Z" fill="#3A3C3F"/>
<path d="M217.932 132.111C217.932 132.063 217.932 132.063 217.932 132.016C217.36 132.111 216.979 132.063 216.741 132.016C216.741 132.063 216.741 132.063 216.741 132.111C216.884 132.159 217.075 132.159 217.313 132.159C217.456 132.159 217.694 132.159 217.932 132.111Z" fill="#3A3C3F"/>
<path d="M216.646 132.301C216.646 132.349 216.646 132.349 216.646 132.397C216.789 132.444 216.979 132.492 217.265 132.492C217.456 132.492 217.694 132.444 217.98 132.397C217.98 132.349 217.98 132.349 217.98 132.301C217.313 132.444 216.884 132.349 216.646 132.301Z" fill="#3A3C3F"/>
<path d="M217.837 131.825C217.837 131.777 217.837 131.777 217.789 131.73C217.36 131.825 216.979 131.777 216.789 131.73C216.789 131.777 216.789 131.777 216.741 131.825C216.884 131.873 217.027 131.873 217.218 131.873C217.408 131.873 217.646 131.873 217.837 131.825Z" fill="#3A3C3F"/>
<path opacity="0.6" d="M217.599 131.253H217.075C217.075 131.253 216.598 131.968 216.598 133.063C216.598 133.063 216.598 133.063 216.646 133.063C216.646 132.825 216.694 132.539 216.741 132.301C216.789 132.158 216.836 131.73 217.075 131.777C217.36 131.777 217.265 132.92 217.313 133.159C217.741 133.159 218.027 133.063 218.027 133.063C218.075 131.968 217.599 131.253 217.599 131.253Z" fill="#B3B5B8"/>
<path opacity="0.6" d="M217.599 131.253H217.313C217.599 131.825 217.694 132.492 217.741 133.159C217.932 133.111 218.075 133.063 218.075 133.063C218.075 131.968 217.599 131.253 217.599 131.253Z" fill="#B3B5B8"/>
<path d="M216.741 129.062V129.015H216.598H216.455V129.062L214.169 129.3L214.836 131.968H216.455H216.741H218.313L219.028 129.3L216.741 129.062Z" fill="#9D9FA1"/>
<path opacity="0.5" d="M217.503 129.158C217.36 129.92 217.218 130.682 217.075 131.444C217.027 131.635 217.027 131.777 217.027 131.968H218.361L219.028 129.348L217.503 129.158Z" fill="#9D9FA1"/>
<path opacity="0.5" d="M214.407 129.301L214.169 129.348L214.836 131.968H215.074C214.836 131.063 214.598 130.206 214.407 129.301Z" fill="#9D9FA1"/>
<path d="M219.028 103.388H214.169V129.348H219.028V103.388Z" fill="#C2C4C6"/>
<path d="M219.028 128.348H214.169V129.348H219.028V128.348Z" fill="#3E4042"/>
<path d="M219.028 108.723H214.169V109.151H219.028V108.723Z" fill="#3E4042"/>
<path d="M219.028 109.58H214.169V110.009H219.028V109.58Z" fill="#3E4042"/>
<path d="M216.884 97.5289C216.741 97.3384 216.646 97.3384 216.551 97.3384C216.503 97.3384 216.36 97.3384 216.217 97.5289C216.074 97.7671 214.217 101.911 214.121 103.388H216.36H216.694H218.932C218.885 101.911 217.075 97.8147 216.884 97.5289Z" fill="#9A9A9A"/>
<path opacity="0.4" d="M216.408 97.6718C216.408 97.6718 214.979 100.958 214.502 102.864C214.502 102.864 214.359 103.293 214.74 103.245H216.551C216.551 103.245 217.17 103.34 217.122 102.769C217.122 102.245 216.408 97.6718 216.408 97.6718Z" fill="white"/>
<path opacity="0.4" d="M216.932 103.578H214.836C214.836 103.578 214.502 103.483 214.502 104.483V127.062C214.502 127.062 214.502 127.872 214.884 128.157L216.694 128.3C216.694 128.3 217.218 128.3 217.218 127.3C217.218 126.633 217.218 104.293 217.218 104.293C217.218 104.293 217.218 103.578 216.932 103.578Z" fill="white"/>
<path d="M215.026 131.873C215.079 131.873 215.122 131.83 215.122 131.777C215.122 131.725 215.079 131.682 215.026 131.682C214.974 131.682 214.931 131.725 214.931 131.777C214.931 131.83 214.974 131.873 215.026 131.873Z" fill="#C2C4C6"/>
<path d="M215.646 131.873C215.698 131.873 215.741 131.83 215.741 131.777C215.741 131.725 215.698 131.682 215.646 131.682C215.593 131.682 215.55 131.725 215.55 131.777C215.55 131.83 215.593 131.873 215.646 131.873Z" fill="#C2C4C6"/>
<path d="M216.265 131.873C216.317 131.873 216.36 131.83 216.36 131.777C216.36 131.725 216.317 131.682 216.265 131.682C216.212 131.682 216.17 131.725 216.17 131.777C216.17 131.83 216.212 131.873 216.265 131.873Z" fill="#C2C4C6"/>
<path d="M216.884 131.873C216.937 131.873 216.979 131.83 216.979 131.777C216.979 131.725 216.937 131.682 216.884 131.682C216.831 131.682 216.789 131.725 216.789 131.777C216.789 131.83 216.831 131.873 216.884 131.873Z" fill="#C2C4C6"/>
<path d="M217.503 131.873C217.556 131.873 217.598 131.83 217.598 131.777C217.598 131.725 217.556 131.682 217.503 131.682C217.451 131.682 217.408 131.725 217.408 131.777C217.408 131.83 217.451 131.873 217.503 131.873Z" fill="#C2C4C6"/>
<path d="M218.17 131.873C218.223 131.873 218.265 131.83 218.265 131.777C218.265 131.725 218.223 131.682 218.17 131.682C218.118 131.682 218.075 131.725 218.075 131.777C218.075 131.83 218.118 131.873 218.17 131.873Z" fill="#C2C4C6"/>
<path d="M218.646 118.25H217.551V118.916H218.646V118.25Z" fill="#3A3C3F"/>
<path d="M218.646 119.059H217.551V119.393H218.646V119.059Z" fill="#3A3C3F"/>
<path d="M218.646 122.584H217.551V122.965H218.646V122.584Z" fill="#3A3C3F"/>
<path d="M218.646 123.108H217.551V124.775H218.646V123.108Z" fill="#3A3C3F"/>
<path d="M218.646 124.918H217.551V125.966H218.646V124.918Z" fill="#3A3C3F"/>
<path d="M218.646 127.443H217.551V127.871H218.646V127.443Z" fill="#3A3C3F"/>
<path d="M214.36 105.15C214.386 105.15 214.407 105.129 214.407 105.103C214.407 105.076 214.386 105.055 214.36 105.055C214.333 105.055 214.312 105.076 214.312 105.103C214.312 105.129 214.333 105.15 214.36 105.15Z" fill="#61626B"/>
<path d="M215.122 105.15C215.148 105.15 215.169 105.129 215.169 105.103C215.169 105.076 215.148 105.055 215.122 105.055C215.095 105.055 215.074 105.076 215.074 105.103C215.074 105.129 215.095 105.15 215.122 105.15Z" fill="#61626B"/>
<path d="M215.836 105.15C215.863 105.15 215.884 105.129 215.884 105.103C215.884 105.076 215.863 105.055 215.836 105.055C215.81 105.055 215.789 105.076 215.789 105.103C215.789 105.129 215.81 105.15 215.836 105.15Z" fill="#61626B"/>
<path d="M216.598 105.15C216.625 105.15 216.646 105.129 216.646 105.103C216.646 105.076 216.625 105.055 216.598 105.055C216.572 105.055 216.551 105.076 216.551 105.103C216.551 105.129 216.572 105.15 216.598 105.15Z" fill="#61626B"/>
<path d="M217.313 105.15C217.339 105.15 217.36 105.129 217.36 105.103C217.36 105.076 217.339 105.055 217.313 105.055C217.286 105.055 217.265 105.076 217.265 105.103C217.265 105.129 217.286 105.15 217.313 105.15Z" fill="#61626B"/>
<path d="M218.075 105.15C218.101 105.15 218.123 105.129 218.123 105.103C218.123 105.076 218.101 105.055 218.075 105.055C218.049 105.055 218.027 105.076 218.027 105.103C218.027 105.129 218.049 105.15 218.075 105.15Z" fill="#61626B"/>
<path d="M218.837 105.15C218.863 105.15 218.885 105.129 218.885 105.103C218.885 105.076 218.863 105.055 218.837 105.055C218.811 105.055 218.789 105.076 218.789 105.103C218.789 105.129 218.811 105.15 218.837 105.15Z" fill="#61626B"/>
<path d="M214.36 118.011C214.386 118.011 214.407 117.99 214.407 117.964C214.407 117.937 214.386 117.916 214.36 117.916C214.333 117.916 214.312 117.937 214.312 117.964C214.312 117.99 214.333 118.011 214.36 118.011Z" fill="#61626B"/>
<path d="M215.122 118.011C215.148 118.011 215.169 117.99 215.169 117.964C215.169 117.937 215.148 117.916 215.122 117.916C215.095 117.916 215.074 117.937 215.074 117.964C215.074 117.99 215.095 118.011 215.122 118.011Z" fill="#61626B"/>
<path d="M215.836 118.011C215.863 118.011 215.884 117.99 215.884 117.964C215.884 117.937 215.863 117.916 215.836 117.916C215.81 117.916 215.789 117.937 215.789 117.964C215.789 117.99 215.81 118.011 215.836 118.011Z" fill="#61626B"/>
<path d="M216.598 118.011C216.625 118.011 216.646 117.99 216.646 117.964C216.646 117.937 216.625 117.916 216.598 117.916C216.572 117.916 216.551 117.937 216.551 117.964C216.551 117.99 216.572 118.011 216.598 118.011Z" fill="#61626B"/>
<path d="M217.313 118.011C217.339 118.011 217.36 117.99 217.36 117.964C217.36 117.937 217.339 117.916 217.313 117.916C217.286 117.916 217.265 117.937 217.265 117.964C217.265 117.99 217.286 118.011 217.313 118.011Z" fill="#61626B"/>
<path d="M218.075 118.011C218.101 118.011 218.123 117.99 218.123 117.964C218.123 117.937 218.101 117.916 218.075 117.916C218.049 117.916 218.027 117.937 218.027 117.964C218.027 117.99 218.049 118.011 218.075 118.011Z" fill="#61626B"/>
<path d="M218.837 118.011C218.863 118.011 218.885 117.99 218.885 117.964C218.885 117.937 218.863 117.916 218.837 117.916C218.811 117.916 218.789 117.937 218.789 117.964C218.789 117.99 218.811 118.011 218.837 118.011Z" fill="#61626B"/>
<path d="M195.878 127.252L194.782 126.538V117.345L195.878 116.868V127.252Z" fill="#939698"/>
<path d="M195.163 117.154V126.776L195.878 127.252V116.868L195.163 117.154Z" fill="#575A5B"/>
<path d="M199.831 127.252L200.546 126.871V122.155L199.831 121.87V127.252Z" fill="#939698"/>
<path d="M200.308 122.06V127.014L199.831 127.252V121.87L200.308 122.06Z" fill="#575A5B"/>
<path d="M200.022 121.012L200.546 120.822V118.678L200.022 118.583V121.012Z" fill="#939698"/>
<path d="M200.355 118.678V120.869L200.022 121.012V118.583L200.355 118.678Z" fill="#575A5B"/>
<path d="M197.021 131.253H196.497C196.497 131.253 196.021 131.968 196.021 133.063C196.021 133.063 196.306 133.206 196.735 133.159C197.164 133.159 197.45 133.063 197.45 133.063C197.497 131.968 197.021 131.253 197.021 131.253Z" fill="#626467"/>
<path d="M197.259 131.73C197.116 131.396 197.021 131.206 197.021 131.206H196.497C196.497 131.206 196.354 131.396 196.259 131.73C196.497 131.777 196.83 131.825 197.259 131.73Z" fill="url(#paint2_linear)"/>
<path d="M196.068 132.825C196.068 132.873 196.068 132.873 196.068 132.921C196.211 132.968 196.402 133.016 196.735 133.016C196.973 133.016 197.211 132.968 197.497 132.921C197.497 132.873 197.497 132.873 197.497 132.825C196.735 133.016 196.211 132.873 196.068 132.825Z" fill="#3A3C3F"/>
<path d="M196.068 132.54C196.068 132.587 196.068 132.587 196.068 132.635C196.211 132.682 196.402 132.73 196.735 132.73C196.973 132.73 197.211 132.682 197.497 132.635C197.497 132.587 197.497 132.587 197.497 132.54C196.783 132.73 196.259 132.635 196.068 132.54Z" fill="#3A3C3F"/>
<path d="M197.402 132.111C197.402 132.063 197.402 132.063 197.402 132.016C196.83 132.111 196.449 132.063 196.211 132.016C196.211 132.063 196.211 132.063 196.211 132.111C196.354 132.159 196.544 132.159 196.783 132.159C196.926 132.159 197.116 132.159 197.402 132.111Z" fill="#3A3C3F"/>
<path d="M196.116 132.301C196.116 132.349 196.116 132.349 196.116 132.397C196.259 132.444 196.449 132.492 196.735 132.492C196.926 132.492 197.164 132.444 197.45 132.397C197.45 132.349 197.45 132.349 197.45 132.301C196.783 132.444 196.306 132.349 196.116 132.301Z" fill="#3A3C3F"/>
<path d="M197.307 131.825C197.307 131.777 197.307 131.777 197.259 131.73C196.83 131.825 196.449 131.777 196.259 131.73C196.259 131.777 196.259 131.777 196.211 131.825C196.354 131.873 196.497 131.873 196.687 131.873C196.878 131.873 197.068 131.873 197.307 131.825Z" fill="#3A3C3F"/>
<path opacity="0.6" d="M197.021 131.253H196.497C196.497 131.253 196.021 131.968 196.021 133.063C196.021 133.063 196.021 133.063 196.068 133.063C196.068 132.825 196.116 132.539 196.163 132.301C196.211 132.158 196.259 131.73 196.497 131.777C196.783 131.777 196.687 132.92 196.735 133.159C197.164 133.159 197.45 133.063 197.45 133.063C197.497 131.968 197.021 131.253 197.021 131.253Z" fill="#B3B5B8"/>
<path opacity="0.6" d="M197.021 131.253H196.783C197.069 131.825 197.164 132.492 197.211 133.159C197.402 133.111 197.545 133.063 197.545 133.063C197.497 131.968 197.021 131.253 197.021 131.253Z" fill="#B3B5B8"/>
<path d="M198.736 131.253H198.212C198.212 131.253 197.735 131.968 197.735 133.063C197.735 133.063 198.021 133.206 198.45 133.159C198.879 133.159 199.164 133.063 199.164 133.063C199.212 131.968 198.736 131.253 198.736 131.253Z" fill="#626467"/>
<path d="M198.974 131.73C198.879 131.396 198.736 131.206 198.736 131.206H198.212C198.212 131.206 198.069 131.396 197.974 131.73C198.164 131.777 198.545 131.825 198.974 131.73Z" fill="url(#paint3_linear)"/>
<path d="M197.735 132.825C197.735 132.873 197.735 132.873 197.735 132.921C197.878 132.968 198.069 133.016 198.402 133.016C198.64 133.016 198.879 132.968 199.164 132.921C199.164 132.873 199.164 132.873 199.164 132.825C198.45 133.016 197.926 132.873 197.735 132.825Z" fill="#3A3C3F"/>
<path d="M197.783 132.54C197.783 132.587 197.783 132.587 197.783 132.635C197.926 132.682 198.117 132.73 198.45 132.73C198.688 132.73 198.926 132.682 199.212 132.635C199.212 132.587 199.212 132.587 199.212 132.54C198.45 132.73 197.974 132.635 197.783 132.54Z" fill="#3A3C3F"/>
<path d="M199.069 132.111C199.069 132.063 199.069 132.063 199.069 132.016C198.498 132.111 198.116 132.063 197.878 132.016C197.878 132.063 197.878 132.063 197.878 132.111C198.021 132.159 198.212 132.159 198.45 132.159C198.593 132.159 198.831 132.159 199.069 132.111Z" fill="#3A3C3F"/>
<path d="M197.831 132.301C197.831 132.349 197.831 132.349 197.831 132.397C197.973 132.444 198.164 132.492 198.45 132.492C198.64 132.492 198.879 132.444 199.164 132.397C199.164 132.349 199.164 132.349 199.164 132.301C198.497 132.444 198.021 132.349 197.831 132.301Z" fill="#3A3C3F"/>
<path d="M199.021 131.825C199.021 131.777 199.021 131.777 198.974 131.73C198.545 131.825 198.164 131.777 197.974 131.73C197.974 131.777 197.974 131.777 197.926 131.825C198.069 131.873 198.212 131.873 198.402 131.873C198.593 131.873 198.783 131.873 199.021 131.825Z" fill="#3A3C3F"/>
<path opacity="0.6" d="M198.736 131.253H198.212C198.212 131.253 197.735 131.968 197.735 133.063C197.735 133.063 197.735 133.063 197.783 133.063C197.783 132.825 197.831 132.539 197.878 132.301C197.926 132.158 197.974 131.73 198.212 131.777C198.497 131.777 198.402 132.92 198.45 133.159C198.879 133.159 199.164 133.063 199.164 133.063C199.212 131.968 198.736 131.253 198.736 131.253Z" fill="#B3B5B8"/>
<path opacity="0.6" d="M198.736 131.253H198.45C198.736 131.825 198.831 132.492 198.879 133.159C199.069 133.111 199.212 133.063 199.212 133.063C199.212 131.968 198.736 131.253 198.736 131.253Z" fill="#B3B5B8"/>
<path d="M197.878 129.062V129.015H197.735H197.592V129.062L195.306 129.3L196.021 131.968H197.592H197.878H199.498L200.165 129.3L197.878 129.062Z" fill="#9D9FA1"/>
<path opacity="0.5" d="M198.64 129.158C198.497 129.92 198.355 130.682 198.212 131.444C198.164 131.635 198.164 131.777 198.164 131.968H199.498L200.165 129.348L198.64 129.158Z" fill="#9D9FA1"/>
<path opacity="0.5" d="M195.544 129.301L195.306 129.348L195.973 131.968H196.211C196.021 131.063 195.782 130.206 195.544 129.301Z" fill="#9D9FA1"/>
<path d="M200.165 103.388H195.306V129.348H200.165V103.388Z" fill="#C2C4C6"/>
<path d="M200.165 128.348H195.306V129.348H200.165V128.348Z" fill="#3E4042"/>
<path d="M200.165 108.723H195.306V109.151H200.165V108.723Z" fill="#3E4042"/>
<path d="M200.165 109.58H195.306V110.009H200.165V109.58Z" fill="#3E4042"/>
<path d="M198.069 97.5289C197.926 97.3384 197.831 97.3384 197.736 97.3384C197.688 97.3384 197.545 97.3384 197.402 97.5289C197.259 97.7671 195.402 101.911 195.306 103.388H197.545H197.878H200.117C200.07 101.911 198.212 97.8147 198.069 97.5289Z" fill="#9A9A9A"/>
<path d="M197.592 97.6718C197.592 97.6718 196.163 100.958 195.687 102.864C195.687 102.864 195.544 103.293 195.925 103.245H197.735C197.735 103.245 198.355 103.34 198.307 102.769C198.307 102.245 197.592 97.6718 197.592 97.6718Z" fill="#AAACAE"/>
<path opacity="0.4" d="M198.116 103.578H196.021C196.021 103.578 195.687 103.483 195.687 104.483V127.062C195.687 127.062 195.687 127.872 196.068 128.157L197.878 128.3C197.878 128.3 198.402 128.3 198.402 127.3C198.402 126.633 198.402 104.293 198.402 104.293C198.402 104.293 198.355 103.578 198.116 103.578Z" fill="white"/>
<path d="M196.211 131.873C196.264 131.873 196.306 131.83 196.306 131.777C196.306 131.725 196.264 131.682 196.211 131.682C196.158 131.682 196.116 131.725 196.116 131.777C196.116 131.83 196.158 131.873 196.211 131.873Z" fill="#C2C4C6"/>
<path d="M196.83 131.873C196.883 131.873 196.926 131.83 196.926 131.777C196.926 131.725 196.883 131.682 196.83 131.682C196.778 131.682 196.735 131.725 196.735 131.777C196.735 131.83 196.778 131.873 196.83 131.873Z" fill="#C2C4C6"/>
<path d="M197.45 131.873C197.502 131.873 197.545 131.83 197.545 131.777C197.545 131.725 197.502 131.682 197.45 131.682C197.397 131.682 197.354 131.725 197.354 131.777C197.354 131.83 197.397 131.873 197.45 131.873Z" fill="#C2C4C6"/>
<path d="M198.069 131.873C198.122 131.873 198.164 131.83 198.164 131.777C198.164 131.725 198.122 131.682 198.069 131.682C198.016 131.682 197.974 131.725 197.974 131.777C197.974 131.83 198.016 131.873 198.069 131.873Z" fill="#C2C4C6"/>
<path d="M198.688 131.873C198.741 131.873 198.783 131.83 198.783 131.777C198.783 131.725 198.741 131.682 198.688 131.682C198.635 131.682 198.593 131.725 198.593 131.777C198.593 131.83 198.635 131.873 198.688 131.873Z" fill="#C2C4C6"/>
<path d="M199.307 131.873C199.36 131.873 199.403 131.83 199.403 131.777C199.403 131.725 199.36 131.682 199.307 131.682C199.255 131.682 199.212 131.725 199.212 131.777C199.212 131.83 199.255 131.873 199.307 131.873Z" fill="#C2C4C6"/>
<path d="M199.784 118.25H198.688V118.916H199.784V118.25Z" fill="#3A3C3F"/>
<path d="M199.784 119.059H198.688V119.393H199.784V119.059Z" fill="#3A3C3F"/>
<path d="M199.784 122.584H198.688V122.965H199.784V122.584Z" fill="#3A3C3F"/>
<path d="M199.784 123.108H198.688V124.775H199.784V123.108Z" fill="#3A3C3F"/>
<path d="M199.784 124.918H198.688V125.966H199.784V124.918Z" fill="#3A3C3F"/>
<path d="M199.784 127.443H198.688V127.871H199.784V127.443Z" fill="#3A3C3F"/>
<path d="M195.496 105.15C195.523 105.15 195.544 105.129 195.544 105.103C195.544 105.076 195.523 105.055 195.496 105.055C195.47 105.055 195.449 105.076 195.449 105.103C195.449 105.129 195.47 105.15 195.496 105.15Z" fill="#61626B"/>
<path d="M196.259 105.15C196.285 105.15 196.306 105.129 196.306 105.103C196.306 105.076 196.285 105.055 196.259 105.055C196.232 105.055 196.211 105.076 196.211 105.103C196.211 105.129 196.232 105.15 196.259 105.15Z" fill="#61626B"/>
<path d="M197.021 105.15C197.047 105.15 197.068 105.129 197.068 105.103C197.068 105.076 197.047 105.055 197.021 105.055C196.994 105.055 196.973 105.076 196.973 105.103C196.973 105.129 196.994 105.15 197.021 105.15Z" fill="#61626B"/>
<path d="M197.735 105.15C197.762 105.15 197.783 105.129 197.783 105.103C197.783 105.076 197.762 105.055 197.735 105.055C197.709 105.055 197.688 105.076 197.688 105.103C197.688 105.129 197.709 105.15 197.735 105.15Z" fill="#61626B"/>
<path d="M198.497 105.15C198.524 105.15 198.545 105.129 198.545 105.103C198.545 105.076 198.524 105.055 198.497 105.055C198.471 105.055 198.45 105.076 198.45 105.103C198.45 105.129 198.471 105.15 198.497 105.15Z" fill="#61626B"/>
<path d="M199.212 105.15C199.238 105.15 199.26 105.129 199.26 105.103C199.26 105.076 199.238 105.055 199.212 105.055C199.186 105.055 199.164 105.076 199.164 105.103C199.164 105.129 199.186 105.15 199.212 105.15Z" fill="#61626B"/>
<path d="M199.974 105.15C200 105.15 200.022 105.129 200.022 105.103C200.022 105.076 200 105.055 199.974 105.055C199.948 105.055 199.926 105.076 199.926 105.103C199.926 105.129 199.948 105.15 199.974 105.15Z" fill="#61626B"/>
<path d="M195.496 118.011C195.523 118.011 195.544 117.99 195.544 117.964C195.544 117.937 195.523 117.916 195.496 117.916C195.47 117.916 195.449 117.937 195.449 117.964C195.449 117.99 195.47 118.011 195.496 118.011Z" fill="#61626B"/>
<path d="M196.259 118.011C196.285 118.011 196.306 117.99 196.306 117.964C196.306 117.937 196.285 117.916 196.259 117.916C196.232 117.916 196.211 117.937 196.211 117.964C196.211 117.99 196.232 118.011 196.259 118.011Z" fill="#61626B"/>
<path d="M197.021 118.011C197.047 118.011 197.068 117.99 197.068 117.964C197.068 117.937 197.047 117.916 197.021 117.916C196.994 117.916 196.973 117.937 196.973 117.964C196.973 117.99 196.994 118.011 197.021 118.011Z" fill="#61626B"/>
<path d="M197.735 118.011C197.762 118.011 197.783 117.99 197.783 117.964C197.783 117.937 197.762 117.916 197.735 117.916C197.709 117.916 197.688 117.937 197.688 117.964C197.688 117.99 197.709 118.011 197.735 118.011Z" fill="#61626B"/>
<path d="M198.497 118.011C198.524 118.011 198.545 117.99 198.545 117.964C198.545 117.937 198.524 117.916 198.497 117.916C198.471 117.916 198.45 117.937 198.45 117.964C198.45 117.99 198.471 118.011 198.497 118.011Z" fill="#61626B"/>
<path d="M199.212 118.011C199.238 118.011 199.26 117.99 199.26 117.964C199.26 117.937 199.238 117.916 199.212 117.916C199.186 117.916 199.164 117.937 199.164 117.964C199.164 117.99 199.186 118.011 199.212 118.011Z" fill="#61626B"/>
<path d="M199.974 118.011C200 118.011 200.022 117.99 200.022 117.964C200.022 117.937 200 117.916 199.974 117.916C199.948 117.916 199.926 117.937 199.926 117.964C199.926 117.99 199.948 118.011 199.974 118.011Z" fill="#61626B"/>
<path d="M213.264 96.3856H200.927V128.014H213.264V96.3856Z" fill="url(#paint4_linear)"/>
<path d="M213.264 96.3856H207.5V128.014H213.264V96.3856Z" fill="url(#paint5_linear)"/>
<path d="M213.264 98.3862H200.927V99.2913H213.264V98.3862Z" fill="#3E4042"/>
<path d="M207.881 81.524C207.548 81.0476 207.214 81 207.072 81C206.929 81 206.595 81.0476 206.262 81.524C205.881 82.1432 201.165 92.6702 200.879 96.4809H206.643H207.453H213.216C212.978 92.6226 208.31 82.1432 207.881 81.524Z" fill="#AAACAE"/>
<path d="M207.881 81.524C207.548 81.0476 207.214 81 207.072 81C206.929 81 206.595 81.0476 206.262 81.524C205.881 82.1432 201.165 92.6702 200.879 96.4809H206.643H207.453H213.216C212.978 92.6226 208.31 82.1432 207.881 81.524Z" fill="#AAACAE"/>
<path d="M207.881 90.9554C208.024 92.8131 208.167 94.6232 208.31 96.4809H213.264C212.978 92.6226 208.31 82.1432 207.881 81.524C207.643 81.1429 207.357 81.0476 207.214 81C207.596 84.3344 207.596 87.6687 207.881 90.9554Z" fill="#9A9A9A"/>
<path d="M201.26 96.862C201.313 96.862 201.355 96.8194 201.355 96.7668C201.355 96.7142 201.313 96.6715 201.26 96.6715C201.207 96.6715 201.165 96.7142 201.165 96.7668C201.165 96.8194 201.207 96.862 201.26 96.862Z" fill="#61626B"/>
<path d="M202.546 96.862C202.599 96.862 202.641 96.8194 202.641 96.7668C202.641 96.7142 202.599 96.6715 202.546 96.6715C202.493 96.6715 202.451 96.7142 202.451 96.7668C202.451 96.8194 202.493 96.862 202.546 96.862Z" fill="#61626B"/>
<path d="M203.88 96.862C203.933 96.862 203.975 96.8194 203.975 96.7668C203.975 96.7142 203.933 96.6715 203.88 96.6715C203.827 96.6715 203.785 96.7142 203.785 96.7668C203.785 96.8194 203.827 96.862 203.88 96.862Z" fill="#61626B"/>
<path d="M205.166 96.862C205.219 96.862 205.261 96.8194 205.261 96.7668C205.261 96.7142 205.219 96.6715 205.166 96.6715C205.113 96.6715 205.071 96.7142 205.071 96.7668C205.071 96.8194 205.113 96.862 205.166 96.862Z" fill="#61626B"/>
<path d="M206.5 96.862C206.552 96.862 206.595 96.8194 206.595 96.7668C206.595 96.7142 206.552 96.6715 206.5 96.6715C206.447 96.6715 206.404 96.7142 206.404 96.7668C206.404 96.8194 206.447 96.862 206.5 96.862Z" fill="#61626B"/>
<path d="M207.786 96.862C207.838 96.862 207.881 96.8194 207.881 96.7668C207.881 96.7142 207.838 96.6715 207.786 96.6715C207.733 96.6715 207.691 96.7142 207.691 96.7668C207.691 96.8194 207.733 96.862 207.786 96.862Z" fill="#61626B"/>
<path d="M209.12 96.862C209.172 96.862 209.215 96.8194 209.215 96.7668C209.215 96.7142 209.172 96.6715 209.12 96.6715C209.067 96.6715 209.024 96.7142 209.024 96.7668C209.024 96.8194 209.067 96.862 209.12 96.862Z" fill="#61626B"/>
<path d="M210.406 96.862C210.458 96.862 210.501 96.8194 210.501 96.7668C210.501 96.7142 210.458 96.6715 210.406 96.6715C210.353 96.6715 210.31 96.7142 210.31 96.7668C210.31 96.8194 210.353 96.862 210.406 96.862Z" fill="#61626B"/>
<path d="M211.739 96.862C211.792 96.862 211.835 96.8194 211.835 96.7668C211.835 96.7142 211.792 96.6715 211.739 96.6715C211.687 96.6715 211.644 96.7142 211.644 96.7668C211.644 96.8194 211.687 96.862 211.739 96.862Z" fill="#61626B"/>
<path d="M213.026 96.862C213.078 96.862 213.121 96.8194 213.121 96.7668C213.121 96.7142 213.078 96.6715 213.026 96.6715C212.973 96.6715 212.93 96.7142 212.93 96.7668C212.93 96.8194 212.973 96.862 213.026 96.862Z" fill="#61626B"/>
<path d="M210.263 128.729H208.881C208.881 128.729 207.595 130.587 207.691 133.445C207.691 133.445 208.453 133.778 209.596 133.73C210.739 133.73 211.501 133.445 211.501 133.445C211.549 130.587 210.263 128.729 210.263 128.729Z" fill="url(#paint6_linear)"/>
<path d="M210.882 130.015C210.549 129.205 210.263 128.729 210.263 128.729H208.881C208.881 128.729 208.548 129.205 208.262 130.063C208.834 130.158 209.739 130.206 210.882 130.015Z" fill="url(#paint7_linear)"/>
<path d="M207.691 132.873C207.691 132.968 207.691 133.016 207.691 133.111C208.024 133.206 208.596 133.349 209.453 133.349C210.025 133.349 210.691 133.302 211.501 133.111C211.501 133.016 211.501 132.968 211.501 132.873C209.501 133.349 208.167 133.016 207.691 132.873Z" fill="#657483"/>
<path d="M207.738 132.159C207.738 132.254 207.738 132.301 207.691 132.397C208.024 132.492 208.596 132.635 209.405 132.635C209.977 132.635 210.644 132.587 211.406 132.397C211.406 132.301 211.406 132.254 211.406 132.159C209.548 132.587 208.262 132.301 207.738 132.159Z" fill="#657483"/>
<path d="M211.168 130.92C211.168 130.825 211.12 130.777 211.12 130.682C209.691 130.968 208.596 130.825 208.024 130.73C208.024 130.777 207.976 130.872 207.976 130.968C208.31 131.063 208.834 131.111 209.453 131.111C209.929 131.111 210.501 131.063 211.168 130.92Z" fill="#657483"/>
<path d="M207.881 131.444C207.881 131.539 207.833 131.587 207.833 131.682C208.167 131.777 208.739 131.873 209.453 131.873C209.977 131.873 210.644 131.825 211.358 131.635C211.358 131.539 211.311 131.492 211.311 131.396C209.644 131.777 208.405 131.587 207.881 131.444Z" fill="#657483"/>
<path d="M210.977 130.206C210.93 130.11 210.93 130.063 210.882 130.015C209.739 130.206 208.834 130.158 208.262 130.063C208.215 130.11 208.215 130.206 208.167 130.301C208.5 130.348 208.929 130.396 209.405 130.396C209.882 130.396 210.406 130.348 210.977 130.206Z" fill="#657483"/>
<path opacity="0.6" d="M210.263 128.729H208.881C208.881 128.729 207.595 130.587 207.691 133.445C207.691 133.445 207.738 133.445 207.833 133.492C207.786 132.825 207.976 132.159 208.072 131.539C208.167 131.111 208.357 130.11 208.977 130.158C209.691 130.206 209.548 133.111 209.548 133.778C210.692 133.778 211.454 133.492 211.454 133.492C211.549 130.587 210.263 128.729 210.263 128.729Z" fill="#B3B5B8"/>
<path opacity="0.6" d="M210.263 128.729H209.548C210.263 130.253 210.549 131.968 210.644 133.683C211.168 133.588 211.454 133.445 211.454 133.445C211.549 130.587 210.263 128.729 210.263 128.729Z" fill="#B3B5B8"/>
<path d="M205.261 128.729H203.88C203.88 128.729 202.594 130.587 202.689 133.445C202.689 133.445 203.451 133.778 204.594 133.73C205.738 133.73 206.5 133.445 206.5 133.445C206.5 130.587 205.261 128.729 205.261 128.729Z" fill="url(#paint8_linear)"/>
<path d="M205.88 130.015C205.547 129.205 205.261 128.729 205.261 128.729H203.88C203.88 128.729 203.546 129.205 203.261 130.063C203.832 130.158 204.737 130.206 205.88 130.015Z" fill="url(#paint9_linear)"/>
<path d="M202.689 132.873C202.689 132.968 202.689 133.016 202.689 133.111C203.023 133.207 203.594 133.35 204.452 133.35C205.023 133.35 205.69 133.302 206.5 133.111C206.5 133.016 206.5 132.968 206.5 132.873C204.499 133.35 203.118 133.016 202.689 132.873Z" fill="#657483"/>
<path d="M202.737 132.159C202.737 132.254 202.737 132.301 202.737 132.397C203.07 132.492 203.642 132.635 204.452 132.635C205.023 132.635 205.69 132.587 206.452 132.397C206.452 132.301 206.452 132.254 206.452 132.159C204.547 132.587 203.213 132.301 202.737 132.159Z" fill="#657483"/>
<path d="M206.166 130.92C206.166 130.825 206.119 130.777 206.119 130.682C204.69 130.968 203.594 130.825 203.023 130.73C203.023 130.777 202.975 130.872 202.975 130.968C203.308 131.063 203.832 131.111 204.452 131.111C204.928 131.111 205.5 131.063 206.166 130.92Z" fill="#657483"/>
<path d="M202.832 131.444C202.832 131.539 202.784 131.587 202.784 131.682C203.118 131.778 203.689 131.873 204.404 131.873C204.928 131.873 205.595 131.825 206.309 131.635C206.309 131.539 206.262 131.492 206.262 131.396C204.594 131.778 203.404 131.587 202.832 131.444Z" fill="#657483"/>
<path d="M205.976 130.206C205.928 130.11 205.928 130.063 205.881 130.015C204.737 130.206 203.832 130.158 203.261 130.063C203.213 130.11 203.213 130.206 203.165 130.301C203.499 130.348 203.928 130.396 204.404 130.396C204.88 130.396 205.404 130.348 205.976 130.206Z" fill="#657483"/>
<path opacity="0.6" d="M205.261 128.729H203.88C203.88 128.729 202.594 130.587 202.689 133.445C202.689 133.445 202.737 133.445 202.832 133.492C202.784 132.825 202.975 132.159 203.07 131.539C203.165 131.111 203.356 130.11 203.975 130.158C204.69 130.206 204.547 133.111 204.547 133.778C205.69 133.778 206.452 133.492 206.452 133.492C206.5 130.587 205.261 128.729 205.261 128.729Z" fill="#B3B5B8"/>
<path opacity="0.6" d="M205.261 128.729H204.547C205.261 130.253 205.547 131.968 205.642 133.683C206.166 133.588 206.452 133.445 206.452 133.445C206.5 130.587 205.261 128.729 205.261 128.729Z" fill="#B3B5B8"/>
<path d="M203.308 106.436C203.308 106.436 201.784 107.246 201.308 109.58C200.879 111.914 200.069 113.82 197.926 115.344C195.782 116.868 191.686 120.965 192.019 128.014C192.019 128.014 191.972 128.396 192.496 128.443C193.019 128.491 202.213 129.062 202.213 129.062H203.737L203.308 106.436Z" fill="url(#paint10_linear)"/>
<path d="M203.404 109.771C203.404 109.771 202.117 110.438 201.784 112.391C201.403 114.344 200.736 115.915 198.974 117.154C197.211 118.44 193.782 121.774 194.067 127.633C194.067 127.633 194.02 127.967 194.448 128.014C194.877 128.062 202.498 128.538 202.498 128.538H203.737L203.404 109.771Z" fill="white"/>
<path d="M203.308 106.436C203.308 106.436 202.737 106.722 202.165 107.532C202.07 109.485 201.355 121.012 201.165 123.966C200.974 127.205 199.069 127.348 196.783 127.443C194.496 127.49 192.924 126.871 192.829 124.775C192.734 122.727 194.877 118.345 194.877 118.345C193.258 120.536 191.829 123.727 192.019 127.967C192.019 127.967 191.972 128.348 192.496 128.396C193.019 128.443 202.213 129.015 202.213 129.015H203.737L203.308 106.436Z" fill="url(#paint11_linear)"/>
<path d="M201.451 109.771C201.451 109.771 201.022 112.867 199.259 114.582C197.449 116.297 195.211 117.154 194.21 120.25C194.21 120.25 194.877 118.011 197.354 116.392C199.831 114.677 201.355 113.296 201.451 109.771Z" fill="white"/>
<path d="M210.834 106.436C210.834 106.436 212.359 107.246 212.835 109.58C213.264 111.914 214.074 113.82 216.217 115.344C218.361 116.868 222.457 120.965 222.124 128.014C222.124 128.014 222.171 128.396 221.647 128.443C221.123 128.491 211.93 129.062 211.93 129.062H210.406L210.834 106.436Z" fill="url(#paint12_linear)"/>
<path d="M210.787 109.771C210.787 109.771 212.073 110.438 212.406 112.391C212.787 114.344 213.454 115.915 215.217 117.154C216.979 118.44 220.409 121.774 220.123 127.633C220.123 127.633 220.171 127.967 219.742 128.014C219.313 128.062 211.692 128.538 211.692 128.538H210.453L210.787 109.771Z" fill="white"/>
<path d="M210.834 106.436C210.834 106.436 211.406 106.722 211.978 107.532C212.073 109.485 212.787 121.012 212.978 123.966C213.169 127.205 215.074 127.348 217.36 127.443C219.647 127.49 221.219 126.871 221.314 124.775C221.409 122.727 219.266 118.345 219.266 118.345C220.885 120.536 222.314 123.727 222.124 127.967C222.124 127.967 222.171 128.348 221.647 128.396C221.123 128.443 211.93 129.015 211.93 129.015H210.406L210.834 106.436Z" fill="url(#paint13_linear)"/>
<path d="M212.74 109.771C212.74 109.771 213.168 112.867 214.931 114.582C216.741 116.297 218.98 117.154 219.98 120.25C219.98 120.25 219.313 118.011 216.836 116.392C214.359 114.677 212.835 113.296 212.74 109.771Z" fill="white"/>
<path d="M211.549 109.152C211.12 104.102 209.263 100.911 208.024 99.6248C207.834 99.3866 207.548 99.1961 207.214 99.1484C207.167 99.1484 207.167 99.1484 207.119 99.1484C207.071 99.1484 207.071 99.1484 207.024 99.1484C206.69 99.1961 206.405 99.3866 206.214 99.6248C204.928 100.863 203.07 104.102 202.689 109.152C202.26 114.296 202.451 129.062 202.451 129.062C202.451 129.062 202.546 129.872 204.404 130.348C205.071 130.539 205.928 130.634 207.119 130.634C208.31 130.634 209.215 130.491 209.834 130.348C211.692 129.872 211.787 129.062 211.787 129.062C211.787 129.062 211.978 114.296 211.549 109.152Z" fill="url(#paint14_linear)"/>
<path d="M206.024 107.437C206.024 107.437 203.547 107.961 203.356 110.39C203.166 112.819 203.356 128.348 203.356 128.348C203.356 128.348 203.261 129.348 204.166 129.682C205.118 130.015 207.31 130.253 207.214 128.253C207.119 126.204 207.214 109.199 207.214 109.199C207.214 109.199 207.405 107.151 206.024 107.437Z" fill="url(#paint15_linear)"/>
<path d="M211.549 109.152C211.12 104.102 209.263 100.911 208.024 99.6248C207.834 99.3866 207.548 99.1961 207.214 99.1484C207.167 99.1484 207.167 99.1484 207.119 99.1484C207.071 99.1484 207.071 99.1484 207.024 99.1484H206.976C207.167 99.1961 207.976 99.5295 208.596 101.101C209.31 102.911 209.358 103.674 209.358 103.674C209.358 103.674 209.358 104.198 208.929 104.102C208.548 104.007 207.214 104.007 206.547 104.007L207.548 106.293C207.548 106.293 209.072 106.484 209.787 108.008C210.501 109.533 210.168 128.777 210.168 128.777C210.168 128.777 210.072 129.872 208.691 130.11C207.31 130.348 203.689 130.491 202.927 128.634C202.641 127.872 202.499 126.966 202.451 126.109C202.451 127.872 202.499 129.062 202.499 129.062C202.499 129.062 202.594 129.872 204.452 130.348C205.118 130.539 205.976 130.634 207.167 130.634C208.358 130.634 209.263 130.491 209.882 130.348C211.739 129.872 211.835 129.062 211.835 129.062C211.835 129.062 211.978 114.296 211.549 109.152Z" fill="#C2BFC0"/>
<path d="M210.31 105.912C210.168 105.293 209.691 104.864 209.167 104.531C208.834 104.34 208.5 104.245 208.167 104.15C207.357 104.007 206.547 104.007 205.738 104.198C205.738 104.198 204.07 104.579 203.737 105.912C203.404 107.246 203.165 109.199 203.356 109.199C203.546 109.151 203.451 108.246 203.832 107.818C204.404 107.151 205.071 106.627 205.928 106.436C206.786 106.246 207.881 106.246 208.691 106.579C209.215 106.77 209.691 107.151 210.025 107.58C210.072 107.675 210.168 107.722 210.215 107.818C210.596 108.246 210.501 109.199 210.692 109.199C210.882 109.199 210.644 107.246 210.31 105.912Z" fill="#303134"/>
<path d="M210.31 105.912C210.168 105.293 209.691 104.864 209.167 104.531C208.834 104.34 208.5 104.245 208.167 104.15C207.929 104.102 207.738 104.102 207.548 104.055C207.548 104.245 207.833 105.627 206.928 105.817C206.547 105.865 206.214 105.912 205.833 106.055C204.499 106.532 203.308 107.627 203.404 109.104C203.499 108.866 203.499 108.151 203.832 107.818C204.404 107.151 205.071 106.627 205.928 106.436C206.786 106.246 207.881 106.246 208.691 106.579C209.215 106.77 209.691 107.151 210.025 107.58C210.072 107.675 210.168 107.722 210.215 107.818C210.596 108.246 210.501 109.199 210.691 109.199C210.882 109.199 210.644 107.246 210.31 105.912Z" fill="#303134"/>
<path d="M202.356 122.346C202.356 123.537 202.356 124.68 202.356 125.68C203.88 126.157 207.548 126.919 211.739 125.585C211.739 124.585 211.739 123.489 211.739 122.251C207.595 123.584 203.88 122.775 202.356 122.346Z" fill="url(#paint16_linear)"/>
<path d="M208.072 120.488C207.976 119.774 207.167 119.869 207.167 119.869H206.976C206.976 119.869 206.166 119.774 206.071 120.488C205.976 121.203 206.5 130.73 206.5 130.73C206.5 130.73 206.404 131.254 206.928 131.444H207.119C207.643 131.301 207.548 130.73 207.548 130.73C207.548 130.73 208.167 121.155 208.072 120.488Z" fill="white"/>
<path d="M208.072 120.488C207.976 119.774 207.167 119.869 207.167 119.869H206.976C206.976 119.869 206.166 119.774 206.071 120.488C205.976 121.203 206.5 130.73 206.5 130.73C206.5 130.73 206.404 131.254 206.928 131.444H207.119C207.643 131.301 207.548 130.73 207.548 130.73C207.548 130.73 208.167 121.155 208.072 120.488Z" fill="#5A5B5D"/>
<path d="M207.214 120.679C207.214 120.155 206.881 120.203 206.881 120.203H206.833C206.833 120.203 206.547 120.155 206.547 120.679C206.547 121.203 206.833 130.92 206.833 130.92C206.833 130.92 207.5 130.396 207.214 120.679Z" fill="white"/>
<path d="M194.734 127.871C194.813 127.871 194.877 127.808 194.877 127.729C194.877 127.65 194.813 127.586 194.734 127.586C194.655 127.586 194.591 127.65 194.591 127.729C194.591 127.808 194.655 127.871 194.734 127.871Z" fill="#5A5B5D"/>
<path d="M196.211 128.014C196.29 128.014 196.354 127.95 196.354 127.872C196.354 127.793 196.29 127.729 196.211 127.729C196.132 127.729 196.068 127.793 196.068 127.872C196.068 127.95 196.132 128.014 196.211 128.014Z" fill="#5A5B5D"/>
<path d="M197.64 128.062C197.719 128.062 197.783 127.998 197.783 127.919C197.783 127.84 197.719 127.776 197.64 127.776C197.561 127.776 197.497 127.84 197.497 127.919C197.497 127.998 197.561 128.062 197.64 128.062Z" fill="#5A5B5D"/>
<path d="M199.117 128.205C199.195 128.205 199.259 128.141 199.259 128.062C199.259 127.983 199.195 127.919 199.117 127.919C199.038 127.919 198.974 127.983 198.974 128.062C198.974 128.141 199.038 128.205 199.117 128.205Z" fill="#5A5B5D"/>
<path d="M200.545 128.157C200.624 128.157 200.688 128.093 200.688 128.014C200.688 127.936 200.624 127.872 200.545 127.872C200.467 127.872 200.403 127.936 200.403 128.014C200.403 128.093 200.467 128.157 200.545 128.157Z" fill="#5A5B5D"/>
<path d="M202.022 128.348C202.101 128.348 202.165 128.284 202.165 128.205C202.165 128.126 202.101 128.062 202.022 128.062C201.943 128.062 201.879 128.126 201.879 128.205C201.879 128.284 201.943 128.348 202.022 128.348Z" fill="#5A5B5D"/>
<path d="M219.599 127.871C219.678 127.871 219.742 127.808 219.742 127.729C219.742 127.65 219.678 127.586 219.599 127.586C219.52 127.586 219.456 127.65 219.456 127.729C219.456 127.808 219.52 127.871 219.599 127.871Z" fill="#5A5B5D"/>
<path d="M218.17 128.014C218.249 128.014 218.313 127.95 218.313 127.872C218.313 127.793 218.249 127.729 218.17 127.729C218.091 127.729 218.027 127.793 218.027 127.872C218.027 127.95 218.091 128.014 218.17 128.014Z" fill="#5A5B5D"/>
<path d="M216.693 128.062C216.772 128.062 216.836 127.998 216.836 127.919C216.836 127.84 216.772 127.776 216.693 127.776C216.615 127.776 216.551 127.84 216.551 127.919C216.551 127.998 216.615 128.062 216.693 128.062Z" fill="#5A5B5D"/>
<path d="M215.264 128.205C215.343 128.205 215.407 128.141 215.407 128.062C215.407 127.983 215.343 127.919 215.264 127.919C215.185 127.919 215.121 127.983 215.121 128.062C215.121 128.141 215.185 128.205 215.264 128.205Z" fill="#5A5B5D"/>
<path d="M213.788 128.157C213.867 128.157 213.931 128.093 213.931 128.014C213.931 127.936 213.867 127.872 213.788 127.872C213.709 127.872 213.645 127.936 213.645 128.014C213.645 128.093 213.709 128.157 213.788 128.157Z" fill="#5A5B5D"/>
<path d="M212.359 128.348C212.438 128.348 212.502 128.284 212.502 128.205C212.502 128.126 212.438 128.062 212.359 128.062C212.28 128.062 212.216 128.126 212.216 128.205C212.216 128.284 212.28 128.348 212.359 128.348Z" fill="#5A5B5D"/>
<path d="M108.304 150.631C108.304 151.547 108.151 152.998 107.922 154.908C107.159 160.636 105.325 170.183 102.881 178.738C102.729 179.196 102.576 179.654 102.499 180.189C101.048 185.077 99.368 189.507 97.6876 192.562C97.0766 193.708 96.3892 194.777 95.6254 195.846C89.6679 204.477 80.7317 210.511 64.6159 213.49C46.5143 216.774 34.5229 205.241 24.8993 201.269C23.6772 200.735 22.3788 200.506 21.0804 200.353C11.8386 199.513 0.458283 206.692 0.152771 206.921C0.229149 206.463 4.20081 190.958 18.4071 174.766C19.4001 173.697 20.393 172.551 21.3859 171.482C35.4395 156.359 53.2356 142.993 61.8663 138.563C62.8592 138.028 64.3104 137.494 65.9143 136.959H65.9907C68.1293 136.272 70.7262 135.584 73.323 134.973C77.9821 133.827 82.6411 132.911 85.3144 132.376C86.6892 132.071 87.5293 131.918 87.5293 131.918L92.2648 129.779L101.125 130.39C101.125 130.39 101.201 130.467 101.354 130.543C102.347 131.154 106.471 133.675 107.159 134.286C107.54 134.591 107.77 136.806 107.999 139.632C108.151 141.694 108.304 143.986 108.304 146.201C108.304 147.805 108.304 149.332 108.304 150.631Z" fill="url(#paint17_linear)"/>
<path d="M108.304 150.631C108.304 151.547 108.151 152.998 107.922 154.908C107.158 160.636 105.325 170.183 102.881 178.738C102.729 179.196 102.576 179.654 102.499 180.189C101.048 185.077 99.3679 189.507 97.6876 192.562C97.0766 193.708 96.3892 194.777 95.6254 195.846C95.6254 195.846 94.2506 194.701 91.8829 193.021C87.6821 189.965 80.3498 185.154 72.1773 181.487C63.8521 177.821 54.6867 175.377 46.9725 177.516C31.2386 181.793 24.8229 201.269 24.8229 201.269L21.004 200.353L21.3095 171.482C35.3631 156.359 53.1592 142.993 61.7899 138.563C62.7828 138.028 64.234 137.494 65.8379 136.959H65.9143C68.0529 136.272 70.6497 135.584 73.2466 134.973C77.9057 133.827 82.5647 132.911 85.238 132.376C86.6128 132.071 87.4529 131.918 87.4529 131.918L92.1884 129.779L101.048 130.39C101.048 130.39 101.125 130.467 101.277 130.543C102.27 131.154 106.395 133.675 107.082 134.286C107.464 134.591 107.693 136.806 107.922 139.632C108.075 141.694 108.228 143.986 108.228 146.201C108.304 147.805 108.304 149.332 108.304 150.631Z" fill="url(#paint18_linear)"/>
<path d="M91.0427 132.147L90.8899 132.376L90.7372 132.605L90.3553 133.216L88.9805 135.431L88.2167 136.577L86.0017 140.09L79.5096 150.401C79.0513 150.63 66.3726 157.352 66.0671 157.657C65.7615 157.963 66.5253 161.018 67.9001 164.073C69.2749 167.128 71.7954 173.315 71.7954 173.315L69.2749 174.766C69.2749 174.766 61.408 168.121 59.1166 164.455C58.0473 162.775 57.3599 161.171 56.9781 159.872C56.4434 158.268 56.2906 157.046 56.2906 156.588C56.2906 156.053 56.7489 154.831 59.7277 152.158C61.408 150.707 63.8521 148.721 67.4419 146.277C69.2749 144.978 71.1844 143.756 73.1702 142.534C73.2466 142.534 73.323 142.458 73.323 142.382C73.5521 142.229 73.7049 142.153 73.934 142C74.2395 141.847 74.545 141.618 74.9269 141.389C78.4403 139.25 81.8009 137.264 84.6269 135.66C85.6198 135.126 86.5364 134.591 87.3002 134.133C88.7513 133.293 89.897 132.682 90.508 132.376C90.8899 132.223 90.9663 132.147 91.0427 132.147Z" fill="url(#paint19_linear)"/>
<path d="M68.8167 180.342C68.8167 180.342 67.2127 178.127 67.5182 177.439C67.8238 176.752 69.2749 177.745 69.2749 177.745L68.8167 180.342Z" fill="#F08364"/>
<path d="M92.4939 128.71C92.4939 128.71 91.6537 131.536 91.2718 131.918C90.8899 132.3 89.5151 133.675 89.5151 133.675C89.5151 133.675 89.6679 135.584 93.0285 135.584C96.3892 135.584 99.597 132.911 99.597 132.911C99.597 132.911 99.2152 132.3 99.2152 130.925C99.2152 129.55 100.972 125.884 100.972 125.884L92.4939 128.71Z" fill="#DA6951"/>
<path d="M121.823 83.4178L121.059 91.5138L119.837 104.574C119.837 104.574 117.622 117.177 113.116 120.919C108.61 124.662 96.6183 128.863 89.7443 128.863C87.071 128.863 83.634 127.946 80.3498 126.571C75.3088 124.509 70.7261 121.454 70.1151 119.315C70.0387 119.01 69.9623 118.704 69.9623 118.323C69.886 117.33 70.0387 116.337 70.2679 115.267C70.5734 113.969 71.0316 112.671 71.4135 111.372C71.6427 110.532 71.7954 109.768 71.7954 109.081C71.7954 108.775 71.7954 108.47 71.719 108.241C71.3372 105.797 69.6568 96.8603 69.5041 89.6044C69.4277 87.1603 69.5805 84.9453 69.9623 83.265C71.4899 76.391 88.1403 71.4264 88.1403 71.4264L107.54 72.1138L109.755 72.1902L109.984 72.4193L110.748 73.1067L121.823 83.4178Z" fill="url(#paint20_linear)"/>
<path d="M121.059 91.5139L119.837 104.575C119.837 104.575 117.622 117.177 113.116 120.919C108.61 124.662 96.6183 128.863 89.7443 128.863C89.7443 128.863 93.0286 128.634 96.9238 127.106C100.819 125.579 111.512 119.927 109.45 105.72C107.388 91.5139 98.2223 84.1816 85.3144 84.1816C73.7049 84.1816 69.5041 89.7572 69.5041 89.7572L69.4277 89.6808C69.3513 87.2367 69.5041 85.0217 69.886 83.3414C71.4136 76.4674 88.064 71.5028 88.064 71.5028L107.464 72.1902L109.908 72.4957L110.29 72.5721L110.672 73.1831L121.059 91.5139Z" fill="#F08364"/>
<path d="M114.033 88.7643C114.033 88.7643 116.629 103.887 118.692 107.553L121.136 106.255C121.136 106.255 126.788 93.8817 126.788 87.7714C126.711 81.6612 114.033 88.7643 114.033 88.7643Z" fill="#5C1B12"/>
<path d="M115.789 68.7532C115.789 68.7532 114.185 60.5044 104.714 55.7689C104.714 55.7689 110.443 63.1012 110.443 69.2878L116.171 69.8989C116.171 69.8989 120.372 70.2044 121.67 68.906C122.969 67.6075 118.615 62.7957 118.615 62.7957C118.615 62.7957 120.525 66.0036 120.525 67.302C120.677 68.7532 115.789 68.7532 115.789 68.7532Z" fill="url(#paint21_linear)"/>
<path d="M81.8009 80.8209C81.8009 80.8209 80.1206 79.7516 77.0655 79.4461C71.4899 78.9879 69.3513 89.0698 69.3513 89.0698L67.2891 80.8209C67.2891 80.8209 54.9158 78.2241 46.2087 78.9878C46.2087 78.9878 57.0544 75.1689 64.6159 74.176L59.9568 68.9059L78.1348 64.7051C78.1348 64.7051 83.023 61.8792 91.6537 61.8792C100.284 61.8792 103.492 66.5382 103.492 66.5382L81.8009 80.8209Z" fill="#5C1B12"/>
<path d="M78.4403 111.525C77.9821 112.518 75.4616 112.9 73.7049 112.365C71.9482 111.831 70.5734 105.033 71.3372 101.978C72.1009 98.9226 74.6214 99.4573 76.149 102.131C77.6765 104.804 78.975 110.303 78.4403 111.525Z" fill="#FFFFD8"/>
<path d="M93.105 110.15C93.2577 111.983 97.0002 113.129 100.666 112.823C105.096 112.518 108.533 108.088 107.693 105.033C106.853 101.978 104.485 98.8461 100.132 99.228C95.7782 99.6099 92.7231 105.415 93.105 110.15Z" fill="#FFFFD8"/>
<path d="M101.812 110.532C104.554 110.532 106.777 108.104 106.777 105.109C106.777 102.114 104.554 99.6864 101.812 99.6864C99.0701 99.6864 96.8474 102.114 96.8474 105.109C96.8474 108.104 99.0701 110.532 101.812 110.532Z" fill="#0B7723"/>
<path d="M102 108C103.657 108 105 106.657 105 105C105 103.343 103.657 102 102 102C100.343 102 99 103.343 99 105C99 106.657 100.343 108 102 108Z" fill="#430503"/>
<path d="M94.0978 111.525C94.0978 111.525 98.6805 114.198 104.333 111.525C104.409 111.525 99.6734 115.344 94.0978 111.525Z" fill="#3F1B08"/>
<path d="M78.6695 110.074C78.6695 110.074 78.5931 110.074 78.6695 110.074C78.1348 110.838 77.4474 111.219 76.76 111.219C75.0033 111.219 73.6285 108.852 73.6285 105.873C73.6285 104.04 74.1632 102.36 75.0797 101.443C75.3852 101.138 75.6907 100.908 75.9963 100.756C76.4545 101.29 76.9128 102.054 77.4474 102.894C78.8223 105.72 78.7459 108.928 78.6695 110.074Z" fill="#0B7723"/>
<path d="M78.2263 108.167C78.2263 108.167 78.1815 108.172 78.2263 108.167C77.9601 108.637 77.5802 108.899 77.1763 108.944C76.1443 109.057 75.1883 107.796 75.0018 106.099C74.887 105.054 75.0958 104.061 75.5769 103.48C75.7372 103.286 75.9023 103.136 76.0723 103.029C76.375 103.304 76.692 103.71 77.0587 104.154C78.0434 105.676 78.1994 107.51 78.2263 108.167Z" fill="#430503"/>
<path d="M72.3301 111.219C72.3301 111.219 73.5521 113.129 77.2183 112.441C77.1419 112.365 73.6285 113.969 72.3301 111.219Z" fill="#3F1B08"/>
<path d="M97.2293 107.553C97.7355 107.553 98.1459 107.143 98.1459 106.637C98.1459 106.131 97.7355 105.72 97.2293 105.72C96.7232 105.72 96.3128 106.131 96.3128 106.637C96.3128 107.143 96.7232 107.553 97.2293 107.553Z" fill="white"/>
<path d="M73.5522 108.241C74.0583 108.241 74.4687 107.83 74.4687 107.324C74.4687 106.818 74.0583 106.408 73.5522 106.408C73.046 106.408 72.6356 106.818 72.6356 107.324C72.6356 107.83 73.046 108.241 73.5522 108.241Z" fill="white"/>
<path d="M93.1049 109.157C93.1049 109.157 92.2648 102.742 97.0002 99.8392C101.507 97.0896 105.555 99.2281 106.929 102.054C108.304 104.957 107.617 107.859 107.617 107.859C107.617 107.859 107.54 103.887 105.631 101.901C103.874 100.145 100.895 99.4573 97.0002 101.672C93.5632 103.658 93.1049 109.157 93.1049 109.157Z" fill="#3F1B08"/>
<path d="M78.6695 110.074C78.6695 110.303 78.5931 110.456 78.5931 110.456C78.5931 110.379 78.5931 110.226 78.6695 110.074C78.5167 106.56 76.6836 103.047 75.0033 101.367C74.2395 100.603 73.4758 100.221 73.0175 100.374C71.3372 100.832 71.108 105.109 71.108 105.109C70.497 101.137 71.7954 98.9225 72.4829 98.7698C73.1703 98.617 74.5451 98.9989 75.9962 100.756C76.4545 101.29 76.9128 102.054 77.4474 102.894C78.8222 105.72 78.7459 108.928 78.6695 110.074Z" fill="#3F1B08"/>
<path d="M78.0584 114.427C78.0584 114.427 79.1277 115.038 82.1065 115.038C85.0852 115.038 87.9112 114.122 87.9112 114.122C87.9112 114.122 87.9876 115.573 86.9183 115.879C85.9254 116.184 84.4742 116.642 84.0923 116.795C83.7104 116.948 83.3285 117.941 83.3285 117.941C83.3285 117.941 79.7388 116.948 78.8222 116.337C77.9057 115.573 78.0584 114.427 78.0584 114.427Z" fill="#DA6951"/>
<path d="M90.6608 90.7501L90.2026 87.7714C90.2026 87.7714 103.11 88.4588 106.318 94.0344C106.318 94.0344 104.791 92.2013 99.8262 91.3611C95.7782 90.5974 92.9522 91.6666 90.6608 90.7501Z" fill="#701B08"/>
<path d="M83.7868 116.871C82.3356 115.42 85.7726 115.42 86.9947 115.878L83.7868 116.871Z" fill="#532722"/>
<path d="M84.0159 118.017C84.0159 118.017 80.5025 117.712 78.5931 116.489C76.6836 115.191 76.9891 114.122 77.2183 113.893C77.4474 113.663 78.975 112.212 81.7246 111.983C81.7246 111.983 79.4332 112.441 77.9821 113.893C77.9821 113.893 78.1348 115.115 79.2805 116.031C80.5025 117.1 84.0159 118.017 84.0159 118.017Z" fill="#8B3D22"/>
<path d="M93.7159 118.704C93.7159 118.704 96.3128 117.177 98.1459 118.17C98.1459 118.17 97.9931 119.315 97.6112 119.315C97.3057 119.392 97.3821 118.017 93.7159 118.704Z" fill="#8B3D22"/>
<path d="M95.9309 118.246C95.9309 118.246 95.7018 119.85 93.716 121.072C91.7301 122.294 88.5986 123.593 85.3907 123.364L85.238 123.516C85.238 123.516 86.9947 123.593 88.8277 123.44C91.1955 123.211 95.7018 121.989 96.4656 118.628L95.9309 118.246Z" fill="#8B3D22"/>
<path d="M128.239 86.8548C128.239 86.8548 121.518 91.6666 114.033 88.7643C108.533 86.6257 104.18 82.5776 100.896 80.1335C99.6735 79.217 98.6042 78.5296 97.6112 78.2241C94.0978 77.1548 81.7246 80.7446 81.7246 80.7446C81.5718 80.5918 78.2876 77.9186 73.5521 75.0162H73.4758C72.1773 74.2524 70.8025 73.4886 69.3513 72.7248L69.275 72.6485C68.2057 72.1138 67.06 71.5028 65.9143 71.0445C63.3938 69.9752 60.797 69.0587 58.2001 68.4477C58.2001 68.4477 72.7884 63.5595 83.023 64.9343C83.4049 65.0107 83.7104 65.0107 84.0923 65.087C85.4671 65.2398 86.6892 65.4689 87.6821 65.5453C93.5632 66.3855 94.1742 66.5382 94.1742 66.5382C94.1742 66.5382 93.2577 65.7744 91.8065 64.7051C91.501 64.476 91.1955 64.2469 90.89 64.0177C88.7514 62.4902 85.9254 60.6571 83.4813 59.7406C83.4813 59.7406 93.2577 59.5114 101.583 60.8099C103.798 61.1154 105.86 61.5736 107.617 62.1847C108.075 62.3374 108.61 62.4902 108.992 62.7193C116.706 66.0036 116.4 68.9823 116.324 69.2115C116.935 69.6697 127.322 75.5508 128.239 86.8548Z" fill="url(#paint22_linear)"/>
<path d="M117.775 108.241C117.775 108.241 123.962 103.047 130.607 105.72C137.328 108.317 129.614 120.232 122.434 120.919C115.255 121.607 115.713 115.649 115.713 115.649L117.775 108.241Z" fill="#F08364"/>
<path d="M118.004 113.511C118.004 113.511 120.677 110.685 124.267 109.768C128.01 108.775 129.69 109.692 130.072 110.456C130.454 111.219 129.614 113.587 128.468 114.809C128.468 114.809 129.079 111.83 128.468 111.296C127.857 110.761 122.511 110.838 118.004 113.511Z" fill="#DA6951"/>
<path d="M120.525 112.06C120.525 112.06 119.226 115.344 120.143 116.948C121.059 118.552 123.809 117.712 123.809 117.712C123.809 117.712 121.212 117.712 120.983 116.26C120.601 114.198 122.205 111.678 122.205 111.678L120.525 112.06Z" fill="#DA6951"/>
<path opacity="0.5" d="M84.0923 114.58C85.2312 114.58 86.1545 114.272 86.1545 113.893C86.1545 113.513 85.2312 113.205 84.0923 113.205C82.9534 113.205 82.0301 113.513 82.0301 113.893C82.0301 114.272 82.9534 114.58 84.0923 114.58Z" fill="#FFFFD8"/>
<path d="M69.3514 174.766C69.3514 174.766 68.4348 176.599 68.4348 178.585C68.4348 180.113 68.5876 180.189 68.5876 180.189C68.5876 180.189 67.4419 179.043 66.2962 179.043C65.2269 179.043 69.275 183.855 70.3443 183.855C71.4136 183.855 72.3301 183.091 73.0939 183.091C73.8577 183.091 74.0104 182.328 74.3923 181.946C74.7742 181.564 75.9963 181.335 76.3018 180.953C76.6073 180.571 76.6073 179.578 76.9128 179.349C77.2183 179.043 77.6766 178.203 77.6766 177.821C77.6766 177.363 72.4065 173.239 71.8718 173.239C71.4136 173.315 69.3514 174.766 69.3514 174.766Z" fill="url(#paint23_linear)"/>
<path d="M16.9559 221.815L17.9489 221.739C17.9489 221.739 21.9969 171.864 52.0135 144.52C52.0135 144.52 31.315 157.581 25.2048 167.205C19.1709 176.828 16.9559 221.815 16.9559 221.815Z" fill="url(#paint24_linear)"/>
<path d="M16.9559 221.815L17.9489 221.739C17.9489 221.739 21.9969 171.864 52.0135 144.52C52.0135 144.52 31.315 157.581 25.2048 167.205C19.1709 176.828 16.9559 221.815 16.9559 221.815Z" fill="black" fill-opacity="0.25"/>
<path d="M103.034 179.425C102.958 179.501 102.423 180.494 98.6042 184.237C98.6042 184.237 98.6042 184.237 98.5278 184.313C94.6325 188.209 89.5916 196.457 89.1333 197.145V197.221L84.2451 198.29L71.8718 183.473V183.32C71.9482 182.709 72.2537 180.342 72.7884 176.905L72.8647 176.599C73.8577 170.718 75.6907 161.782 78.6695 152.846C78.975 152.005 79.2805 151.165 79.586 150.325C81.7246 144.597 84.1687 140.472 86.1545 137.57C86.5364 137.112 86.8419 136.653 87.1475 136.195C87.5293 135.66 87.9112 135.202 88.2931 134.744C89.3624 133.522 90.2026 132.758 90.5845 132.453C90.6608 132.376 90.7372 132.3 90.8136 132.3C90.8136 132.3 90.8136 132.376 90.8136 132.529C90.8136 133.14 91.1191 134.744 93.716 134.744C97.0002 134.744 99.4443 132.3 99.4443 132.3L100.055 132.605L101.048 133.14C101.048 133.14 100.972 134.133 100.896 135.813C100.819 137.341 100.743 139.403 100.666 141.771C100.666 142.076 100.666 142.382 100.666 142.764C100.59 144.673 100.59 146.812 100.514 148.95C100.514 149.256 100.514 149.485 100.514 149.714C100.514 151.318 100.514 152.922 100.514 154.602C100.514 162.164 101.812 171.329 102.576 176.141L102.652 176.446C102.652 176.675 102.729 176.828 102.729 177.057C102.881 177.821 102.958 178.356 103.034 178.814C103.034 178.89 103.034 178.967 103.11 179.12V179.196L103.034 179.425Z" fill="url(#paint25_linear)"/>
<path d="M75.8435 219.218C74.545 222.197 74.8505 224.488 74.8505 228.918C74.8505 230.217 74.1631 232.126 73.2466 234.188C71.0316 238.924 67.1363 244.423 66.5253 245.034C66.3726 245.187 66.2962 245.492 66.1434 245.874C65.5324 248.395 65.2269 255.039 64.6922 255.574C64.0048 256.261 56.8253 257.102 52.7009 258.476C48.6528 259.851 40.5568 260.768 40.5568 259.546C40.5568 258.858 46.9725 254.428 52.7009 250.457C52.7009 250.457 52.7773 250.457 52.7773 250.38C56.9017 247.554 60.6442 244.957 61.1789 244.423C62.2481 243.354 64.6159 232.05 66.3726 219.6C66.7545 217.003 67.06 214.33 67.3655 211.733C68.2056 204.706 69.1986 198.061 70.0387 193.02C71.0316 187.216 71.7954 183.397 71.7954 183.397L84.1687 198.214C84.2451 198.29 77.1419 216.163 75.8435 219.218Z" fill="url(#paint26_linear)"/>
<path d="M142.369 259.775C137.404 259.317 124.878 256.261 124.038 255.421C123.503 254.887 123.198 251.45 122.816 249.006C122.663 248.089 122.511 247.325 122.358 246.791C122.358 246.714 122.281 246.638 122.281 246.638C122.205 246.485 122.129 246.332 122.052 246.332C121.594 245.874 118.157 240.833 114.109 234.876C110.214 229.071 105.707 222.35 102.958 218.225C102.576 217.614 102.194 217.003 101.736 216.392C96.3128 208.143 89.0569 197.221 89.0569 197.221C89.0569 197.221 96.8475 182.251 102.958 179.501C102.958 179.501 111.207 210.435 112.352 213.948C113.116 216.545 116.477 219.447 119.226 222.731C120.296 224.03 121.212 225.328 121.899 226.703C124.42 231.744 125.489 243.354 126.635 244.499C127.781 245.645 133.28 248.013 140.765 251.679C144.584 253.588 147.104 254.963 148.708 255.88C150.236 256.796 150.923 257.331 151.229 257.56C151.763 258.171 147.333 260.233 142.369 259.775Z" fill="url(#paint27_linear)"/>
<path d="M48.4237 147.193C41.2442 154.144 35.6686 162.851 31.315 171.94C19.7819 195.846 16.9559 221.891 16.9559 221.891C3.89528 215.934 0 206.998 0 206.998C12.9843 167.281 48.4237 147.193 48.4237 147.193Z" fill="url(#paint28_linear)"/>
<path d="M84.2451 198.29C84.2451 198.29 77.1419 216.163 75.9198 219.142C75.7671 219.524 75.6143 219.829 75.5379 220.211C74.6978 222.732 74.9269 224.946 74.9269 228.842C74.9269 230.14 74.2395 232.05 73.323 234.112C74.0104 228.994 66.5253 219.6 66.5253 219.6C66.9072 217.003 67.2127 214.33 67.5182 211.733C69.2749 196.534 71.8718 183.473 71.8718 183.473L84.2451 198.29Z" fill="#3D1659"/>
<path d="M113.269 221.815C111.207 223.877 114.032 234.417 114.185 234.952L114.109 234.876C110.214 229.071 105.707 222.35 102.958 218.225C101.659 216.316 100.284 214.177 98.8333 211.962C95.1671 206.387 91.3482 200.658 89.8206 198.367C89.3624 197.679 89.1332 197.298 89.1332 197.298C89.1332 197.298 89.1332 197.298 89.1332 197.221C89.5915 196.381 97.0766 182.251 102.958 179.501C102.958 179.501 104.256 184.466 105.936 190.576C108.457 199.818 111.665 211.809 112.352 213.948C113.116 216.545 116.477 219.371 119.15 222.731C118.921 222.426 115.331 219.829 113.269 221.815Z" fill="#3D1659"/>
<path d="M103.034 179.425C101.659 180.494 100.132 182.251 98.5278 184.313C94.1742 190.194 89.8207 198.29 89.8207 198.29H84.1687L71.8718 183.473V183.32L72.7884 176.905L72.8647 176.599C78.8222 180.342 85.9254 180.265 91.6538 179.196C97.764 178.05 102.423 175.759 102.423 175.759L102.499 176.141L102.576 176.446L102.652 177.057L102.958 178.814L103.034 179.12V179.196V179.425Z" fill="#00F0FF"/>
<path d="M73.1702 142.534C73.1702 142.534 74.7742 143.756 75.3852 143.756C75.9962 143.756 86.1545 137.646 86.1545 137.646L90.8136 132.376C90.8136 132.3 76.8364 140.167 73.1702 142.534Z" fill="#3D1659"/>
<path d="M101.048 133.216L100.361 136.042L99.1388 140.625C99.1388 140.625 98.6806 141.007 98.0695 141.465C97.2294 142.153 96.2365 142.993 95.8546 143.375C94.8617 144.368 91.501 160.331 91.1191 160.789C90.6609 161.247 82.2593 160.713 82.0301 160.178C81.5719 159.032 86.0018 143.375 86.0018 142.764C86.0018 142.458 86.0018 141.313 86.0782 140.167C86.1546 138.945 86.1546 137.723 86.1546 137.723L87.3002 136.424L88.4459 135.126L90.5081 132.758L90.7372 132.453L90.89 132.529L94.6325 134.286L99.4444 132.453L100.055 132.758L101.048 133.216Z" fill="#3D1659"/>
<path d="M121.288 169.114C120.983 169.419 120.754 169.649 120.448 169.878C119.608 170.642 118.692 171.253 117.851 171.787C114.033 174.231 107.388 177.516 107.388 177.516L104.18 175.759C104.333 175.606 107.082 172.627 109.297 170.412C111.588 168.121 114.338 162.393 114.338 161.553C114.338 161.018 111.512 157.963 107.922 154.908C106.547 153.762 105.096 152.616 103.569 151.623C102.576 150.936 101.507 150.325 100.514 149.79H100.437C100.437 149.79 99.2152 146.277 99.0624 141.923C99.0624 141.465 99.0624 141.007 99.0624 140.472V140.396C99.1388 138.945 99.2916 137.417 99.7498 135.966C100.055 134.973 100.437 133.98 100.972 133.063C101.125 133.216 102.041 133.98 103.416 135.278C104.562 136.348 106.089 137.723 107.77 139.403C109.297 140.93 111.054 142.687 112.811 144.597C113.192 144.978 113.422 145.284 113.574 145.513C114.109 146.048 114.567 146.659 115.102 147.193C115.255 147.423 115.484 147.652 115.636 147.881C117.775 150.401 119.455 152.693 120.907 154.602C121.136 154.908 121.365 155.213 121.518 155.442C123.962 159.032 125.26 161.476 125.489 162.545C125.948 163.92 123.885 166.746 121.288 169.114Z" fill="url(#paint29_linear)"/>
<path d="M113.956 145.895C113.956 145.895 112.81 146.582 111.665 147.117C110.748 147.575 109.755 147.957 109.297 147.957C108.839 147.957 106.318 146.124 103.951 144.291C102.729 143.375 101.583 142.458 100.666 141.694C99.7498 140.931 99.0624 140.396 99.0624 140.396V140.319C98.986 138.563 99.2152 137.035 99.5971 135.89C100.132 134.133 100.895 133.064 100.972 132.987C101.736 133.369 102.652 134.133 103.721 135.126C106.853 137.952 110.977 142.458 112.887 144.597C113.269 144.979 113.498 145.284 113.651 145.513C113.88 145.819 113.956 145.895 113.956 145.895Z" fill="#3D1659"/>
<path d="M91.6537 137.264C91.6537 137.264 98.375 136.806 102.194 136.272C106.089 135.737 107.311 134.82 107.311 134.82L107.006 134.133L91.6537 137.264Z" fill="url(#paint30_linear)"/>
<path d="M91.6537 137.264C91.6537 137.264 98.375 136.806 102.194 136.272C106.089 135.737 107.311 134.82 107.311 134.82L107.006 134.133L91.6537 137.264Z" fill="black" fill-opacity="0.25"/>
<path d="M103.798 135.355C103.721 135.355 103.645 135.355 103.492 135.431C102.652 135.584 101.812 135.737 100.895 135.889C100.666 135.889 100.514 135.966 100.284 135.966C100.132 135.966 99.979 136.042 99.7498 136.042C99.7498 136.042 99.6734 136.042 99.5971 136.042C96.3128 136.577 92.8758 137.035 91.5774 137.264C91.2719 137.341 91.1191 137.341 91.0427 137.341L91.4246 137.188L91.5774 137.112C93.1049 136.348 97.4585 134.286 99.5971 132.987C99.7498 132.911 99.9026 132.834 100.055 132.682C102.041 131.307 101.125 130.467 101.048 130.39C101.354 130.543 106.166 133.293 107.082 134.209C107.388 134.438 105.936 134.897 103.798 135.355Z" fill="url(#paint31_linear)"/>
<path d="M91.6537 137.035L91.501 137.112L91.1191 137.264C91.1191 137.264 89.9734 136.882 88.3695 136.424C88.064 136.348 87.7584 136.271 87.3766 136.195C87.3002 136.195 87.3002 136.195 87.2238 136.119C86.5364 135.966 85.6962 135.737 84.9325 135.584C84.8561 135.584 84.8561 135.584 84.7797 135.584C82.3356 135.049 79.6624 134.744 77.6002 134.591C71.719 134.133 62.4009 138.334 61.7135 138.486C62.019 138.334 64.3867 136.806 71.8718 134.362C75.6143 133.14 80.3498 132.3 84.245 131.383C88.675 130.314 92.112 129.626 92.112 129.626C92.112 129.626 91.1191 130.696 90.508 132.3V132.376V132.452C90.4317 132.605 90.4317 132.834 90.3553 133.063C90.2789 133.369 90.2789 133.675 90.2789 134.056C90.2789 136.577 91.6537 137.035 91.6537 137.035Z" fill="url(#paint32_linear)"/>
<path opacity="0.2" d="M128.239 86.8548C128.239 86.8548 121.518 91.6667 114.033 88.7643C108.533 86.6257 104.18 82.5777 100.896 80.1336L103.416 77.9186C106.013 79.5989 114.414 80.821 114.414 80.821C112.658 77.3076 105.402 72.8777 105.402 72.8777C105.402 72.8777 111.741 75.9328 115.713 79.3698C119.685 82.8068 123.962 83.5706 123.962 83.5706C123.962 81.8139 121.059 77.5367 121.059 77.5367L125.107 80.1336C123.351 75.0162 116.859 69.7461 116.4 69.3643C116.935 69.6698 127.322 75.5509 128.239 86.8548Z" fill="#5C1B12"/>
<path opacity="0.2" d="M116.324 69.2878C115.713 69.4406 88.2931 76.6965 81.8009 80.8209C81.4954 80.5918 74.4686 74.7871 65.9907 71.0445C66.4489 71.1973 75.6907 74.7107 79.5096 76.5438L77.8293 74.7871H88.0639C88.0639 74.7871 80.5025 69.4406 76.3017 67.913C77.1419 68.1422 90.5844 71.8083 93.334 73.3359L89.6679 70.739L100.514 72.343L98.986 70.739L103.569 72.0374C103.569 72.0374 98.4514 65.3925 94.3269 63.0248C94.8616 63.3303 103.645 67.6075 105.402 70.6626C105.402 70.6626 108.686 70.3571 110.061 68.1422C111.359 66.0036 106.395 63.1776 106.089 63.0248C106.242 62.9484 111.283 64.3233 116.324 69.2878Z" fill="#5C1B12"/>
<path d="M89.0569 75.5508C89.0569 75.5508 84.7797 77.0784 81.801 80.8209C81.801 80.8209 91.8065 77.3839 98.9097 79.1406C98.9097 79.1406 100.666 76.2382 99.2152 74.787C97.6876 73.2595 90.6608 74.787 89.0569 75.5508Z" fill="#5C1B12"/>
<path d="M103.11 78.3005C101.354 80.0572 98.1459 82.3485 92.6466 84.1816C92.9521 84.0289 97.9931 80.8974 99.0624 77.6895C99.2152 77.3076 99.2915 76.9257 99.2915 76.4674C99.2915 75.78 98.9096 75.2454 98.2986 75.0162C95.8545 73.7942 89.6679 75.3981 89.1332 75.5509C89.5915 75.3981 93.7923 73.7942 97.9167 73.7942C102.881 73.7942 104.256 74.8635 104.791 75.3981C104.944 75.6273 104.562 76.7729 103.11 78.3005Z" fill="url(#paint33_linear)"/>
<path opacity="0.2" d="M103.11 78.3004L99.0624 77.6893C99.2152 77.3075 99.2916 76.9256 99.2916 76.4673C99.2916 75.7799 98.9097 75.2452 98.2986 75.0161C98.2986 75.0161 103.874 75.4744 104.714 75.4744C104.944 75.6271 104.562 76.7728 103.11 78.3004Z" fill="white"/>
<path opacity="0.2" d="M122.281 74.0996C122.281 74.0996 122.51 76.1618 115.56 76.6201C108.61 77.0784 101.812 80.8209 101.812 80.8209L103.187 81.8902C103.187 81.8902 107.464 77.2311 114.414 78.224C123.198 79.4461 124.191 76.3146 124.191 76.3146L122.281 74.0996Z" fill="white"/>
<path opacity="0.2" d="M84.0923 65.087C85.4671 65.2398 86.6892 65.4689 87.6821 65.5453C85.3907 66.1563 82.4884 66.9965 79.9679 67.913C75.7671 69.517 73.6285 75.0162 73.6285 75.0162H73.5521L69.4277 72.7248L69.3513 72.6485C69.3513 72.6485 74.1631 68.2185 78.5931 66.5382C80.1206 65.9272 82.0301 65.4689 84.0923 65.087Z" fill="white"/>
<path opacity="0.2" d="M107.54 62.261C107.54 62.261 107.54 63.4831 104.791 64.7051C102.194 65.8508 95.3199 64.476 91.8065 64.7815C91.501 64.5524 91.1955 64.3232 90.89 64.0941C92.4939 63.865 94.0215 63.7122 95.2435 63.6358C99.5971 63.1776 101.583 60.8862 101.583 60.8862L107.54 62.261Z" fill="white"/>
<path opacity="0.5" d="M106.318 114.504C107.289 114.504 108.075 114.059 108.075 113.511C108.075 112.962 107.289 112.518 106.318 112.518C105.348 112.518 104.562 112.962 104.562 113.511C104.562 114.059 105.348 114.504 106.318 114.504Z" fill="#DA6951"/>
<path opacity="0.5" d="M101.43 115.344C102.105 115.344 102.652 115.036 102.652 114.656C102.652 114.277 102.105 113.969 101.43 113.969C100.755 113.969 100.208 114.277 100.208 114.656C100.208 115.036 100.755 115.344 101.43 115.344Z" fill="#DA6951"/>
<path opacity="0.5" d="M71.8718 117.864C72.4202 117.864 72.8647 117.591 72.8647 117.253C72.8647 116.916 72.4202 116.642 71.8718 116.642C71.3235 116.642 70.8789 116.916 70.8789 117.253C70.8789 117.591 71.3235 117.864 71.8718 117.864Z" fill="#DA6951"/>
<path opacity="0.5" d="M74.0104 116.184C74.9806 116.184 75.7671 115.876 75.7671 115.497C75.7671 115.117 74.9806 114.809 74.0104 114.809C73.0402 114.809 72.2537 115.117 72.2537 115.497C72.2537 115.876 73.0402 116.184 74.0104 116.184Z" fill="#DA6951"/>
<path opacity="0.5" d="M71.8718 114.962C72.1671 114.962 72.4064 114.825 72.4064 114.656C72.4064 114.488 72.1671 114.351 71.8718 114.351C71.5765 114.351 71.3372 114.488 71.3372 114.656C71.3372 114.825 71.5765 114.962 71.8718 114.962Z" fill="#DA6951"/>
<path opacity="0.5" d="M75.7671 114.656C76.0623 114.656 76.3017 114.52 76.3017 114.351C76.3017 114.182 76.0623 114.045 75.7671 114.045C75.4718 114.045 75.2324 114.182 75.2324 114.351C75.2324 114.52 75.4718 114.656 75.7671 114.656Z" fill="#DA6951"/>
<path opacity="0.5" d="M98.2223 114.656C98.5175 114.656 98.7569 114.52 98.7569 114.351C98.7569 114.182 98.5175 114.045 98.2223 114.045C97.927 114.045 97.6876 114.182 97.6876 114.351C97.6876 114.52 97.927 114.656 98.2223 114.656Z" fill="#DA6951"/>
<path opacity="0.5" d="M107.77 111.83C108.065 111.83 108.304 111.694 108.304 111.525C108.304 111.356 108.065 111.219 107.77 111.219C107.474 111.219 107.235 111.356 107.235 111.525C107.235 111.694 107.474 111.83 107.77 111.83Z" fill="#DA6951"/>
<path d="M121.288 169.114C119.99 167.586 119.226 165.219 119.226 162.545C119.226 159.643 120.219 157.046 121.67 155.595C124.114 159.185 125.413 161.629 125.642 162.698C125.947 163.92 123.885 166.746 121.288 169.114Z" fill="#00F0FF"/>
<path d="M59.8041 152.158C58.5057 153.457 57.0545 159.872 57.0545 159.872C56.5198 158.268 56.3671 157.046 56.3671 156.588C56.3671 156.053 56.8253 154.831 59.8041 152.158Z" fill="#00F0FF"/>
<path d="M120.983 244.805L122.281 246.638L126.635 244.499L125.871 242.361L120.983 244.805Z" fill="#00F0FF"/>
<path d="M61.2552 244.499L66.2198 245.874L66.9072 244.499L62.1718 242.437L61.2552 244.499Z" fill="#00F0FF"/>
<path d="M72.8647 176.599L73.7049 171.94C73.7049 171.94 87.0711 177.057 101.736 170.871L102.423 175.759C102.423 175.835 85.849 184.619 72.8647 176.599Z" fill="#FFA92E"/>
<path d="M80.2734 126.648C75.2324 124.586 70.6497 121.53 70.0387 119.392C69.9623 119.086 69.886 118.781 69.886 118.399C69.8096 117.406 69.9623 116.413 70.1915 115.344C70.497 114.045 70.9553 112.747 71.3371 111.448C71.0316 113.816 71.0316 116.489 71.9482 118.628C73.1702 121.836 79.9679 126.419 80.2734 126.648Z" fill="#FFFFD8"/>
<path opacity="0.42" d="M115.789 148.034C114.414 147.805 113.04 147.499 111.665 147.194C110.519 146.888 109.373 146.506 108.228 146.124C106.777 145.59 105.325 145.055 103.951 144.444C102.805 143.909 101.736 143.375 100.59 142.84C100.055 142.611 99.5971 142.305 99.0624 142C98.6805 141.847 98.375 141.618 97.9931 141.389C95.6254 140.014 93.4868 138.639 91.5774 137.264C91.501 137.264 91.4246 137.188 91.4246 137.112C90.5844 136.501 89.7443 135.89 88.9805 135.355C88.8277 135.202 88.5986 135.049 88.4459 134.973C88.3695 134.897 88.2931 134.897 88.2931 134.82C87.9876 134.591 87.7584 134.362 87.4529 134.209L87.3766 134.133C86.5364 133.446 85.7726 132.835 85.1616 132.3C84.7797 131.994 84.4742 131.765 84.2451 131.46C88.675 130.39 92.112 129.703 92.112 129.703C92.112 129.703 91.1191 130.772 90.5081 132.376C90.7372 132.223 90.89 132.147 90.9663 132.147L90.8136 132.376L94.5561 134.133L99.3679 132.3L99.979 132.605C101.965 131.231 101.048 130.39 100.972 130.314C100.972 130.314 101.048 130.39 101.201 130.467C102.194 131.001 106.166 133.369 107.006 134.209C107.388 134.515 107.617 136.73 107.846 139.556C109.373 141.083 111.13 142.84 112.887 144.749C113.269 145.131 113.498 145.437 113.651 145.666C114.185 146.201 114.644 146.812 115.178 147.346C115.407 147.575 115.56 147.805 115.789 148.034Z" fill="black" fill-opacity="0.15"/>
<path d="M106.013 190.576C105.02 191.722 103.187 194.395 101.048 200.353C99.6734 204.172 99.0624 208.372 98.9097 211.962C95.2435 206.387 91.4246 200.658 89.897 198.367H84.2451C84.2451 198.367 77.1419 216.239 75.9198 219.218C75.7671 219.6 75.6143 219.906 75.538 220.287C72.5592 211.428 71.9482 183.55 71.9482 183.55C79.8915 189.049 89.7443 187.139 95.0907 179.501C101.354 170.642 100.055 148.263 100.055 148.263L100.514 149.027C100.284 157.81 100.743 166.594 103.034 179.501C103.034 179.425 104.333 184.39 106.013 190.576Z" fill="black" fill-opacity="0.25"/>
<path opacity="0.41" d="M142.369 259.775C137.404 259.317 124.878 256.261 124.038 255.421C123.274 254.657 123.045 248.7 122.358 246.791C122.74 247.707 124.649 252.672 125.718 253.665C126.864 254.81 135.571 257.636 141.147 257.636C144.507 257.636 147.104 256.643 148.708 255.803C150.236 256.72 150.923 257.254 151.229 257.483C151.763 258.171 147.333 260.233 142.369 259.775Z" fill="#52004F"/>
<path opacity="0.41" d="M66.2198 245.874C65.6088 248.395 65.3033 255.039 64.7687 255.574C64.0813 256.261 56.9017 257.102 52.7773 258.476C48.7293 259.851 40.6332 260.768 40.6332 259.546C40.6332 259.546 44.9104 259.24 49.3403 257.865C53.7702 256.414 62.1718 255.039 63.3175 253.97C64.4632 252.824 66.2198 245.874 66.2198 245.874Z" fill="#52004F"/>
<path d="M114.109 234.876C114.109 234.876 109.297 224.87 111.283 220.669C112.734 217.614 117.546 220.746 117.546 220.746L119.226 222.655C119.226 222.655 116.018 220.517 113.88 222.197C111.207 224.336 114.109 234.876 114.109 234.876Z" fill="#00F0FF"/>
<path d="M66.2962 220.898L66.8309 217.309C66.8309 217.309 74.0104 225.634 74.0104 232.355L73.2466 234.112C73.2466 234.188 72.1009 228.918 66.2962 220.898Z" fill="#00F0FF"/>
<path d="M122.816 249.006C122.663 248.089 122.511 247.325 122.358 246.791C122.358 246.714 122.281 246.638 122.281 246.638C122.205 246.485 122.129 246.332 122.052 246.332C121.594 245.874 118.157 240.833 114.109 234.876C110.214 229.071 105.707 222.35 102.958 218.225C102.576 217.614 102.194 217.003 101.736 216.392C101.736 216.392 120.143 240.604 121.67 243.354C123.198 246.103 122.816 248.853 122.816 249.006Z" fill="#FFFFD8"/>
<path d="M61.7135 138.563C61.7135 138.563 69.4277 135.126 76.9891 134.209C85.849 133.14 91.1191 137.341 91.1191 137.341C91.1191 137.341 77.5238 131.536 61.7135 138.563Z" fill="url(#paint34_linear)"/>
<path d="M61.7135 138.563C61.7135 138.563 69.4277 135.126 76.9891 134.209C85.849 133.14 91.1191 137.341 91.1191 137.341C91.1191 137.341 77.5238 131.536 61.7135 138.563Z" fill="black" fill-opacity="0.25"/>
<path opacity="0.41" d="M104.18 175.835C104.333 175.683 107.082 172.704 109.297 170.489C111.588 168.198 114.338 162.469 114.338 161.629C114.338 161.094 111.512 158.039 107.922 154.984C106.547 153.838 105.096 152.693 103.569 151.7C108.075 154.449 116.018 159.72 117.851 163.004C120.296 167.434 104.638 175.606 104.18 175.835Z" fill="#52004F"/>
<path opacity="0.41" d="M87.1475 136.271C87.1475 136.271 76.6836 141.694 67.9765 147.194C60.1096 152.158 56.3671 156.664 56.3671 156.664C56.3671 156.13 56.8253 154.908 59.8041 152.234C61.4844 150.783 63.9285 148.797 67.5183 146.353C69.3514 145.055 71.2608 143.833 73.2466 142.611C73.323 142.611 73.3994 142.534 73.3994 142.458C73.6285 142.305 73.7813 142.229 74.0104 142.076C74.3159 141.923 74.6214 141.694 75.0033 141.465C78.5167 139.327 81.8774 137.341 84.7034 135.737L87.1475 136.271Z" fill="#52004F"/>
<path opacity="0.41" d="M103.034 179.425C103.034 179.425 99.5207 176.446 98.6042 170.031C97.6876 163.538 100.514 149.79 100.514 149.79C100.514 151.394 100.514 152.998 100.514 154.679C100.514 162.24 101.812 171.405 102.576 176.217L102.652 176.523C102.652 176.752 102.729 176.905 102.729 177.134C102.881 177.898 102.958 178.432 103.034 178.89C103.034 178.967 103.034 179.043 103.11 179.196V179.272L103.034 179.425Z" fill="black" fill-opacity="0.25"/>
<path d="M107.999 179.425C107.999 179.425 108.686 181.105 109.297 182.938C109.908 184.772 108.61 186.91 108.61 186.91L107.388 186.605L107.159 182.709L107.999 179.425Z" fill="#DA6951"/>
<path opacity="0.24" d="M103.034 179.425C103.034 179.425 100.972 186.452 103.034 192.409C105.096 198.367 108.686 200.505 108.686 200.505L103.034 179.425Z" fill="#AE004F"/>
<path d="M103.951 176.599L104.256 175.835L107.464 177.592C107.464 177.592 108.61 180.113 108.61 181.564C108.61 183.015 108.075 183.855 108.075 183.855L107.693 186.299C107.693 186.299 109.832 186.987 109.832 187.598C109.832 188.132 109.068 188.285 108.61 188.285C108.151 188.285 106.471 187.827 106.471 187.827L104.944 186.376L103.951 176.599Z" fill="#F08364"/>
<path d="M103.951 176.599C103.951 176.599 102.499 180.876 102.499 181.793C102.499 182.709 103.034 188.285 103.951 188.896C104.562 189.278 107.77 188.59 109.297 188.285C109.603 187.368 105.86 186.987 105.86 186.987C105.86 186.987 106.547 183.397 106.547 182.022C106.547 180.647 104.944 176.599 103.951 176.599Z" fill="url(#paint35_linear)"/>
<path d="M76.3018 97.0131C76.3018 97.0131 78.7459 100.297 79.6624 104.575C79.6624 104.575 78.364 97.8532 77.0655 96.5548L76.3018 97.0131Z" fill="#DA6951"/>
<path d="M69.7332 95.1036L69.4277 90.9028C69.4277 90.9028 75.6907 92.7359 77.8293 98.0824C77.7529 98.0824 74.6214 95.1036 69.7332 95.1036Z" fill="#701B08"/>
<path d="M84.5506 99.9154C82.8703 99.9154 65.3033 94.4925 65.3033 94.4925C65.3033 94.4925 64.3104 94.4925 63.7758 94.4925C64.0049 96.7839 67.06 109.615 70.0388 112.976C73.3994 116.719 81.2663 111.678 83.5577 109.31C85.849 106.942 94.4798 116.26 101.507 116.108C112.734 115.955 120.677 94.4162 120.677 94.4162C120.677 94.4162 119.761 94.2634 119.15 94.4162C114.414 95.4091 93.5632 99.6862 84.5506 99.9154ZM81.801 106.637C81.4191 109.997 76.4545 114.58 72.712 111.983C68.9695 109.463 67.06 100.068 69.3514 98.3878C70.8025 97.3185 82.412 100.679 81.801 106.637ZM102.958 113.893C97.4585 115.191 89.2097 109.539 90.4317 104.498C91.6538 99.4571 110.596 96.402 112.352 100.603C114.491 105.949 108.457 112.594 102.958 113.893Z" fill="#00F0FF"/>
<path d="M84.5506 99.9154C82.8703 99.9154 65.3033 94.4925 65.3033 94.4925C65.3033 94.4925 64.3104 94.4925 63.7758 94.4925C64.0049 96.7839 67.06 109.615 70.0388 112.976C73.3994 116.719 81.2663 111.678 83.5577 109.31C85.849 106.942 94.4798 116.26 101.507 116.108C112.734 115.955 120.677 94.4162 120.677 94.4162C120.677 94.4162 119.761 94.2634 119.15 94.4162C114.414 95.4091 93.5632 99.6862 84.5506 99.9154ZM81.801 106.637C81.4191 109.997 76.4545 114.58 72.712 111.983C68.9695 109.463 67.06 100.068 69.3514 98.3878C70.8025 97.3185 82.412 100.679 81.801 106.637ZM102.958 113.893C97.4585 115.191 89.2097 109.539 90.4317 104.498C91.6538 99.4571 110.596 96.402 112.352 100.603C114.491 105.949 108.457 112.594 102.958 113.893Z" fill="black" fill-opacity="0.25"/>
<path d="M103.492 97.395C96.0837 98.6171 87.8349 99.8391 83.023 99.9155C81.3427 99.9155 63.7758 94.4926 63.7758 94.4926C63.7758 94.4926 64.6159 103.123 66.5254 108.852C67.1364 110.608 67.8238 112.136 68.5876 112.976C71.9482 116.719 79.8152 111.678 82.1065 109.31C84.3978 106.942 93.0286 116.26 100.055 116.108C111.283 115.955 119.226 94.4163 119.226 94.4163C119.226 94.4163 111.894 95.9438 103.492 97.395ZM71.1844 111.983C70.3443 111.372 69.5805 110.456 68.8931 109.31C66.7545 105.567 66.0671 99.7627 67.8238 98.3879C69.275 97.2422 80.8845 100.603 80.2734 106.637C80.1971 107.401 79.8915 108.241 79.4333 109.004C77.753 111.678 74.0868 113.969 71.1844 111.983ZM101.43 113.893C96.542 115.038 89.5916 110.761 88.8278 106.255C88.7514 105.644 88.7514 105.109 88.9042 104.498C89.5916 101.672 96.0073 99.4572 101.736 98.8462C106.089 98.3879 110.061 98.8462 110.825 100.603C112.963 105.949 106.929 112.594 101.43 113.893Z" fill="#00F0FF"/>
<path d="M116.324 100.908H123.351L121.136 106.255L113.422 106.102L116.324 100.908Z" fill="#00F0FF"/>
<path d="M116.324 100.908H123.351L121.136 106.255L113.422 106.102L116.324 100.908Z" fill="black" fill-opacity="0.25"/>
<path opacity="0.5" d="M103.492 97.3949C102.958 97.9296 102.347 98.3878 101.736 98.9225C96.0073 99.5335 89.5915 101.748 88.9041 104.574C88.7513 105.185 88.7513 105.72 88.8277 106.331C85.6198 107.63 82.4119 108.47 79.3568 109.004C79.8151 108.241 80.1206 107.4 80.197 106.637C80.808 100.679 69.1985 97.3185 67.7473 98.3878C65.9906 99.6863 66.7544 105.491 68.8166 109.31C67.9765 109.157 67.1363 109.004 66.3725 108.852C64.4631 103.123 63.6229 94.4926 63.6229 94.4926C63.6229 94.4926 81.1899 99.9154 82.8702 99.9154C87.8348 99.7626 96.0836 98.617 103.492 97.3949Z" fill="#FFFFD8"/>
<path d="M111.818 97.2422L114.567 100.145L117.47 95.791L111.818 97.2422Z" fill="#FFA92E"/>
<path d="M65.1505 98.5406L67.4419 96.5548L64.6923 95.791L65.1505 98.5406Z" fill="#FFA92E"/>
<path d="M270.459 133.02H182.707C177.287 133.02 175.822 152.065 181.242 152.065H268.994C261.962 151.919 263.427 133.02 270.459 133.02Z" fill="#BCB23C"/>
<path d="M178.019 142.104C188.274 143.276 201.605 143.276 216.108 141.957C234.567 140.346 250.975 136.83 261.083 132.874H182.853C180.07 133.021 178.458 137.562 178.019 142.104Z" fill="#D8CA50"/>
<path d="M333.453 135.218H270.459C259.325 135.218 258.153 149.721 269.287 149.721H332.282C326.275 147.817 325.543 137.562 333.453 135.218Z" fill="#EADDBE"/>
<path d="M281.886 140.492H328.033C328.766 138.148 330.377 136.097 333.453 135.218H270.459C259.325 135.218 258.153 149.721 269.287 149.721H273.096C272.217 145.619 275.294 140.492 281.886 140.492Z" fill="#D8C59E"/>
<path d="M333.014 133.02H263.428L263.135 136.39H332.721C333.6 136.39 334.333 135.657 334.479 134.778C334.479 133.753 333.893 133.02 333.014 133.02Z" fill="#9E932A"/>
<path d="M331.842 148.696H262.255L261.962 152.065H331.549C332.428 152.065 333.161 151.333 333.307 150.454C333.454 149.428 332.721 148.696 331.842 148.696Z" fill="#9E932A"/>
<path d="M270.459 133.02H262.255C257.714 136.243 256.835 148.696 260.79 152.065H268.848C261.962 151.919 263.427 133.02 270.459 133.02Z" fill="#9E932A"/>
<path d="M335.701 153.823H265.822C253.516 153.823 249.853 202.168 262.306 202.168H332.185C325.739 195.722 326.618 161.441 335.701 153.823Z" fill="#EADDBE"/>
<path d="M286.331 165.104H329.988C331.306 160.123 333.064 155.875 335.555 153.677H265.675C253.369 153.677 249.707 202.022 262.159 202.022H275.344C273.732 187.372 277.981 165.104 286.331 165.104Z" fill="#D8C59E"/>
<path d="M270.07 151.48H172.649C153.311 150.747 151.114 203.926 170.451 204.659H267.873C251.318 203.926 253.516 150.747 270.07 151.48Z" fill="#FFB94A"/>
<path d="M172.649 151.479C161.954 151.04 156.534 167.155 157.12 181.805C169.865 184.442 189.789 183.416 211.471 178.435C232.713 173.454 250.732 165.836 261.28 158.072C263.038 154.849 265.236 152.651 267.873 151.919C268.019 151.772 268.019 151.772 268.166 151.626H172.649V151.479Z" fill="#FFCE61"/>
<path d="M336.434 151.479H258.936L258.203 156.46H335.701C336.727 156.46 337.752 155.288 337.899 153.97C338.045 152.505 337.459 151.479 336.434 151.479Z" fill="#EFA02E"/>
<path d="M334.676 200.263H257.471L256.739 204.658H333.943C334.969 204.658 335.994 203.633 336.141 202.461C336.434 201.142 335.701 200.263 334.676 200.263Z" fill="#EFA02E"/>
<path d="M270.07 151.48H256.885C247.509 161.149 246.337 194.99 255.42 204.659H267.873C251.318 203.926 253.516 150.747 270.07 151.48Z" fill="#EFA02E"/>
<path opacity="0.64" d="M238.573 156.167H180.12C164.298 155.581 162.54 199.091 178.362 199.677H237.401C228.025 191.62 228.904 164.371 238.573 156.167ZM231.394 196.015H182.464C169.279 195.429 170.744 159.39 183.929 159.976H232.42C224.509 166.715 223.63 189.276 231.394 196.015Z" fill="#FFF7E6"/>
<path d="M296.879 180.926C311.605 180.926 323.542 180.729 323.542 180.486C323.542 180.244 311.605 180.047 296.879 180.047C282.154 180.047 270.216 180.244 270.216 180.486C270.216 180.729 282.154 180.926 296.879 180.926Z" fill="#D8C59E"/>
<path d="M296.733 171.989C311.458 171.989 323.395 171.793 323.395 171.55C323.395 171.307 311.458 171.11 296.733 171.11C282.007 171.11 270.07 171.307 270.07 171.55C270.07 171.793 282.007 171.989 296.733 171.989Z" fill="#D8C59E"/>
<path d="M285.306 193.085C297.847 193.085 308.013 192.888 308.013 192.645C308.013 192.403 297.847 192.206 285.306 192.206C272.765 192.206 262.599 192.403 262.599 192.645C262.599 192.888 272.765 193.085 285.306 193.085Z" fill="#D8C59E"/>
<path d="M293.174 203.779H177.587C170.408 203.779 159.421 239.085 166.599 239.085H282.186C272.957 239.085 283.798 203.779 293.174 203.779Z" fill="#3E526A"/>
<path d="M167.185 219.894C178.173 224.435 198.536 225.9 221.39 223.264C248.199 220.187 270.32 212.13 277.498 203.926H177.44C174.217 203.779 169.969 211.544 167.185 219.894Z" fill="#4D6684"/>
<path d="M374.92 207.881H292.002C277.352 207.881 269.001 234.837 283.651 234.837H366.569C359.537 231.321 363.493 212.13 374.92 207.881Z" fill="#EADDBE"/>
<path d="M313.097 215.939H366.13C368.181 212.423 371.111 209.346 374.92 207.881H292.002C277.352 207.881 269.001 234.837 283.651 234.837H300.791C292.002 231.468 300.059 215.939 313.097 215.939Z" fill="#D8C59E"/>
<path d="M375.359 203.779H283.651L281.747 210.079H373.455C374.627 210.079 375.945 208.614 376.531 207.002C377.117 205.098 376.531 203.779 375.359 203.779Z" fill="#3E526A"/>
<path d="M366.716 232.786H275.008L273.104 239.085H364.811C365.983 239.085 367.302 237.62 367.888 236.009C368.474 234.251 367.888 232.786 366.716 232.786Z" fill="#3E526A"/>
<path d="M295.371 203.779H282.186C272.225 208.76 262.409 234.104 268.562 239.085H281.747C270.32 239.085 283.944 203.779 295.371 203.779Z" fill="#3E526A"/>
<path d="M257.868 234.984H176.415C175.682 234.984 174.803 234.691 174.217 233.665C173.924 232.933 173.631 232.054 173.631 230.882C173.631 224.143 180.077 207.881 185.644 207.881H267.83L266.511 208.907C261.384 213.302 255.377 229.856 257.428 234.105L257.868 234.984ZM185.791 209.053C181.835 209.053 175.243 223.996 175.243 230.882C175.243 231.907 175.389 232.64 175.682 233.079C175.975 233.665 176.268 233.665 176.561 233.665H255.963C254.645 228.391 259.626 214.474 264.607 209.053H185.791Z" fill="#EADDBE"/>
<path d="M317.346 227.366C336.279 227.366 351.627 227.103 351.627 226.78C351.627 226.456 336.279 226.194 317.346 226.194C298.413 226.194 283.065 226.456 283.065 226.78C283.065 227.103 298.413 227.366 317.346 227.366Z" fill="#D8C59E"/>
<path d="M320.715 220.041C341.104 220.041 357.633 219.778 357.633 219.455C357.633 219.131 341.104 218.869 320.715 218.869C300.326 218.869 283.798 219.131 283.798 219.455C283.798 219.778 300.326 220.041 320.715 220.041Z" fill="#D8C59E"/>
<path d="M202.518 237.181H31.9936C21.4457 237.181 26.1337 265.601 36.6815 265.601H207.352C193.581 265.601 188.893 237.181 202.518 237.181Z" fill="#EA2856"/>
<path d="M99.0881 255.2C140.694 252.27 176.586 245.238 194.752 237.327H31.9919C25.839 237.327 24.8136 246.85 27.1575 254.907C46.6418 256.812 71.693 256.958 99.0881 255.2Z" fill="#FF4569"/>
<path d="M325.721 240.55H203.395C181.713 240.55 185.375 262.378 207.057 262.378H329.383C316.931 259.448 311.51 244.066 325.721 240.55Z" fill="#EADDBE"/>
<path d="M227.567 250.219H317.37C316.931 246.117 319.421 242.015 325.721 240.55H203.395C181.713 240.55 185.375 262.378 207.057 262.378H213.503C211.599 256.518 215.994 250.219 227.567 250.219Z" fill="#D8C59E"/>
<path d="M324.402 237.18H191.529L192.261 242.161H325.135C326.893 242.161 328.065 240.989 327.772 239.671C327.625 238.352 326.16 237.18 324.402 237.18Z" fill="#B7204B"/>
<path d="M328.065 260.62H195.191L195.923 265.601H328.797C330.555 265.601 331.727 264.429 331.434 263.111C331.288 261.792 329.823 260.62 328.065 260.62Z" fill="#B7204B"/>
<path d="M202.516 237.18H188.306C179.809 241.575 183.032 261.206 192.994 265.601H207.204C193.58 265.601 188.892 237.18 202.516 237.18Z" fill="#B7204B"/>
<path opacity="0.82" d="M132.343 239.671H46.6418C37.8519 239.671 41.8074 263.111 50.4508 263.111H136.152C129.267 260.181 126.483 242.601 132.343 239.671Z" fill="#FEFFF4"/>
<path opacity="0.82" d="M164.28 239.671H150.363C141.573 239.671 145.528 263.111 154.172 263.111H168.089C162.083 258.862 159.592 243.919 164.28 239.671Z" fill="#FEFFF4"/>
<path d="M255.988 254.321C283.254 254.321 305.358 254.058 305.358 253.735C305.358 253.411 283.254 253.149 255.988 253.149C228.721 253.149 206.618 253.411 206.618 253.735C206.618 254.058 228.721 254.321 255.988 254.321Z" fill="#D8C59E"/>
<path d="M254.376 257.837C281.643 257.837 303.746 257.575 303.746 257.251C303.746 256.927 281.643 256.665 254.376 256.665C227.11 256.665 205.006 256.927 205.006 257.251C205.006 257.575 227.11 257.837 254.376 257.837Z" fill="#D8C59E"/>
<path d="M288.625 96.2493H273.536L288.039 131.702H306.498L288.625 96.2493Z" fill="#BC9E7D"/>
<path d="M318.071 0.146606H256.689C250.975 0.146606 246.434 4.68805 246.434 10.4015V99.7654C246.434 105.479 250.975 110.02 256.689 110.02H318.071C323.785 110.02 328.326 105.479 328.326 99.7654V10.4015C328.326 4.68805 323.785 0.146606 318.071 0.146606Z" fill="#DBC1A2"/>
<path d="M328.326 92.001V8.9365C328.326 4.10206 324.371 0.146606 319.536 0.146606H255.37C250.536 0.146606 246.58 4.10206 246.58 8.9365V92.001H328.326Z" fill="#2D2222"/>
<path d="M285.256 96.2493H270.167L284.67 131.702H303.275L285.256 96.2493Z" fill="#DBC1A2"/>
<path d="M297.415 119.249L285.256 96.2493H270.167L280.275 120.861L297.415 119.249Z" fill="#BC9E7D"/>
<path d="M308.402 0.146606H247.02C241.306 0.146606 236.765 4.68805 236.765 10.4015V99.7654C236.765 105.479 241.306 110.02 247.02 110.02H308.402C314.116 110.02 318.657 105.479 318.657 99.7654V10.4015C318.657 4.68805 314.116 0.146606 308.402 0.146606Z" fill="#EADDBE"/>
<path d="M249.071 110.02H284.377L303.861 0.146606H277.491L249.071 110.02Z" fill="#F4E8D0"/>
<path d="M318.218 3.66248C318.364 4.24847 318.364 4.98096 318.364 5.71345V101.084C318.364 105.039 316.606 108.409 314.409 108.409H241.453C239.255 108.409 237.497 105.186 237.497 101.084V5.71345C237.497 4.98096 237.497 4.39497 237.644 3.66248C237.204 4.83446 237.058 6.15294 237.058 7.61792V102.988C237.058 106.944 238.816 110.313 241.013 110.313H314.995C317.192 110.313 318.95 107.09 318.95 102.988V7.61792C318.804 6.15294 318.511 4.83446 318.218 3.66248Z" fill="#F2E6CC"/>
<path d="M305.912 129.211H287.746V132.727H307.523L305.912 129.211Z" fill="#EADDBE"/>
<path d="M288.039 129.211H267.529V132.727H288.039V129.211Z" fill="#F4E8D0"/>
<path d="M315.288 0.146606H240.867C238.669 0.146606 236.911 3.36957 236.911 7.47152V92.1475H319.39V7.47152C319.243 3.36957 317.486 0.146606 315.288 0.146606Z" fill="#3F3131"/>
<path d="M287.6 92.001L303.861 0.146606H277.491L253.759 92.001H287.6Z" fill="#493A3A"/>
<path d="M240.427 2.92997H314.995C316.606 2.92997 317.925 4.68794 318.657 7.03191C318.511 3.22295 316.899 0 314.702 0H240.72C238.523 0 236.911 3.07646 236.765 7.03191C237.497 4.68794 238.816 2.92997 240.427 2.92997Z" fill="#5B4A4A"/>
<path d="M315.581 6.4458H240.134V92.0008H315.581V6.4458Z" fill="#56B1D1"/>
<path d="M314.409 7.91077H241.013V90.6823H314.409V7.91077Z" fill="#8EDBED"/>
<path d="M302.543 7.91077H269.288L253.026 90.6823H286.281L302.543 7.91077Z" fill="#A5EDF9"/>
<path d="M284.084 101.377H271.485C271.045 101.377 270.752 101.67 270.752 102.109V102.256C270.752 102.695 271.045 102.988 271.485 102.988H284.084C284.523 102.988 284.816 102.695 284.816 102.256V102.109C284.816 101.816 284.523 101.377 284.084 101.377Z" fill="#DBC1A2"/>
<path d="M311.186 20.0701H241.746V82.3318H311.186V20.0701Z" fill="#F4E8D0"/>
<path d="M307.523 30.1787H243.65V71.3447H307.523V30.1787Z" fill="#564242"/>
<path d="M280.421 46.5865H270.752C269.58 46.5865 268.555 47.612 268.555 48.784V53.472C268.555 54.644 269.58 55.6694 270.752 55.6694H280.421C281.593 55.6694 282.619 54.644 282.619 53.472V48.784C282.619 47.612 281.593 46.5865 280.421 46.5865Z" fill="#ED4848"/>
<path d="M273.682 48.6375V54.2044L277.345 51.4209L273.682 48.6375Z" fill="#F4E8D0"/>
<defs>
<linearGradient id="paint0_linear" x1="215.489" y1="130.722" x2="215.856" y2="133.781" gradientUnits="userSpaceOnUse">
<stop offset="0.4575" stop-color="#E5E0DF"/>
<stop offset="1" stop-color="#8CA99C"/>
</linearGradient>
<linearGradient id="paint1_linear" x1="217.19" y1="130.722" x2="217.557" y2="133.781" gradientUnits="userSpaceOnUse">
<stop offset="0.4575" stop-color="#E5E0DF"/>
<stop offset="1" stop-color="#8CA99C"/>
</linearGradient>
<linearGradient id="paint2_linear" x1="196.645" y1="130.722" x2="197.012" y2="133.78" gradientUnits="userSpaceOnUse">
<stop offset="0.4575" stop-color="#E5E0DF"/>
<stop offset="1" stop-color="#8CA99C"/>
</linearGradient>
<linearGradient id="paint3_linear" x1="198.346" y1="130.722" x2="198.713" y2="133.781" gradientUnits="userSpaceOnUse">
<stop offset="0.4575" stop-color="#E5E0DF"/>
<stop offset="1" stop-color="#8CA99C"/>
</linearGradient>
<linearGradient id="paint4_linear" x1="207.091" y1="87.5892" x2="207.091" y2="108.606" gradientUnits="userSpaceOnUse">
<stop offset="0.6933" stop-color="#E5E0DF"/>
<stop offset="1" stop-color="#727876"/>
</linearGradient>
<linearGradient id="paint5_linear" x1="205.266" y1="112.191" x2="213.817" y2="112.191" gradientUnits="userSpaceOnUse">
<stop offset="0.6933" stop-color="#E5E0DF"/>
<stop offset="1" stop-color="#727876"/>
</linearGradient>
<linearGradient id="paint6_linear" x1="208.909" y1="127.407" x2="209.863" y2="135.364" gradientUnits="userSpaceOnUse">
<stop offset="0.4575" stop-color="#E5E0DF"/>
<stop offset="1" stop-color="#8CA99C"/>
</linearGradient>
<linearGradient id="paint7_linear" x1="209.258" y1="127.365" x2="210.212" y2="135.322" gradientUnits="userSpaceOnUse">
<stop offset="0.4575" stop-color="#E5E0DF"/>
<stop offset="1" stop-color="#8CA99C"/>
</linearGradient>
<linearGradient id="paint8_linear" x1="203.891" y1="127.407" x2="204.844" y2="135.364" gradientUnits="userSpaceOnUse">
<stop offset="0.4575" stop-color="#E5E0DF"/>
<stop offset="1" stop-color="#8CA99C"/>
</linearGradient>
<linearGradient id="paint9_linear" x1="204.24" y1="127.365" x2="205.194" y2="135.322" gradientUnits="userSpaceOnUse">
<stop offset="0.4575" stop-color="#E5E0DF"/>
<stop offset="1" stop-color="#8CA99C"/>
</linearGradient>
<linearGradient id="paint10_linear" x1="188.878" y1="104.238" x2="203.402" y2="125.715" gradientUnits="userSpaceOnUse">
<stop offset="0.4575" stop-color="#E5E0DF"/>
<stop offset="1" stop-color="#454949"/>
</linearGradient>
<linearGradient id="paint11_linear" x1="196.442" y1="116.786" x2="208.94" y2="122.417" gradientUnits="userSpaceOnUse">
<stop offset="0.4575" stop-color="#E5E0DF"/>
<stop offset="1" stop-color="#454949"/>
</linearGradient>
<linearGradient id="paint12_linear" x1="225.304" y1="104.239" x2="210.781" y2="125.715" gradientUnits="userSpaceOnUse">
<stop offset="0.4575" stop-color="#E5E0DF"/>
<stop offset="1" stop-color="#454949"/>
</linearGradient>
<linearGradient id="paint13_linear" x1="217.741" y1="116.785" x2="205.243" y2="122.416" gradientUnits="userSpaceOnUse">
<stop offset="0.4575" stop-color="#E5E0DF"/>
<stop offset="1" stop-color="#454949"/>
</linearGradient>
<linearGradient id="paint14_linear" x1="201.678" y1="114.926" x2="213.697" y2="114.926" gradientUnits="userSpaceOnUse">
<stop offset="0.6933" stop-color="#E5E0DF"/>
<stop offset="1" stop-color="#B2B8B4"/>
</linearGradient>
<linearGradient id="paint15_linear" x1="201.317" y1="116.746" x2="212.351" y2="121.718" gradientUnits="userSpaceOnUse">
<stop offset="0.4575" stop-color="#E5E0DF"/>
<stop offset="1" stop-color="#454949"/>
</linearGradient>
<linearGradient id="paint16_linear" x1="198.915" y1="124.256" x2="211.082" y2="124.256" gradientUnits="userSpaceOnUse">
<stop offset="0.4575" stop-color="#E5E0DF"/>
<stop offset="1" stop-color="#454949"/>
</linearGradient>
<linearGradient id="paint17_linear" x1="54.2284" y1="129.779" x2="54.2284" y2="214.071" gradientUnits="userSpaceOnUse">
<stop stop-color="#D85855"/>
<stop offset="1" stop-color="#6E2287"/>
</linearGradient>
<linearGradient id="paint18_linear" x1="64.654" y1="129.779" x2="64.654" y2="201.269" gradientUnits="userSpaceOnUse">
<stop stop-color="#D85855"/>
<stop offset="1" stop-color="#6E2287"/>
</linearGradient>
<linearGradient id="paint19_linear" x1="73.7026" y1="174.771" x2="73.7026" y2="132.157" gradientUnits="userSpaceOnUse">
<stop stop-color="#40133E"/>
<stop offset="1" stop-color="#31145E"/>
</linearGradient>
<linearGradient id="paint20_linear" x1="95.5657" y1="128.887" x2="95.5657" y2="71.3748" gradientUnits="userSpaceOnUse">
<stop stop-color="#FFBD8B"/>
<stop offset="1" stop-color="#FF8B6F"/>
</linearGradient>
<linearGradient id="paint21_linear" x1="113.407" y1="69.963" x2="113.407" y2="55.7879" gradientUnits="userSpaceOnUse">
<stop stop-color="#611D27"/>
<stop offset="1" stop-color="#BF5726"/>
</linearGradient>
<linearGradient id="paint22_linear" x1="93.2335" y1="89.7054" x2="93.2335" y2="59.7556" gradientUnits="userSpaceOnUse">
<stop stop-color="#611D27"/>
<stop offset="1" stop-color="#BF5726"/>
</linearGradient>
<linearGradient id="paint23_linear" x1="71.8621" y1="183.882" x2="71.8621" y2="173.324" gradientUnits="userSpaceOnUse">
<stop stop-color="#FFBD8B"/>
<stop offset="1" stop-color="#FF8B6F"/>
</linearGradient>
<linearGradient id="paint24_linear" x1="34.4847" y1="144.52" x2="34.4847" y2="221.815" gradientUnits="userSpaceOnUse">
<stop stop-color="#D85855"/>
<stop offset="1" stop-color="#6E2287"/>
</linearGradient>
<linearGradient id="paint25_linear" x1="87.4409" y1="198.303" x2="87.4409" y2="132.323" gradientUnits="userSpaceOnUse">
<stop stop-color="#40133E"/>
<stop offset="1" stop-color="#43487E"/>
</linearGradient>
<linearGradient id="paint26_linear" x1="62.4257" y1="260.139" x2="62.4257" y2="183.507" gradientUnits="userSpaceOnUse">
<stop stop-color="#40133E"/>
<stop offset="1" stop-color="#43487E"/>
</linearGradient>
<linearGradient id="paint27_linear" x1="120.173" y1="259.861" x2="120.173" y2="179.454" gradientUnits="userSpaceOnUse">
<stop stop-color="#40133E"/>
<stop offset="1" stop-color="#43487E"/>
</linearGradient>
<linearGradient id="paint28_linear" x1="24.2118" y1="147.193" x2="24.2118" y2="221.891" gradientUnits="userSpaceOnUse">
<stop stop-color="#D85855"/>
<stop offset="1" stop-color="#6E2287"/>
</linearGradient>
<linearGradient id="paint29_linear" x1="112.392" y1="177.54" x2="112.392" y2="133.179" gradientUnits="userSpaceOnUse">
<stop stop-color="#40133E"/>
<stop offset="1" stop-color="#43487E"/>
</linearGradient>
<linearGradient id="paint30_linear" x1="99.4825" y1="134.133" x2="99.4825" y2="137.264" gradientUnits="userSpaceOnUse">
<stop stop-color="#D85855"/>
<stop offset="1" stop-color="#6E2287"/>
</linearGradient>
<linearGradient id="paint31_linear" x1="99.0827" y1="130.39" x2="99.0827" y2="137.341" gradientUnits="userSpaceOnUse">
<stop stop-color="#D85855"/>
<stop offset="1" stop-color="#6E2287"/>
</linearGradient>
<linearGradient id="paint32_linear" x1="76.9127" y1="129.626" x2="76.9127" y2="138.486" gradientUnits="userSpaceOnUse">
<stop stop-color="#D85855"/>
<stop offset="1" stop-color="#6E2287"/>
</linearGradient>
<linearGradient id="paint33_linear" x1="96.9177" y1="84.1417" x2="96.9177" y2="73.7527" gradientUnits="userSpaceOnUse">
<stop stop-color="#611D27"/>
<stop offset="1" stop-color="#BF5726"/>
</linearGradient>
<linearGradient id="paint34_linear" x1="76.4163" y1="134.035" x2="76.4163" y2="138.563" gradientUnits="userSpaceOnUse">
<stop stop-color="#D85855"/>
<stop offset="1" stop-color="#6E2287"/>
</linearGradient>
<linearGradient id="paint35_linear" x1="105.887" y1="188.998" x2="105.887" y2="176.617" gradientUnits="userSpaceOnUse">
<stop stop-color="#FFBD8B"/>
<stop offset="1" stop-color="#FF8B6F"/>
</linearGradient>
</defs>
</svg>
