<svg width="260" height="135" viewBox="0 0 260 135" fill="none" xmlns="http://www.w3.org/2000/svg">
<g clip-path="url(#clip0)">
<rect width="260" height="135" fill="url(#paint0_linear)"/>
<path opacity="0.3" d="M206.559 58.8782C205.241 61.7034 202.792 63.3492 201.087 62.5543C199.382 61.7593 199.068 58.8246 200.385 55.9994C201.703 53.1742 227.72 5.43933 227.72 5.43933C227.72 5.43933 207.876 56.053 206.559 58.8782Z" fill="url(#paint1_linear)"/>
<path opacity="0.1" d="M230.375 42.1216C229.645 43.6866 227.672 44.3108 225.967 43.5159C224.262 42.721 223.472 40.8079 224.202 39.2429C224.931 37.6779 240.72 11.8778 240.72 11.8778C240.72 11.8778 231.105 40.5566 230.375 42.1216Z" fill="url(#paint2_linear)"/>
<path opacity="0.1" d="M200.505 34.0902C199.88 35.4296 197.723 35.7456 195.687 34.796C193.651 33.8465 192.506 31.991 193.131 30.6516C193.755 29.3123 208.313 7.71936 208.313 7.71936C208.313 7.71936 201.13 32.7509 200.505 34.0902Z" fill="url(#paint3_linear)"/>
<path d="M241.411 106.158C251.518 93.7019 249.615 75.4099 237.158 65.302C224.702 55.1941 206.41 57.0979 196.302 69.5543C186.194 82.0107 188.098 100.303 200.554 110.411C213.011 120.519 231.303 118.615 241.411 106.158Z" fill="#FDB125"/>
<path opacity="0.4" d="M209.79 60.3169C208.167 64.2113 205.571 67.7812 202.488 70.7832C199.567 73.5418 195.754 76.0569 191.697 77.6796C190.561 80.6816 189.912 83.8458 189.831 87.0101C199.892 86.361 209.709 78.8155 214.902 70.9455C217.254 67.3756 219.121 63.1566 219.121 58.8564C215.956 58.8564 212.792 59.3433 209.79 60.3169Z" fill="#FADCCB"/>
<path opacity="0.4" d="M224.719 59.4243C224.475 72.6492 212.386 84.6571 200.946 89.6875C197.539 91.1479 193.888 92.2026 190.237 92.5272C190.724 95.3669 191.535 98.1254 192.833 100.641C203.299 103.561 214.739 99.0991 222.772 92.2026C230.561 85.4685 236.808 75.3267 236.402 64.6981C232.913 62.0206 228.857 60.3168 224.719 59.4243Z" fill="#FADCCB"/>
<path opacity="0.4" d="M231.94 67.0509C231.94 69.4849 231.129 72.7303 231.129 75.1643C231.94 72.7303 234.374 71.1076 233.563 68.6736L234.374 69.4849C234.78 67.7 235.185 65.915 235.672 64.1301C233.644 62.6696 231.534 61.5338 229.344 60.7224C227.559 67.8622 222.691 74.5153 219.851 80.8437C223.826 75.9757 227.883 71.919 231.94 67.0509Z" fill="#FADCCB"/>
<path d="M212.224 92.2028C209.465 93.0953 207.843 92.5273 205.165 92.2839C202.082 91.9594 200.865 93.5009 199.811 94.8802C198.35 95.6104 194.537 98.1256 193.563 98.2879C192.833 98.4501 195.673 99.4238 197.782 99.8294C210.926 105.184 220.824 89.6065 223.907 85.5498C224.232 85.1441 218.634 90.1744 212.224 92.2028Z" fill="#FDB125"/>
<path opacity="0.5" d="M204.192 99.3426C205.581 99.3426 206.707 98.2165 206.707 96.8274C206.707 95.4383 205.581 94.3123 204.192 94.3123C202.803 94.3123 201.677 95.4383 201.677 96.8274C201.677 98.2165 202.803 99.3426 204.192 99.3426Z" fill="white"/>
<path opacity="0.4" d="M241.919 70.2153C239.648 87.4158 223.826 102.831 207.437 106.401C204.03 107.131 200.46 107.294 197.052 106.888C198.107 108.105 199.324 109.322 200.622 110.377C213.035 120.438 231.372 118.571 241.433 106.158C250.114 95.5293 249.952 80.6005 241.919 70.2153Z" fill="#FADCCB"/>
<path opacity="0.7" d="M214.09 111.675C215.713 110.052 217.336 109.241 218.958 108.43C213.928 109.403 209.303 111.999 204.516 112.973C212.062 117.273 221.068 117.922 228.938 115.001C233.644 109.809 236.97 102.994 238.431 96.1782C231.94 102.75 224.638 111.675 214.09 111.675Z" fill="#FADCCB"/>
<path opacity="0.5" d="M215.35 82.4643C220.265 76.8212 220.716 69.1689 216.357 65.3724C211.998 61.5758 204.48 63.0727 199.565 68.7157C194.65 74.3588 194.199 82.0111 198.558 85.8076C202.917 89.6042 210.435 88.1073 215.35 82.4643Z" fill="white"/>
<path opacity="0.2" d="M238.918 108.988C247.092 100.813 249.07 89.5372 243.335 83.8022C237.6 78.0673 226.324 80.0451 218.15 88.2197C209.975 96.3944 207.997 107.67 213.732 113.405C219.467 119.14 230.743 117.162 238.918 108.988Z" fill="#9B3B17"/>
<path opacity="0.5" d="M195.997 87.8215C197.376 79.5458 201.109 71.838 207.518 66.3209C213.198 61.3717 222.69 60.7226 229.911 60.966C218.39 56.2602 204.678 59.3433 196.403 69.5662C186.748 81.493 188.046 98.7746 199.161 109.079C195.835 102.02 194.942 93.9877 195.997 87.8215Z" fill="white"/>
<path d="M159.866 13.4327C159.866 9.32779 156.538 6.00012 152.433 6.00012C148.328 6.00012 145 9.32779 145 13.4327C145 17.5376 148.328 20.8652 152.433 20.8652C156.538 20.8652 159.866 17.5376 159.866 13.4327Z" fill="url(#paint4_radial)"/>
<path d="M35.8652 83.4327C35.8652 79.3278 32.5375 76.0001 28.4326 76.0001C24.3277 76.0001 21.0001 79.3278 21.0001 83.4327C21.0001 87.5376 24.3277 90.8652 28.4326 90.8652C32.5375 90.8652 35.8652 87.5376 35.8652 83.4327Z" fill="url(#paint5_radial)"/>
<path d="M0 99.9845H260C208.5 86.5034 197 95.3388 131 88.8051C93.8 85.1225 46.5 94.9845 0 99.9845Z" fill="#F8FBFF"/>
<rect x="-8" y="99" width="275" height="62" fill="#F8FBFF"/>
<path d="M37.488 38.2C33.552 38.2 30.888 38.2 27 38.2C27 43.768 27 49.384 27 55C30.888 55 33.768 55 37.704 55C37.704 53.728 37.704 52.432 37.704 51.184C35.184 51.184 33.744 51.184 31.272 51.184C31.272 50.176 31.272 49.216 31.272 48.232H36.984C36.984 46.96 36.984 45.688 36.984 44.416H31.272V42.04C33.744 42.04 34.992 42.04 37.488 42.04C37.488 40.744 37.488 39.448 37.488 38.2ZM55.5026 55.024H57.0386V38.2C55.5746 38.2 54.1106 38.2 52.6466 38.2V46.432L44.1506 38.128H42.5906V55C44.0546 55 45.5426 55 47.0306 55V46.744L55.5026 55.024ZM61.4852 46.6C61.5092 52.336 65.8292 55.1919 70.1012 55.1919C73.1972 55.1919 76.3892 53.848 77.5892 50.344C78.1652 48.712 78.1652 47.104 78.0692 45.424H70.1252V49.144H73.7012C72.9332 50.752 71.8292 51.208 70.1012 51.208C67.5572 51.208 65.9252 49.384 65.9252 46.6C65.9252 44.032 67.3892 41.92 70.1012 41.92C71.8052 41.92 72.9092 42.496 73.6052 43.936H77.8292C77.0132 39.76 73.4852 38.008 70.1012 37.984C65.8292 37.984 61.5092 40.864 61.4852 46.6ZM86.9741 38.2C85.5101 38.2 84.0941 38.2 82.6541 38.2V55C86.0621 55 89.6141 55 93.0701 55C93.0701 53.56 93.0701 52.576 93.0701 51.136H86.9741C86.9741 43.984 86.9741 46.888 86.9741 38.2ZM102.206 51.232V41.944H104.174C104.174 40.504 104.174 39.616 104.174 38.2C101.438 38.2 98.7261 38.2 95.9901 38.2C95.9901 39.616 95.9901 40.504 95.9901 41.944H97.9581V51.232H95.8221C95.8221 52.648 95.8221 53.536 95.8221 55C98.6781 55 101.486 55 104.342 55C104.342 53.536 104.342 52.648 104.342 51.232H102.206ZM111.328 49.864C109.864 49.864 108.616 49.864 107.176 49.864C107.08 57.256 120.76 57.064 120.76 50.008C120.76 45.808 117.496 45.376 114.16 45.016C112.648 44.848 111.4 44.584 111.496 43.312C111.64 41.32 116.152 41.1279 116.152 43.36C117.616 43.36 118.72 43.36 120.232 43.36C120.328 36.1119 107.272 36.1119 107.416 43.36C107.464 47.008 109.864 48.256 113.512 48.52C115.192 48.616 116.584 48.808 116.584 49.984C116.584 51.952 111.328 52 111.328 49.864ZM139.106 38.2C137.642 38.2 136.178 38.2 134.714 38.2V44.2959H129.53V38.2C128.066 38.2 126.578 38.2 125.138 38.2V55C126.578 55 128.066 55 129.53 55V48.2559H134.714V55C136.178 55 137.642 55 139.106 55V38.2Z" fill="#FF77CF"/>
<path d="M37.488 36.2C33.552 36.2 30.888 36.2 27 36.2C27 41.768 27 47.384 27 53C30.888 53 33.768 53 37.704 53C37.704 51.728 37.704 50.432 37.704 49.184C35.184 49.184 33.744 49.184 31.272 49.184C31.272 48.176 31.272 47.216 31.272 46.232H36.984C36.984 44.96 36.984 43.688 36.984 42.416H31.272V40.04C33.744 40.04 34.992 40.04 37.488 40.04C37.488 38.744 37.488 37.448 37.488 36.2ZM55.5026 53.024H57.0386V36.2C55.5746 36.2 54.1106 36.2 52.6466 36.2V44.432L44.1506 36.128H42.5906V53C44.0546 53 45.5426 53 47.0306 53V44.744L55.5026 53.024ZM61.4852 44.6C61.5092 50.336 65.8292 53.1919 70.1012 53.1919C73.1972 53.1919 76.3892 51.848 77.5892 48.344C78.1652 46.712 78.1652 45.104 78.0692 43.424H70.1252V47.144H73.7012C72.9332 48.752 71.8292 49.208 70.1012 49.208C67.5572 49.208 65.9252 47.384 65.9252 44.6C65.9252 42.032 67.3892 39.92 70.1012 39.92C71.8052 39.92 72.9092 40.496 73.6052 41.936H77.8292C77.0132 37.76 73.4852 36.008 70.1012 35.9839C65.8292 35.9839 61.5092 38.864 61.4852 44.6ZM86.9741 36.2C85.5101 36.2 84.0941 36.2 82.6541 36.2V53C86.0621 53 89.6141 53 93.0701 53C93.0701 51.56 93.0701 50.576 93.0701 49.136H86.9741C86.9741 41.984 86.9741 44.888 86.9741 36.2ZM102.206 49.232V39.944H104.174C104.174 38.504 104.174 37.616 104.174 36.2C101.438 36.2 98.7261 36.2 95.9901 36.2C95.9901 37.616 95.9901 38.504 95.9901 39.944H97.9581V49.232H95.8221C95.8221 50.648 95.8221 51.536 95.8221 53C98.6781 53 101.486 53 104.342 53C104.342 51.536 104.342 50.648 104.342 49.232H102.206ZM111.328 47.864C109.864 47.864 108.616 47.864 107.176 47.864C107.08 55.256 120.76 55.064 120.76 48.008C120.76 43.808 117.496 43.376 114.16 43.016C112.648 42.848 111.4 42.584 111.496 41.312C111.64 39.32 116.152 39.128 116.152 41.36C117.616 41.36 118.72 41.36 120.232 41.36C120.328 34.1119 107.272 34.1119 107.416 41.36C107.464 45.008 109.864 46.256 113.512 46.52C115.192 46.616 116.584 46.808 116.584 47.984C116.584 49.952 111.328 50 111.328 47.864ZM139.106 36.2C137.642 36.2 136.178 36.2 134.714 36.2V42.296H129.53V36.2C128.066 36.2 126.578 36.2 125.138 36.2V53C126.578 53 128.066 53 129.53 53V46.256H134.714V53C136.178 53 137.642 53 139.106 53V36.2Z" fill="white"/>
</g>
<defs>
<linearGradient id="paint0_linear" x1="260" y1="-9.86851e-06" x2="-15.0321" y2="88.0416" gradientUnits="userSpaceOnUse">
<stop offset="0.0223687" stop-color="#376A99"/>
<stop offset="0.536458" stop-color="#1F2666"/>
<stop offset="1" stop-color="#0C1249"/>
</linearGradient>
<linearGradient id="paint1_linear" x1="227.72" y1="5.43933" x2="201.087" y2="62.5543" gradientUnits="userSpaceOnUse">
<stop offset="0.228775" stop-color="#00F0FF" stop-opacity="0"/>
<stop offset="1" stop-color="#FF63CE"/>
</linearGradient>
<linearGradient id="paint2_linear" x1="240.72" y1="11.8778" x2="225.967" y2="43.5159" gradientUnits="userSpaceOnUse">
<stop offset="0.228775" stop-color="white" stop-opacity="0"/>
<stop offset="1" stop-color="white"/>
</linearGradient>
<linearGradient id="paint3_linear" x1="208.313" y1="7.71936" x2="195.687" y2="34.796" gradientUnits="userSpaceOnUse">
<stop offset="0.228775" stop-color="white" stop-opacity="0"/>
<stop offset="1" stop-color="white"/>
</linearGradient>
<radialGradient id="paint4_radial" cx="0" cy="0" r="1" gradientUnits="userSpaceOnUse" gradientTransform="translate(152.433 13.4327) scale(7.43256)">
<stop stop-color="white" stop-opacity="0.52"/>
<stop offset="0.395833" stop-color="white" stop-opacity="0.14"/>
<stop offset="0.677083" stop-color="white" stop-opacity="0"/>
</radialGradient>
<radialGradient id="paint5_radial" cx="0" cy="0" r="1" gradientUnits="userSpaceOnUse" gradientTransform="translate(28.4326 83.4327) scale(7.43256)">
<stop stop-color="white" stop-opacity="0.52"/>
<stop offset="0.395833" stop-color="white" stop-opacity="0.14"/>
<stop offset="0.677083" stop-color="white" stop-opacity="0"/>
</radialGradient>
<clipPath id="clip0">
<rect width="260" height="135" fill="white"/>
</clipPath>
</defs>
</svg>
