<svg width="260" height="135" viewBox="0 0 260 135" fill="none" xmlns="http://www.w3.org/2000/svg">
<g clip-path="url(#clip0)">
<rect width="260" height="135" fill="url(#paint0_linear)"/>
<path d="M186.866 12.4327C186.866 8.32779 183.538 5.00012 179.433 5.00012C175.328 5.00012 172 8.32779 172 12.4327C172 16.5376 175.328 19.8652 179.433 19.8652C183.538 19.8652 186.866 16.5376 186.866 12.4327Z" fill="url(#paint1_radial)"/>
<path d="M26.8652 80.4327C26.8652 76.3278 23.5375 73.0001 19.4326 73.0001C15.3277 73.0001 12 76.3278 12 80.4327C12 84.5376 15.3277 87.8652 19.4326 87.8652C23.5375 87.8652 26.8652 84.5376 26.8652 80.4327Z" fill="url(#paint2_radial)"/>
<path d="M260.355 94.2197C273.549 77.9603 271.064 54.0836 254.805 40.8897C238.545 27.6958 214.669 30.1809 201.475 46.4403C188.281 62.6997 190.766 86.5764 207.025 99.7703C223.285 112.964 247.161 110.479 260.355 94.2197Z" fill="#FD2559"/>
<path d="M203.056 46.5339C203.587 49.0362 204.345 53.5101 207.151 54.6475C209.274 55.4816 212.08 54.0409 213.976 53.2068C219.814 50.5528 225.122 46.6856 231.34 44.9415C237.558 43.2733 244.004 44.6382 247.871 50.1737C250.525 53.9651 251.056 60.9413 256.819 60.9413C260.155 60.9413 263.491 59.3489 266.449 57.3015C264.174 51.1594 260.307 45.5481 254.847 41.1501C238.999 28.3351 215.947 30.3067 202.601 45.4723C202.753 45.624 202.981 46.0031 203.056 46.5339Z" fill="#FF5454"/>
<path d="M239.075 51.9937C236.193 50.7805 232.857 51.9937 230.203 53.1312C223.606 55.9368 217.616 60.9415 210.412 62.0031C203.511 62.9888 199.493 58.5908 197.369 52.9795C197.066 53.5103 196.839 54.0411 196.611 54.5719C197.369 55.1027 198.128 55.7851 198.886 56.6192C202.905 61.3206 204.27 68.6001 209.957 71.7849C219.739 77.2445 230.431 59.5766 239.302 57.2259C241.046 56.7709 242.563 56.9226 243.852 57.605C242.639 55.2543 241.426 52.9795 239.075 51.9937Z" fill="#FF5454"/>
<path opacity="0.18" d="M226.328 63.273C232.737 55.9147 233.325 45.936 227.64 40.9849C221.955 36.0338 212.152 37.9853 205.743 45.3436C199.334 52.7019 198.747 62.6806 204.431 67.6317C210.116 72.5828 219.92 70.6313 226.328 63.273Z" fill="white"/>
<path opacity="0.27" d="M257.066 98.0158C267.727 87.3553 270.295 72.6398 262.804 65.1478C255.312 57.6559 240.596 60.2245 229.936 70.885C219.275 81.5455 216.707 96.2609 224.198 103.753C231.69 111.245 246.406 108.676 257.066 98.0158Z" fill="#9B1717"/>
<path opacity="0.21" d="M201.009 70.3441C202.829 59.5765 207.682 49.4913 216.023 42.2876C223.454 35.8422 235.89 34.9323 245.293 35.3115C230.203 29.1694 212.307 33.1883 201.54 46.534C188.876 62.1546 190.696 84.7515 205.179 98.1731C200.781 88.8462 199.644 78.3819 201.009 70.3441Z" fill="white"/>
<path d="M28.104 45.616C28.128 51.352 32.448 54.208 36.72 54.208C39.816 54.208 43.008 52.864 44.208 49.36C44.784 47.728 44.784 46.12 44.688 44.44H36.744V48.16H40.32C39.552 49.768 38.448 50.224 36.72 50.224C34.176 50.224 32.544 48.4 32.544 45.616C32.544 43.048 34.008 40.936 36.72 40.936C38.424 40.936 39.528 41.512 40.224 42.952H44.448C43.632 38.776 40.104 37.024 36.72 37C32.448 37 28.128 39.88 28.104 45.616ZM59.9769 54.016H64.1769V53.392L56.5929 37H54.7449L47.1849 53.392V54.016H51.3849L52.3689 51.904H58.9929L59.9769 54.016ZM57.5769 48.208H53.7849L55.6569 43.792L57.5769 48.208ZM75.7189 44.464L69.1429 37.168H67.5589V54.016C69.0229 54.016 70.4869 54.016 71.9509 54.016V46.528L75.5029 50.272H75.9829L79.5589 46.528V54.016C81.0229 54.016 82.4869 54.016 83.9509 54.016V37.168H82.4149L75.7189 44.464ZM99.9193 37.216C95.9833 37.216 93.3193 37.216 89.4313 37.216C89.4313 42.784 89.4313 48.4 89.4313 54.016C93.3193 54.016 96.1993 54.016 100.135 54.016C100.135 52.744 100.135 51.448 100.135 50.2C97.6153 50.2 96.1753 50.2 93.7033 50.2C93.7033 49.192 93.7033 48.232 93.7033 47.248H99.4153C99.4153 45.976 99.4153 44.704 99.4153 43.432H93.7033V41.056C96.1753 41.056 97.4233 41.056 99.9193 41.056C99.9193 39.76 99.9193 38.464 99.9193 37.216ZM111.358 37.216H105.022V54.016H111.358C122.302 53.968 122.302 37.264 111.358 37.216ZM109.318 41.128H111.358C116.71 41.128 116.71 50.104 111.358 50.104H109.318V41.128ZM134.522 37.216C130.586 37.216 127.922 37.216 124.034 37.216C124.034 42.784 124.034 48.4 124.034 54.016C127.922 54.016 130.802 54.016 134.738 54.016C134.738 52.744 134.738 51.448 134.738 50.2C132.218 50.2 130.778 50.2 128.306 50.2C128.306 49.192 128.306 48.232 128.306 47.248H134.018C134.018 45.976 134.018 44.704 134.018 43.432H128.306V41.056C130.778 41.056 132.026 41.056 134.522 41.056C134.522 39.76 134.522 38.464 134.522 37.216ZM141.953 37.216H137.825V37.864L145.025 54.208H146.849L153.977 37.864V37.216H149.849L146.009 46.744H145.889L141.953 37.216Z" fill="#FF77CF"/>
<path d="M28.104 43.616C28.128 49.352 32.448 52.208 36.72 52.208C39.816 52.208 43.008 50.864 44.208 47.36C44.784 45.728 44.784 44.12 44.688 42.44H36.744V46.16H40.32C39.552 47.768 38.448 48.224 36.72 48.224C34.176 48.224 32.544 46.4 32.544 43.616C32.544 41.048 34.008 38.936 36.72 38.936C38.424 38.936 39.528 39.512 40.224 40.952H44.448C43.632 36.776 40.104 35.024 36.72 35C32.448 35 28.128 37.88 28.104 43.616ZM59.9769 52.016H64.1769V51.392L56.5929 35H54.7449L47.1849 51.392V52.016H51.3849L52.3689 49.904H58.9929L59.9769 52.016ZM57.5769 46.208H53.7849L55.6569 41.792L57.5769 46.208ZM75.7189 42.464L69.1429 35.168H67.5589V52.016C69.0229 52.016 70.4869 52.016 71.9509 52.016V44.528L75.5029 48.272H75.9829L79.5589 44.528V52.016C81.0229 52.016 82.4869 52.016 83.9509 52.016V35.168H82.4149L75.7189 42.464ZM99.9193 35.216C95.9833 35.216 93.3193 35.216 89.4313 35.216C89.4313 40.784 89.4313 46.4 89.4313 52.016C93.3193 52.016 96.1993 52.016 100.135 52.016C100.135 50.744 100.135 49.448 100.135 48.2C97.6153 48.2 96.1753 48.2 93.7033 48.2C93.7033 47.192 93.7033 46.232 93.7033 45.248H99.4153C99.4153 43.976 99.4153 42.704 99.4153 41.432H93.7033V39.056C96.1753 39.056 97.4233 39.056 99.9193 39.056C99.9193 37.76 99.9193 36.464 99.9193 35.216ZM111.358 35.216H105.022V52.016H111.358C122.302 51.968 122.302 35.264 111.358 35.216ZM109.318 39.128H111.358C116.71 39.128 116.71 48.104 111.358 48.104H109.318V39.128ZM134.522 35.216C130.586 35.216 127.922 35.216 124.034 35.216C124.034 40.784 124.034 46.4 124.034 52.016C127.922 52.016 130.802 52.016 134.738 52.016C134.738 50.744 134.738 49.448 134.738 48.2C132.218 48.2 130.778 48.2 128.306 48.2C128.306 47.192 128.306 46.232 128.306 45.248H134.018C134.018 43.976 134.018 42.704 134.018 41.432H128.306V39.056C130.778 39.056 132.026 39.056 134.522 39.056C134.522 37.76 134.522 36.464 134.522 35.216ZM141.953 35.216H137.825V35.864L145.025 52.208H146.849L153.977 35.864V35.216H149.849L146.009 44.744H145.889L141.953 35.216Z" fill="white"/>
<path d="M-7 101H265C211.123 72.0622 197.342 106.048 130.046 89.6428C74.6 76.126 41.6462 95.9205 -7 101Z" fill="#F8FBFF"/>
<rect x="-15" y="100" width="275" height="62" fill="#F8FBFF"/>
</g>
<defs>
<linearGradient id="paint0_linear" x1="260" y1="-9.86851e-06" x2="-15.0321" y2="88.0416" gradientUnits="userSpaceOnUse">
<stop offset="0.0223687" stop-color="#376A99"/>
<stop offset="0.536458" stop-color="#1F2666"/>
<stop offset="1" stop-color="#0C1249"/>
</linearGradient>
<radialGradient id="paint1_radial" cx="0" cy="0" r="1" gradientUnits="userSpaceOnUse" gradientTransform="translate(179.433 12.4327) scale(7.43256)">
<stop stop-color="white" stop-opacity="0.52"/>
<stop offset="0.395833" stop-color="white" stop-opacity="0.14"/>
<stop offset="0.677083" stop-color="white" stop-opacity="0"/>
</radialGradient>
<radialGradient id="paint2_radial" cx="0" cy="0" r="1" gradientUnits="userSpaceOnUse" gradientTransform="translate(19.4326 80.4327) scale(7.43256)">
<stop stop-color="white" stop-opacity="0.52"/>
<stop offset="0.395833" stop-color="white" stop-opacity="0.14"/>
<stop offset="0.677083" stop-color="white" stop-opacity="0"/>
</radialGradient>
<clipPath id="clip0">
<rect width="260" height="135" fill="white"/>
</clipPath>
</defs>
</svg>
