<svg width="260" height="135" viewBox="0 0 260 135" fill="none" xmlns="http://www.w3.org/2000/svg">
<g clip-path="url(#clip0)">
<rect width="260" height="135" fill="url(#paint0_linear)"/>
<g filter="url(#filter0_d)">
<path d="M0 15C0 6.71573 6.71573 0 15 0H245C253.284 0 260 6.71573 260 15V106H0V15Z" fill="url(#paint1_linear)"/>
<path d="M0 15C0 6.71573 6.71573 0 15 0H245C253.284 0 260 6.71573 260 15V106H0V15Z" fill="url(#paint2_linear)"/>
</g>
<path d="M239.114 90.7471C249.493 77.9562 247.538 59.1729 234.747 48.7935C221.956 38.4142 203.173 40.3692 192.794 53.1601C182.414 65.9511 184.369 84.7343 197.16 95.1137C209.951 105.493 228.734 103.538 239.114 90.7471Z" fill="#FD9D62"/>
<path opacity="0.2" d="M232.733 85.9681C228.198 83.7002 228.954 78.2023 229.641 74.0789C229.916 72.6357 231.153 68.5809 229.71 67.4126C227.923 66.0381 226.617 69.6805 226.205 70.7801C224.899 74.4912 225.517 77.9961 225.449 81.8447C225.311 85.3496 224.624 90.0916 220.501 90.985C218.782 91.3286 217.133 90.9162 215.759 89.7479C214.796 88.9233 213.01 84.3187 211.429 86.5866C209.917 88.8545 208.474 91.0537 205.862 92.2907C202.151 93.9401 197.822 93.5965 193.836 92.0846C194.866 93.1841 195.966 94.215 197.134 95.1771C209.917 105.554 228.747 103.63 239.125 90.7788C241.461 87.8924 243.111 84.7311 244.279 81.4323C241.324 84.9373 236.926 88.0298 232.733 85.9681Z" fill="#9B3C41"/>
<path opacity="0.2" d="M191.018 61.7772C193.423 59.3031 195.141 56.1418 198.097 54.2863C200.433 52.7743 204.144 56.2105 204.144 59.2344C204.144 67.2751 204.9 69.4743 206.618 68.9245C210.879 68.9245 208.749 51.8122 209.848 50.7126C212.46 48.3073 215.827 47.0015 219.195 48.376C222.7 49.7505 225.105 53.7365 229.091 53.7365C231.153 53.7365 233.008 52.9118 235.07 53.118C236.719 53.2554 238.3 53.7365 239.743 54.355C239.881 54.4237 240.018 54.4924 240.156 54.5612C238.644 52.4307 236.788 50.4377 234.658 48.7196C221.875 38.3423 203.045 40.2666 192.667 53.118C189.987 56.4167 188.132 60.1278 187.101 63.9764C188.681 63.9764 190.056 62.8081 191.018 61.7772Z" fill="#9B3C41"/>
<path opacity="0.41" d="M212.304 66.3316C217.364 60.5213 217.847 52.6585 213.382 48.7696C208.917 44.8807 201.195 46.4382 196.135 52.2485C191.074 58.0588 190.591 65.9215 195.056 69.8105C199.521 73.6994 207.243 72.1418 212.304 66.3316Z" fill="white"/>
<path opacity="0.28" d="M236.551 93.7182C244.952 85.3178 246.975 73.7216 241.071 67.8172C235.166 61.9128 223.57 63.9361 215.17 72.3365C206.769 80.7368 204.746 92.3331 210.65 98.2375C216.555 104.142 228.151 102.119 236.551 93.7182Z" fill="#9B3C41"/>
<path opacity="0.29" d="M192.392 71.9484C193.836 63.4266 197.615 55.5234 204.213 49.8193C210.123 44.7337 219.882 44.0465 227.304 44.3214C215.415 39.442 201.327 42.672 192.805 53.118C182.84 65.4196 184.214 83.2192 195.691 93.8027C192.255 86.5179 191.293 78.271 192.392 71.9484Z" fill="white"/>
<path d="M27 45.616C27.024 51.352 31.344 54.208 35.616 54.208C38.712 54.208 41.904 52.864 43.104 49.36C43.68 47.728 43.68 46.12 43.584 44.44H35.64V48.16H39.216C38.448 49.768 37.344 50.224 35.616 50.224C33.072 50.224 31.44 48.4 31.44 45.616C31.44 43.048 32.904 40.936 35.616 40.936C37.32 40.936 38.424 41.512 39.12 42.952H43.344C42.528 38.776 39 37.024 35.616 37C31.344 37 27.024 39.88 27 45.616ZM58.6809 37.216C54.7449 37.216 52.0809 37.216 48.1929 37.216C48.1929 42.784 48.1929 48.4 48.1929 54.016C52.0809 54.016 54.9609 54.016 58.8969 54.016C58.8969 52.744 58.8969 51.448 58.8969 50.2C56.3769 50.2 54.9369 50.2 52.4649 50.2C52.4649 49.192 52.4649 48.232 52.4649 47.248H58.1769C58.1769 45.976 58.1769 44.704 58.1769 43.432H52.4649V41.056C54.9369 41.056 56.1849 41.056 58.6809 41.056C58.6809 39.76 58.6809 38.464 58.6809 37.216ZM74.6796 48.064C78.9276 45.184 77.7276 37.24 71.1276 37.216C68.6796 37.216 66.1836 37.216 63.7596 37.216C63.7596 42.832 63.7596 48.424 63.7596 54.016C65.1516 54.016 66.6156 54.016 68.0556 54.016V49.072H70.2876L73.1676 54.016H77.9676V53.392L74.6796 48.064ZM71.1276 45.208H68.0556C68.0556 43.864 68.0556 42.424 68.0556 41.056C69.0636 41.056 70.1196 41.032 71.1276 41.056C73.5756 41.08 73.4556 45.208 71.1276 45.208ZM89.9008 44.464L83.3248 37.168H81.7408V54.016C83.2048 54.016 84.6688 54.016 86.1328 54.016V46.528L89.6848 50.272H90.1648L93.7408 46.528V54.016C95.2048 54.016 96.6688 54.016 98.1328 54.016V37.168H96.5968L89.9008 44.464ZM114.293 54.016H118.493V53.392L110.909 37H109.061L101.501 53.392V54.016H105.701L106.685 51.904H113.309L114.293 54.016ZM111.893 48.208H108.101L109.973 43.792L111.893 48.208ZM134.811 54.04H136.347V37.216C134.883 37.216 133.419 37.216 131.955 37.216V45.448L123.459 37.144H121.899V54.016C123.363 54.016 124.851 54.016 126.339 54.016V45.76L134.811 54.04Z" fill="#FF77CF"/>
<path d="M27 43.616C27.024 49.352 31.344 52.208 35.616 52.208C38.712 52.208 41.904 50.864 43.104 47.36C43.68 45.728 43.68 44.12 43.584 42.44H35.64V46.16H39.216C38.448 47.768 37.344 48.224 35.616 48.224C33.072 48.224 31.44 46.4 31.44 43.616C31.44 41.048 32.904 38.936 35.616 38.936C37.32 38.936 38.424 39.512 39.12 40.952H43.344C42.528 36.776 39 35.024 35.616 35C31.344 35 27.024 37.88 27 43.616ZM58.6809 35.216C54.7449 35.216 52.0809 35.216 48.1929 35.216C48.1929 40.784 48.1929 46.4 48.1929 52.016C52.0809 52.016 54.9609 52.016 58.8969 52.016C58.8969 50.744 58.8969 49.448 58.8969 48.2C56.3769 48.2 54.9369 48.2 52.4649 48.2C52.4649 47.192 52.4649 46.232 52.4649 45.248H58.1769C58.1769 43.976 58.1769 42.704 58.1769 41.432H52.4649V39.056C54.9369 39.056 56.1849 39.056 58.6809 39.056C58.6809 37.76 58.6809 36.464 58.6809 35.216ZM74.6796 46.064C78.9276 43.184 77.7276 35.24 71.1276 35.216C68.6796 35.216 66.1836 35.216 63.7596 35.216C63.7596 40.832 63.7596 46.424 63.7596 52.016C65.1516 52.016 66.6156 52.016 68.0556 52.016V47.072H70.2876L73.1676 52.016H77.9676V51.392L74.6796 46.064ZM71.1276 43.208H68.0556C68.0556 41.864 68.0556 40.424 68.0556 39.056C69.0636 39.056 70.1196 39.032 71.1276 39.056C73.5756 39.08 73.4556 43.208 71.1276 43.208ZM89.9008 42.464L83.3248 35.168H81.7408V52.016C83.2048 52.016 84.6688 52.016 86.1328 52.016V44.528L89.6848 48.272H90.1648L93.7408 44.528V52.016C95.2048 52.016 96.6688 52.016 98.1328 52.016V35.168H96.5968L89.9008 42.464ZM114.293 52.016H118.493V51.392L110.909 35H109.061L101.501 51.392V52.016H105.701L106.685 49.904H113.309L114.293 52.016ZM111.893 46.208H108.101L109.973 41.792L111.893 46.208ZM134.811 52.04H136.347V35.216C134.883 35.216 133.419 35.216 131.955 35.216V43.448L123.459 35.144H121.899V52.016C123.363 52.016 124.851 52.016 126.339 52.016V43.76L134.811 52.04Z" fill="white"/>
<path d="M197 24.5C197 22.567 195.433 21 193.5 21C191.567 21 190 22.567 190 24.5C190 26.433 191.567 28 193.5 28C195.433 28 197 26.433 197 24.5Z" fill="url(#paint3_radial)"/>
<path d="M167.866 16.4327C167.866 12.3278 164.538 9.00012 160.433 9.00012C156.328 9.00012 153 12.3278 153 16.4327C153 20.5376 156.328 23.8652 160.433 23.8652C164.538 23.8652 167.866 20.5376 167.866 16.4327Z" fill="url(#paint4_radial)"/>
<path d="M181.866 43.4327C181.866 39.3278 178.538 36.0001 174.433 36.0001C170.328 36.0001 167 39.3278 167 43.4327C167 47.5376 170.328 50.8652 174.433 50.8652C178.538 50.8652 181.866 47.5376 181.866 43.4327Z" fill="url(#paint5_radial)"/>
<path d="M235 23C235 20.2386 232.761 18 230 18C227.239 18 225 20.2386 225 23C225 25.7614 227.239 28 230 28C232.761 28 235 25.7614 235 23Z" fill="url(#paint6_radial)"/>
<path d="M154 37.5C154 35.0147 151.985 33 149.5 33C147.015 33 145 35.0147 145 37.5C145 39.9853 147.015 42 149.5 42C151.985 42 154 39.9853 154 37.5Z" fill="url(#paint7_radial)"/>
<path d="M-19 99H279C225.131 92.057 207.365 72.1754 179.285 76.6486C137.144 83.3617 148.338 90.5658 -19 99Z" fill="#F8FBFF"/>
<rect x="-7" y="98" width="275" height="63" fill="#F8FBFF"/>
</g>
<defs>
<filter id="filter0_d" x="-30" y="-10" width="310" height="156" filterUnits="userSpaceOnUse" color-interpolation-filters="sRGB">
<feFlood flood-opacity="0" result="BackgroundImageFix"/>
<feColorMatrix in="SourceAlpha" type="matrix" values="0 0 0 0 0 0 0 0 0 0 0 0 0 0 0 0 0 0 127 0"/>
<feOffset dx="-5" dy="15"/>
<feGaussianBlur stdDeviation="12.5"/>
<feColorMatrix type="matrix" values="0 0 0 0 0 0 0 0 0 0 0 0 0 0 0 0 0 0 0.15 0"/>
<feBlend mode="normal" in2="BackgroundImageFix" result="effect1_dropShadow"/>
<feBlend mode="normal" in="SourceGraphic" in2="effect1_dropShadow" result="shape"/>
</filter>
<linearGradient id="paint0_linear" x1="260" y1="-9.86851e-06" x2="-15.0321" y2="88.0416" gradientUnits="userSpaceOnUse">
<stop offset="0.0223687" stop-color="#376A99"/>
<stop offset="0.536458" stop-color="#1F2666"/>
<stop offset="1" stop-color="#0C1249"/>
</linearGradient>
<linearGradient id="paint1_linear" x1="130" y1="0" x2="130" y2="106" gradientUnits="userSpaceOnUse">
<stop stop-color="#FDC3F1"/>
<stop offset="1" stop-color="#FFE4DD"/>
</linearGradient>
<linearGradient id="paint2_linear" x1="260" y1="-7.7486e-06" x2="-2.03765e-05" y2="106" gradientUnits="userSpaceOnUse">
<stop offset="0.0223687" stop-color="#376A99"/>
<stop offset="0.536458" stop-color="#1F2666"/>
<stop offset="1" stop-color="#0C1249"/>
</linearGradient>
<radialGradient id="paint3_radial" cx="0" cy="0" r="1" gradientUnits="userSpaceOnUse" gradientTransform="translate(193.5 24.5) scale(3.5)">
<stop stop-color="white" stop-opacity="0.52"/>
<stop offset="0.395833" stop-color="white" stop-opacity="0.14"/>
<stop offset="0.677083" stop-color="white" stop-opacity="0"/>
</radialGradient>
<radialGradient id="paint4_radial" cx="0" cy="0" r="1" gradientUnits="userSpaceOnUse" gradientTransform="translate(160.433 16.4327) scale(7.43256)">
<stop stop-color="white" stop-opacity="0.52"/>
<stop offset="0.395833" stop-color="white" stop-opacity="0.14"/>
<stop offset="0.677083" stop-color="white" stop-opacity="0"/>
</radialGradient>
<radialGradient id="paint5_radial" cx="0" cy="0" r="1" gradientUnits="userSpaceOnUse" gradientTransform="translate(174.433 43.4327) scale(7.43256)">
<stop stop-color="white" stop-opacity="0.52"/>
<stop offset="0.395833" stop-color="white" stop-opacity="0.14"/>
<stop offset="0.677083" stop-color="white" stop-opacity="0"/>
</radialGradient>
<radialGradient id="paint6_radial" cx="0" cy="0" r="1" gradientUnits="userSpaceOnUse" gradientTransform="translate(230 23) scale(5)">
<stop stop-color="white" stop-opacity="0.52"/>
<stop offset="0.395833" stop-color="white" stop-opacity="0.14"/>
<stop offset="0.677083" stop-color="white" stop-opacity="0"/>
</radialGradient>
<radialGradient id="paint7_radial" cx="0" cy="0" r="1" gradientUnits="userSpaceOnUse" gradientTransform="translate(149.5 37.5) scale(4.5)">
<stop stop-color="white" stop-opacity="0.52"/>
<stop offset="0.395833" stop-color="white" stop-opacity="0.14"/>
<stop offset="0.677083" stop-color="white" stop-opacity="0"/>
</radialGradient>
<clipPath id="clip0">
<rect width="260" height="135" fill="white"/>
</clipPath>
</defs>
</svg>
