<svg width="24" height="26" viewBox="0 0 24 26" fill="none" xmlns="http://www.w3.org/2000/svg">
<path d="M11.9585 6.99414C8.54941 6.99414 5.83294 9.89593 5.83294 13.4116C5.83294 16.983 8.54941 19.829 11.9585 19.829C15.3142 19.829 18.084 16.983 18.084 13.4116C18.084 9.89593 15.3142 6.99414 11.9585 6.99414ZM11.9585 17.5968C9.7744 17.5968 7.96361 15.7553 7.96361 13.4116C7.96361 11.1236 9.72128 9.28209 11.9585 9.28209C14.1426 9.28209 15.9002 11.1236 15.9002 13.4116C15.9002 15.7553 14.1426 17.5968 11.9585 17.5968ZM19.7355 6.77093C19.7355 5.93387 19.0962 5.26423 18.2971 5.26423C17.4982 5.26423 16.859 5.93387 16.859 6.77093C16.859 7.60798 17.4982 8.27762 18.2971 8.27762C19.0962 8.27762 19.7355 7.60798 19.7355 6.77093ZM23.7837 8.27762C23.6772 6.26869 23.2511 4.48298 21.8661 3.03209C20.4812 1.58119 18.7766 1.13477 16.859 1.02316C14.888 0.911551 8.97554 0.911551 7.00452 1.02316C5.08691 1.13477 3.43579 1.58119 1.99772 3.03209C0.612498 4.48298 0.186363 6.26869 0.0801134 8.27762C-0.0267045 10.3424 -0.0267045 16.5366 0.0801134 18.6013C0.186363 20.6102 0.612498 22.3401 1.99772 23.8468C3.43579 25.2977 5.08691 25.7441 7.00452 25.8557C8.97554 25.9674 14.888 25.9674 16.859 25.8557C18.7766 25.7441 20.4812 25.2977 21.8661 23.8468C23.2511 22.3401 23.6772 20.6102 23.7837 18.6013C23.8903 16.5366 23.8903 10.3424 23.7837 8.27762ZM21.2269 20.7776C20.8539 21.8937 20.0016 22.7307 18.9897 23.1772C17.3917 23.8468 13.663 23.6794 11.9585 23.6794C10.2005 23.6794 6.47214 23.8468 4.92726 23.1772C3.86192 22.7307 3.06306 21.8937 2.63692 20.7776C1.99772 19.1593 2.15738 15.2531 2.15738 13.4116C2.15738 11.6258 1.99772 7.71959 2.63692 6.04548C3.06306 4.98521 3.86192 4.14816 4.92726 3.70173C6.47214 3.03209 10.2005 3.1995 11.9585 3.1995C13.663 3.1995 17.3917 3.03209 18.9897 3.70173C20.0016 4.09235 20.8008 4.98521 21.2269 6.04548C21.8661 7.71959 21.7062 11.6258 21.7062 13.4116C21.7062 15.2531 21.8661 19.1593 21.2269 20.7776Z" fill="white"/>
</svg>
