<svg width="27" height="26" viewBox="0 0 27 26" fill="none" xmlns="http://www.w3.org/2000/svg">
<path d="M5.84609 25.9395V9.25419H0.409069V25.9395H5.84609ZM3.09858 7.02204C4.85209 7.02204 6.25516 5.62695 6.25516 3.95285C6.25516 2.33454 4.85209 0.939453 3.09858 0.939453C1.40306 0.939453 0 2.33454 0 3.95285C0 5.62695 1.40306 7.02204 3.09858 7.02204ZM26.1905 25.9395V16.7877C26.1905 12.3234 25.1382 8.86356 19.6429 8.86356C17.012 8.86356 15.2584 10.2586 14.4983 11.5421H14.4397V9.25419H9.23682V25.9395H14.6735V17.6805C14.6735 15.5042 15.0829 13.4395 17.9473 13.4395C20.6952 13.4395 20.7535 15.8948 20.7535 17.8479V25.9395H26.1905Z" fill="white"/>
</svg>
