<svg width="170" height="65" viewBox="0 0 170 65" fill="none" xmlns="http://www.w3.org/2000/svg">
<path fill-rule="evenodd" clip-rule="evenodd" d="M0 10.9551C0 4.90475 4.90475 0 10.9551 0H54.0449C60.0953 0 65 4.90475 65 10.9551V54.0449C65 60.0953 60.0953 65 54.0449 65H10.9551C4.90475 65 0 60.0953 0 54.0449V10.9551ZM20.0112 16.3913C20.0112 18.3905 18.3905 20.0112 16.3913 20.0112C14.3921 20.0112 12.7714 18.3905 12.7714 16.3913C12.7714 14.3921 14.3921 12.7714 16.3913 12.7714C18.3905 12.7714 20.0112 14.3921 20.0112 16.3913ZM16.3913 21.0972C18.6808 21.0972 20.5883 19.4623 21.0103 17.2963H27.881C28.2691 19.2886 29.914 20.8315 31.957 21.0663V27.8251C29.6137 28.0943 27.794 30.0846 27.794 32.5C27.794 34.9154 29.6137 36.9056 31.957 37.175V43.9337C29.6137 44.2031 27.794 46.1933 27.794 48.6087C27.794 51.2077 29.901 53.3146 32.5 53.3146C35.0989 53.3146 37.2059 51.2077 37.2059 48.6087C37.2059 46.1933 35.3861 44.2031 33.0429 43.9337V37.175C35.0236 36.9475 36.6301 35.4901 37.0799 33.586H44.0287C44.5189 35.6615 46.3835 37.2059 48.6087 37.2059C51.2076 37.2059 53.3146 35.0989 53.3146 32.5C53.3146 29.9011 51.2076 27.7941 48.6087 27.7941C46.0098 27.7941 43.9028 29.9011 43.9028 32.5H37.2059C37.2059 30.0846 35.3861 28.0943 33.0429 27.8251V21.0663C35.0859 20.8315 36.7309 19.2886 37.119 17.2963H43.9896C44.4116 19.4623 46.3192 21.0972 48.6087 21.0972C51.2076 21.0972 53.3146 18.9903 53.3146 16.3913C53.3146 13.7923 51.2076 11.6854 48.6087 11.6854C46.0703 11.6854 44.0012 13.6952 43.9062 16.2103H37.2024C37.1075 13.6952 35.0384 11.6854 32.5 11.6854C29.9616 11.6854 27.8925 13.6952 27.7974 16.2103H21.0938C20.9987 13.6952 18.9297 11.6854 16.3913 11.6854C13.7923 11.6854 11.6854 13.7923 11.6854 16.3913C11.6854 18.9903 13.7923 21.0972 16.3913 21.0972ZM16.3913 18.7442C17.6908 18.7442 18.7442 17.6908 18.7442 16.3913C18.7442 15.0918 17.6908 14.0383 16.3913 14.0383C15.0918 14.0383 14.0383 15.0918 14.0383 16.3913C14.0383 17.6908 15.0918 18.7442 16.3913 18.7442ZM32.5 20.0112C34.4992 20.0112 36.1199 18.3905 36.1199 16.3913C36.1199 14.3921 34.4992 12.7714 32.5 12.7714C30.5006 12.7714 28.88 14.3921 28.88 16.3913C28.88 18.3905 30.5006 20.0112 32.5 20.0112ZM48.6087 20.0112C50.608 20.0112 52.2286 18.3905 52.2286 16.3913C52.2286 14.3921 50.608 12.7714 48.6087 12.7714C46.6094 12.7714 44.9887 14.3921 44.9887 16.3913C44.9887 18.3905 46.6094 20.0112 48.6087 20.0112ZM32.5 36.12C34.4992 36.12 36.1199 34.4993 36.1199 32.5C36.1199 30.5007 34.4992 28.88 32.5 28.88C30.5006 28.88 28.88 30.5007 28.88 32.5C28.88 34.4993 30.5006 36.12 32.5 36.12ZM32.5 52.2286C34.4992 52.2286 36.1199 50.608 36.1199 48.6087C36.1199 46.6094 34.4992 44.9888 32.5 44.9888C30.5006 44.9888 28.88 46.6094 28.88 48.6087C28.88 50.608 30.5006 52.2286 32.5 52.2286ZM52.4096 32.5C52.4096 34.5992 50.7079 36.3009 48.6087 36.3009C46.5095 36.3009 44.8077 34.5992 44.8077 32.5C44.8077 30.4008 46.5095 28.6991 48.6087 28.6991C50.7079 28.6991 52.4096 30.4008 52.4096 32.5ZM48.6087 34.8529C49.9082 34.8529 50.9616 33.7996 50.9616 32.5C50.9616 31.2004 49.9082 30.1471 48.6087 30.1471C47.3091 30.1471 46.2558 31.2004 46.2558 32.5C46.2558 33.7996 47.3091 34.8529 48.6087 34.8529ZM83.8754 3.65137V18.2581H80.3369V3.65137H83.8754ZM97.865 3.65137V6.46113H93.892V18.2581H90.333V6.46113H86.4009V3.65137H97.865ZM91.4169 27.457C90.2702 26.532 88.8176 26.0696 87.0589 26.0696C85.7173 26.0696 84.5385 26.3692 83.5219 26.9685C82.506 27.5547 81.718 28.382 81.1578 29.4502C80.6108 30.5184 80.3369 31.7366 80.3369 33.1044C80.3369 34.4723 80.6108 35.6904 81.1578 36.7586C81.718 37.8269 82.506 38.6607 83.5219 39.2599C84.5385 39.8461 85.7173 40.1393 87.0589 40.1393C88.8176 40.1393 90.2702 39.6768 91.4169 38.7519C92.5766 37.8139 93.3252 36.5632 93.6641 34.9999H90.1271C89.8663 35.6252 89.4625 36.1203 88.9155 36.4851C88.3816 36.8499 87.7433 37.0322 87.0005 37.0322C86.0233 37.0322 85.2353 36.6805 84.6357 35.977C84.0368 35.2605 83.7374 34.303 83.7374 33.1044C83.7374 31.9059 84.0368 30.9484 84.6357 30.2318C85.2353 29.5153 86.0233 29.1571 87.0005 29.1571C87.7433 29.1571 88.3816 29.3394 88.9155 29.7042C89.4625 30.069 89.8663 30.5706 90.1271 31.2089H93.6641C93.3252 29.6326 92.5766 28.382 91.4169 27.457ZM99.8552 40.022V25.5615H96.5139V40.022H99.8552ZM113.985 40.022V29.118H110.624V34.9022C110.624 35.6969 110.428 36.3092 110.038 36.7391C109.647 37.169 109.113 37.384 108.435 37.384C107.784 37.384 107.263 37.182 106.872 36.7782C106.494 36.3613 106.306 35.7816 106.306 35.039V29.118H102.983V35.4494C102.983 36.9084 103.348 38.0549 104.077 38.8887C104.82 39.7224 105.817 40.1393 107.067 40.1393C107.888 40.1393 108.605 39.9504 109.217 39.5726C109.843 39.1948 110.311 38.6867 110.624 38.0483V40.022H113.985ZM124.535 30.0169C123.714 29.3264 122.613 28.9812 121.232 28.9812C119.877 28.9812 118.829 29.2874 118.086 29.8997C117.343 30.4989 116.972 31.2871 116.972 32.2641C116.972 33.0198 117.161 33.619 117.539 34.0619C117.916 34.4918 118.366 34.8045 118.887 34.9999C119.408 35.1954 120.072 35.3777 120.88 35.5471C121.688 35.7295 122.268 35.9053 122.62 36.0747C122.984 36.231 123.167 36.4981 123.167 36.8759C123.167 37.1625 123.069 37.397 122.873 37.5794C122.678 37.7488 122.391 37.8334 122.014 37.8334C121.467 37.8334 121.017 37.7097 120.665 37.4621C120.327 37.2146 120.131 36.8564 120.079 36.3873H116.855C117.05 37.5989 117.591 38.5304 118.477 39.1818C119.362 39.8331 120.541 40.1588 122.014 40.1588C122.886 40.1588 123.642 40.022 124.281 39.7485C124.919 39.4749 125.407 39.0971 125.746 38.6151C126.084 38.1331 126.254 37.5794 126.254 36.9541C126.254 36.1854 126.059 35.5732 125.668 35.1172C125.277 34.6612 124.814 34.3355 124.281 34.1401C123.746 33.9317 123.062 33.7297 122.228 33.5343C121.46 33.365 120.893 33.1956 120.529 33.0263C120.177 32.8569 120.001 32.6029 120.001 32.2641C120.001 31.9645 120.099 31.7366 120.294 31.5802C120.489 31.4108 120.776 31.3262 121.154 31.3262C121.636 31.3262 122.033 31.4565 122.346 31.717C122.672 31.9645 122.88 32.3097 122.971 32.7527H126.098C125.889 31.6193 125.368 30.7074 124.535 30.0169ZM135.257 40.022V37.1494H134.201C133.784 37.1494 133.485 37.0648 133.302 36.8954C133.133 36.7261 133.048 36.4264 133.048 35.9965V31.9319H135.237V29.118H133.048V26.4408H129.707V29.118H128.241V31.9319H129.707V35.9379C129.707 37.397 130.058 38.4457 130.762 39.084C131.479 39.7094 132.475 40.022 133.752 40.022H135.257ZM148.371 35.1758C148.436 34.8501 148.469 34.5505 148.469 34.2769C148.469 33.2347 148.241 32.3162 147.785 31.5215C147.342 30.7139 146.71 30.0885 145.889 29.6456C145.069 29.2026 144.117 28.9812 143.036 28.9812C141.968 28.9812 141.017 29.2092 140.183 29.6652C139.35 30.1081 138.698 30.7529 138.229 31.5998C137.773 32.4335 137.545 33.4236 137.545 34.57C137.545 35.7035 137.779 36.6935 138.249 37.5403C138.718 38.3871 139.363 39.0385 140.183 39.4944C141.017 39.9374 141.968 40.1588 143.036 40.1588C143.949 40.1588 144.775 39.9894 145.518 39.6508C146.261 39.299 146.873 38.8235 147.355 38.2242C147.837 37.612 148.149 36.9215 148.293 36.1529H144.756C144.652 36.5437 144.436 36.8629 144.111 37.1104C143.786 37.3579 143.375 37.4817 142.88 37.4817C142.294 37.4817 141.812 37.3058 141.434 36.9541C141.056 36.5893 140.848 35.9965 140.809 35.1758H148.371ZM144.502 32.1664C144.906 32.5182 145.101 33.0523 145.088 33.7688H140.828C140.88 33.0653 141.108 32.5312 141.512 32.1664C141.916 31.8017 142.424 31.6193 143.036 31.6193C143.623 31.6193 144.111 31.8017 144.502 32.1664ZM156.131 29.587C155.481 29.9778 154.946 30.5054 154.529 31.1698V29.118H151.188V40.022H154.529V35.0586C154.529 34.1597 154.77 33.5213 155.252 33.1435C155.747 32.7657 156.438 32.5768 157.324 32.5768H158.281V29.0008C157.512 29.0008 156.796 29.1961 156.131 29.587ZM83.064 57.4941L82.0393 60.3255H80.3369L84.8708 48.3053H86.6594L91.1758 60.3255H89.4734L88.4488 57.4941H83.064ZM87.9974 56.2608L85.756 50.0771L83.5153 56.2608H87.9974ZM97.865 50.6677C99.081 50.6677 100.089 50.9919 100.888 51.6404C101.687 52.2889 102.179 53.1574 102.364 54.2459H100.697C100.58 53.5627 100.262 53.03 99.7412 52.6479C99.2315 52.2541 98.5946 52.0573 97.8307 52.0573C97.2749 52.0573 96.7651 52.1847 96.3021 52.4394C95.85 52.6942 95.4856 53.0879 95.2073 53.6206C94.9298 54.1417 94.791 54.7902 94.791 55.5661C94.791 56.3419 94.9298 56.9962 95.2073 57.5288C95.4856 58.0499 95.85 58.4379 96.3021 58.6926C96.7651 58.9474 97.2749 59.0747 97.8307 59.0747C98.5946 59.0747 99.2315 58.8779 99.7412 58.4842C100.262 58.0905 100.58 57.552 100.697 56.8688H102.364C102.179 57.9689 101.687 58.8432 100.888 59.4917C100.089 60.1286 99.081 60.447 97.865 60.447C96.9506 60.447 96.14 60.2502 95.4337 59.8564C94.7268 59.4627 94.171 58.9011 93.7656 58.1715C93.372 57.4305 93.1755 56.562 93.1755 55.5661C93.1755 54.5701 93.372 53.7017 93.7656 52.9605C94.171 52.2194 94.7268 51.652 95.4337 51.2582C96.14 50.8646 96.9506 50.6677 97.865 50.6677ZM109.209 50.6677C110.136 50.6677 110.918 50.8993 111.554 51.3625C112.203 51.8256 112.654 52.4453 112.909 53.2211V50.7893H114.49V60.3255H112.909V57.8937C112.654 58.6695 112.203 59.289 111.554 59.7522C110.918 60.2154 110.136 60.447 109.209 60.447C108.364 60.447 107.611 60.2502 106.951 59.8564C106.292 59.4627 105.77 58.9011 105.388 58.1715C105.017 57.4305 104.832 56.562 104.832 55.5661C104.832 54.5701 105.017 53.7017 105.388 52.9605C105.77 52.2194 106.292 51.652 106.951 51.2582C107.611 50.8646 108.364 50.6677 109.209 50.6677ZM109.661 52.0747C108.689 52.0747 107.906 52.3873 107.316 53.0127C106.737 53.6264 106.448 54.4775 106.448 55.5661C106.448 56.6546 106.737 57.5115 107.316 58.1368C107.906 58.7506 108.689 59.0574 109.661 59.0574C110.287 59.0574 110.842 58.9126 111.329 58.6232C111.827 58.3337 112.215 57.9283 112.492 57.4072C112.77 56.8746 112.909 56.2608 112.909 55.5661C112.909 54.8712 112.77 54.2575 112.492 53.7248C112.215 53.1922 111.827 52.7868 111.329 52.5089C110.842 52.2194 110.287 52.0747 109.661 52.0747ZM121.782 50.6677C122.709 50.6677 123.49 50.8993 124.127 51.3625C124.776 51.8256 125.228 52.4453 125.482 53.2211V47.4716H127.063V60.3255H125.482V57.8937C125.228 58.6695 124.776 59.289 124.127 59.7522C123.49 60.2154 122.709 60.447 121.782 60.447C120.937 60.447 120.184 60.2502 119.525 59.8564C118.864 59.4627 118.343 58.9011 117.961 58.1715C117.591 57.4305 117.405 56.562 117.405 55.5661C117.405 54.5701 117.591 53.7017 117.961 52.9605C118.343 52.2194 118.864 51.652 119.525 51.2582C120.184 50.8646 120.937 50.6677 121.782 50.6677ZM122.234 52.0747C121.261 52.0747 120.48 52.3873 119.889 53.0127C119.31 53.6264 119.021 54.4775 119.021 55.5661C119.021 56.6546 119.31 57.5115 119.889 58.1368C120.48 58.7506 121.261 59.0574 122.234 59.0574C122.859 59.0574 123.415 58.9126 123.902 58.6232C124.4 58.3337 124.787 57.9283 125.065 57.4072C125.343 56.8746 125.482 56.2608 125.482 55.5661C125.482 54.8712 125.343 54.2575 125.065 53.7248C124.787 53.1922 124.4 52.7868 123.902 52.5089C123.415 52.2194 122.859 52.0747 122.234 52.0747ZM139.219 55.0276C139.219 55.3634 139.196 55.6529 139.15 55.896H131.524C131.558 56.9846 131.866 57.801 132.444 58.3452C133.035 58.8895 133.753 59.1617 134.599 59.1617C135.363 59.1617 136 58.9705 136.509 58.5884C137.031 58.1947 137.348 57.6736 137.465 57.0251H139.15C139.033 57.6852 138.773 58.2758 138.368 58.7969C137.974 59.318 137.459 59.7233 136.822 60.0128C136.185 60.3022 135.467 60.447 134.668 60.447C133.753 60.447 132.942 60.2502 132.236 59.8564C131.53 59.4627 130.974 58.9011 130.569 58.1715C130.175 57.4305 129.978 56.562 129.978 55.5661C129.978 54.5701 130.175 53.7017 130.569 52.9605C130.974 52.2194 131.53 51.652 132.236 51.2582C132.942 50.8646 133.753 50.6677 134.668 50.6677C135.594 50.6677 136.399 50.8646 137.083 51.2582C137.777 51.652 138.304 52.1789 138.663 52.8389C139.033 53.499 139.219 54.2285 139.219 55.0276ZM137.621 55.1318C137.656 54.4254 137.54 53.8349 137.274 53.36C137.007 52.8852 136.642 52.5321 136.179 52.3004C135.716 52.0688 135.212 51.9531 134.668 51.9531C133.8 51.9531 133.07 52.2252 132.479 52.7695C131.888 53.3021 131.57 54.0896 131.524 55.1318H137.621ZM153.88 50.6329C154.991 50.6329 155.883 50.9919 156.554 51.7099C157.238 52.4163 157.58 53.4411 157.58 54.7844V60.3255H155.998V54.9234C155.998 53.9854 155.768 53.2674 155.304 52.7695C154.852 52.2715 154.227 52.0225 153.428 52.0225C152.594 52.0225 151.922 52.3004 151.413 52.8563C150.915 53.4006 150.666 54.2054 150.666 55.2707V60.3255H149.086V54.9234C149.086 53.9854 148.854 53.2674 148.39 52.7695C147.927 52.2715 147.302 52.0225 146.515 52.0225C145.669 52.0225 144.992 52.3004 144.482 52.8563C143.984 53.4006 143.735 54.2054 143.735 55.2707V60.3255H142.155V50.7893H143.735V52.9605C143.968 52.2078 144.378 51.6346 144.969 51.2409C145.571 50.8356 146.26 50.6329 147.036 50.6329C147.846 50.6329 148.547 50.8414 149.138 51.2582C149.74 51.6636 150.168 52.2657 150.423 53.0647C150.69 52.2889 151.135 51.6925 151.76 51.2756C152.385 50.8472 153.092 50.6329 153.88 50.6329ZM161.563 50.7893L164.654 58.2931L167.52 50.7893H169.274L163.612 64.8416H161.823L163.803 60.1691L159.791 50.7893H161.563Z" fill="#3D1659"/>
</svg>
