<svg width="260" height="135" viewBox="0 0 260 135" fill="none" xmlns="http://www.w3.org/2000/svg">
<g clip-path="url(#clip0)">
<rect width="260" height="135" fill="url(#paint0_linear)"/>
<path d="M237.155 83.9139C249.613 68.5611 247.267 46.0158 231.914 33.5576C216.561 21.0994 194.016 23.4459 181.558 38.7987C169.099 54.1515 171.446 76.6968 186.799 89.155C202.151 101.613 224.697 99.2667 237.155 83.9139Z" fill="#8DEC60"/>
<path d="M177.302 56.1312C179.502 56.8312 176.902 49.2312 180.302 49.9312C178.302 54.7312 180.902 60.2312 184.902 60.2312C188.902 60.2312 189.902 57.4312 190.602 58.8312C192.602 60.8312 192.002 63.6312 191.302 65.6312C189.802 71.5312 193.402 70.8312 194.702 74.2312C196.102 77.9312 197.502 84.8312 199.502 88.3312C200.202 89.5312 202.102 89.2312 202.302 87.8312C202.902 83.6312 203.502 81.4312 205.602 76.6312C207.502 72.2312 208.302 68.4312 207.002 64.3312C205.002 59.5312 192.702 65.7312 194.102 58.2312C194.802 56.2312 196.502 51.6312 192.102 51.2312C188.402 50.9312 192.102 57.5312 188.002 55.5312C184.702 52.8312 187.202 48.8312 189.902 46.8312C190.002 46.7312 190.102 46.7312 190.202 46.6312C192.902 45.4312 196.202 46.6312 198.902 44.6312C200.902 43.2312 197.502 39.1312 198.902 38.5312C200.902 35.8312 205.002 35.8312 203.702 31.0312C203.302 29.7312 202.002 28.7312 200.802 27.6312C200.402 27.3312 199.902 27.1312 199.402 27.3312C189.702 30.2312 181.702 37.1312 177.402 46.1312C177.302 46.3312 177.202 46.6312 177.302 46.9312C177.402 49.3312 175.202 55.5312 177.302 56.1312Z" fill="#74E86B"/>
<path d="M231.702 33.9312C231.002 34.0312 230.202 34.0312 229.502 33.9312C228.502 33.8312 227.702 34.7312 227.902 35.6312C228.402 38.1312 228.402 40.5312 225.502 41.9312C224.602 42.3312 224.302 43.5312 225.002 44.2312C225.102 44.3312 225.302 44.4312 225.402 44.4312C228.802 45.8312 230.902 49.2312 229.502 50.5312C227.502 53.1312 225.802 53.7312 225.102 55.9312C224.702 57.1312 225.902 58.1312 227.102 57.7312C230.402 56.4312 233.902 55.5312 236.702 52.9312C236.902 52.7312 237.102 52.4312 237.102 52.1312C237.202 51.7312 237.402 51.2312 237.502 50.7312C237.802 49.8312 238.802 49.4312 239.602 49.8312C239.802 49.9312 239.902 50.0312 240.102 50.1312C240.302 50.3312 240.502 50.5312 240.602 50.7312C242.902 56.5312 235.602 57.9312 231.602 60.6312C227.902 63.1312 233.302 68.5312 234.202 73.5312C234.402 74.3312 235.202 74.9312 236.002 74.6312C237.602 74.1312 238.902 73.1312 240.302 72.2312C241.202 71.6312 242.402 72.0312 242.602 73.1312C242.702 73.4312 242.802 73.8312 242.902 74.1312C244.502 70.1312 245.302 65.7312 245.302 61.2312C245.302 50.4312 240.502 40.7312 232.902 34.2312C232.502 34.0312 232.102 33.9312 231.702 33.9312Z" fill="#74E86B"/>
<path opacity="0.26" d="M234.097 87.4122C244.172 77.3368 246.61 63.4389 239.541 56.3705C232.473 49.3021 218.575 51.7397 208.5 61.8152C198.424 71.8906 195.987 85.7884 203.055 92.8569C210.123 99.9253 224.021 97.4876 234.097 87.4122Z" fill="#247D2D"/>
<path opacity="0.26" d="M234.062 87.3551C240.115 81.302 241.952 73.3242 238.163 69.5362C234.375 65.7481 226.398 67.5843 220.345 73.6374C214.292 79.6904 212.455 87.6682 216.243 91.4563C220.031 95.2443 228.009 93.4082 234.062 87.3551Z" fill="#247D2D"/>
<path opacity="0.2" d="M181.202 61.3304C182.902 51.1304 187.502 41.6304 195.402 34.8304C202.402 28.7304 214.102 27.9304 223.002 28.2304C208.802 22.4304 191.902 26.2304 181.702 38.8304C169.802 53.5304 171.402 74.8304 185.102 87.5304C181.002 78.8304 179.902 68.9304 181.202 61.3304Z" fill="white"/>
<path d="M31.1525 48.94C29.6885 48.94 28.4405 48.94 27.0005 48.94C26.9045 56.332 40.5845 56.212 40.5845 49.156C40.5845 44.956 37.3205 44.452 33.9845 44.092C32.4725 43.924 31.2245 43.66 31.3205 42.388C31.4645 40.396 35.9765 40.204 35.9765 42.436C37.4405 42.436 38.5445 42.436 40.0565 42.436C40.1525 35.188 27.0965 35.188 27.2405 42.436C27.2885 46.084 29.6885 47.332 33.3365 47.596C35.0165 47.692 36.4085 47.956 36.4085 49.132C36.4085 51.1 31.1525 51.076 31.1525 48.94ZM43.931 45.676C43.955 51.388 48.275 54.268 52.547 54.244C56.123 54.244 59.891 52.372 60.515 47.62C59.051 47.62 57.731 47.62 56.291 47.62C55.835 49.42 54.371 50.332 52.547 50.332C50.003 50.308 48.371 48.148 48.371 45.676C48.371 42.892 50.027 40.996 52.547 40.996C54.347 40.996 55.619 41.764 56.219 43.468C57.683 43.468 58.979 43.468 60.443 43.468C59.795 38.98 56.027 37.084 52.547 37.084C48.275 37.084 43.955 39.964 43.931 45.676ZM75.9022 48.124C80.1502 45.244 78.9502 37.3 72.3502 37.276C69.9022 37.276 67.4062 37.276 64.9822 37.276C64.9822 42.892 64.9822 48.484 64.9822 54.076C66.3742 54.076 67.8382 54.076 69.2782 54.076V49.132H71.5102L74.3902 54.076H79.1902V53.452L75.9022 48.124ZM72.3502 45.268H69.2782C69.2782 43.924 69.2782 42.484 69.2782 41.116C70.2862 41.116 71.3422 41.092 72.3502 41.116C74.7982 41.14 74.6782 45.268 72.3502 45.268ZM94.4174 54.076H98.6174V53.452L91.0334 37.06H89.1854L81.6254 53.452V54.076H85.8254L86.8094 51.964H93.4334L94.4174 54.076ZM92.0174 48.268H88.2254L90.0974 43.852L92.0174 48.268ZM103.558 41.116V54.076C104.974 54.076 106.39 54.076 107.806 54.076V41.116H111.91C111.91 39.82 111.91 38.548 111.91 37.276H99.4299C99.4299 38.548 99.4299 39.82 99.4299 41.116H103.558ZM114.754 45.676C114.778 51.388 119.098 54.268 123.37 54.244C126.947 54.244 130.715 52.372 131.339 47.62C129.875 47.62 128.555 47.62 127.115 47.62C126.659 49.42 125.194 50.332 123.37 50.332C120.826 50.308 119.194 48.148 119.194 45.676C119.194 42.892 120.85 40.996 123.37 40.996C125.17 40.996 126.443 41.764 127.043 43.468C128.507 43.468 129.803 43.468 131.267 43.468C130.619 38.98 126.851 37.084 123.37 37.084C119.098 37.084 114.778 39.964 114.754 45.676ZM149.822 37.276C148.358 37.276 146.894 37.276 145.43 37.276V43.372H140.246V37.276C138.782 37.276 137.294 37.276 135.854 37.276V54.076C137.294 54.076 138.782 54.076 140.246 54.076V47.332H145.43V54.076C146.894 54.076 148.358 54.076 149.822 54.076V37.276Z" fill="#FF77CF"/>
<path d="M31.1525 46.94C29.6885 46.94 28.4405 46.94 27.0005 46.94C26.9045 54.332 40.5845 54.212 40.5845 47.156C40.5845 42.956 37.3205 42.452 33.9845 42.092C32.4725 41.924 31.2245 41.66 31.3205 40.388C31.4645 38.396 35.9765 38.204 35.9765 40.436C37.4405 40.436 38.5445 40.436 40.0565 40.436C40.1525 33.188 27.0965 33.188 27.2405 40.436C27.2885 44.084 29.6885 45.332 33.3365 45.596C35.0165 45.692 36.4085 45.956 36.4085 47.132C36.4085 49.1 31.1525 49.076 31.1525 46.94ZM43.931 43.676C43.955 49.388 48.275 52.268 52.547 52.244C56.123 52.244 59.891 50.372 60.515 45.62C59.051 45.62 57.731 45.62 56.291 45.62C55.835 47.42 54.371 48.332 52.547 48.332C50.003 48.308 48.371 46.148 48.371 43.676C48.371 40.892 50.027 38.996 52.547 38.996C54.347 38.996 55.619 39.764 56.219 41.468C57.683 41.468 58.979 41.468 60.443 41.468C59.795 36.98 56.027 35.084 52.547 35.084C48.275 35.084 43.955 37.964 43.931 43.676ZM75.9022 46.124C80.1502 43.244 78.9502 35.3 72.3502 35.276C69.9022 35.276 67.4062 35.276 64.9822 35.276C64.9822 40.892 64.9822 46.484 64.9822 52.076C66.3742 52.076 67.8382 52.076 69.2782 52.076V47.132H71.5102L74.3902 52.076H79.1902V51.452L75.9022 46.124ZM72.3502 43.268H69.2782C69.2782 41.924 69.2782 40.484 69.2782 39.116C70.2862 39.116 71.3422 39.092 72.3502 39.116C74.7982 39.14 74.6782 43.268 72.3502 43.268ZM94.4174 52.076H98.6174V51.452L91.0334 35.06H89.1854L81.6254 51.452V52.076H85.8254L86.8094 49.964H93.4334L94.4174 52.076ZM92.0174 46.268H88.2254L90.0974 41.852L92.0174 46.268ZM103.558 39.116V52.076C104.974 52.076 106.39 52.076 107.806 52.076V39.116H111.91C111.91 37.82 111.91 36.548 111.91 35.276H99.4299C99.4299 36.548 99.4299 37.82 99.4299 39.116H103.558ZM114.754 43.676C114.778 49.388 119.098 52.268 123.37 52.244C126.947 52.244 130.715 50.372 131.339 45.62C129.875 45.62 128.555 45.62 127.115 45.62C126.659 47.42 125.194 48.332 123.37 48.332C120.826 48.308 119.194 46.148 119.194 43.676C119.194 40.892 120.85 38.996 123.37 38.996C125.17 38.996 126.443 39.764 127.043 41.468C128.507 41.468 129.803 41.468 131.267 41.468C130.619 36.98 126.851 35.084 123.37 35.084C119.098 35.084 114.778 37.964 114.754 43.676ZM149.822 35.276C148.358 35.276 146.894 35.276 145.43 35.276V41.372H140.246V35.276C138.782 35.276 137.294 35.276 135.854 35.276V52.076C137.294 52.076 138.782 52.076 140.246 52.076V45.332H145.43V52.076C146.894 52.076 148.358 52.076 149.822 52.076V35.276Z" fill="white"/>
<path d="M-4 100H268C218.831 93.0994 181.169 76.2729 112.646 88.1593C74.1824 94.8316 40.9846 59.0122 -4 100Z" fill="#F8FBFF"/>
<rect x="-7" y="99" width="275" height="62" fill="#F8FBFF"/>
<path d="M159.866 13.4327C159.866 9.32779 156.538 6.00012 152.433 6.00012C148.328 6.00012 145 9.32779 145 13.4327C145 17.5376 148.328 20.8652 152.433 20.8652C156.538 20.8652 159.866 17.5376 159.866 13.4327Z" fill="url(#paint1_radial)"/>
</g>
<defs>
<linearGradient id="paint0_linear" x1="260" y1="-9.86851e-06" x2="-15.0321" y2="88.0416" gradientUnits="userSpaceOnUse">
<stop offset="0.0223687" stop-color="#376A99"/>
<stop offset="0.536458" stop-color="#1F2666"/>
<stop offset="1" stop-color="#0C1249"/>
</linearGradient>
<radialGradient id="paint1_radial" cx="0" cy="0" r="1" gradientUnits="userSpaceOnUse" gradientTransform="translate(152.433 13.4327) scale(7.43256)">
<stop stop-color="white" stop-opacity="0.52"/>
<stop offset="0.395833" stop-color="white" stop-opacity="0.14"/>
<stop offset="0.677083" stop-color="white" stop-opacity="0"/>
</radialGradient>
<clipPath id="clip0">
<rect width="260" height="135" fill="white"/>
</clipPath>
</defs>
</svg>
